<svg id="Layer_1" data-name="Layer 1" xmlns="http://www.w3.org/2000/svg" viewBox="0 0 512 418.14"><defs><style>.cls-1{fill:#eaeaea;}</style></defs><title>cloud-computing</title><path class="cls-1" d="M417.39,132.93h-7.58a72.35,72.35,0,0,0-70.34-55.5,76.47,76.47,0,0,0-23.68,4.16A122.32,122.32,0,0,0,200.35,0C132.74,0,77.9,54.54,77.9,121.84a124.69,124.69,0,0,0,.64,12.54C34.11,142,0,180.74,0,227.06c0,51.78,42.58,94.14,94.61,94.14H417.39c52,0,94.61-42.37,94.61-94.14S469.42,132.93,417.39,132.93Z"/><path class="cls-1" d="M256,97.67a138.79,138.79,0,0,0-82.51,250.48v70L230,373a138.88,138.88,0,1,0,26-275.3Z"/></svg>