<svg xmlns="http://www.w3.org/2000/svg" viewBox="0 0 573.5 75.5"><defs><style>.cls-1{fill:#fff;}.cls-2{fill:none;}.cls-3{fill:#231f20;}</style></defs><title>dash3</title><g id="Layer_1" data-name="Layer 1"><line class="cls-1" y1="68" x2="441.5" y2="68"/><rect class="cls-2" y="60.5" width="13.38" height="15"/><rect class="cls-3" x="9.91" y="67.47" width="2.48" height="1.5"/><rect class="cls-3" x="5.45" y="67.47" width="2.48" height="1.5"/><rect class="cls-3" x="1.01" y="67.47" width="2.48" height="1.5"/><rect class="cls-2" x="13.38" y="60.5" width="13.38" height="15"/><rect class="cls-3" x="23.29" y="67.47" width="2.48" height="1.5"/><rect class="cls-3" x="18.83" y="67.47" width="2.48" height="1.5"/><rect class="cls-3" x="14.39" y="67.47" width="2.48" height="1.5"/><rect class="cls-2" x="26.76" y="60.5" width="13.38" height="15"/><rect class="cls-3" x="36.66" y="67.47" width="2.48" height="1.5"/><rect class="cls-3" x="32.21" y="67.47" width="2.48" height="1.5"/><rect class="cls-3" x="27.77" y="67.47" width="2.48" height="1.5"/><rect class="cls-2" x="40.14" y="60.5" width="13.38" height="15"/><rect class="cls-3" x="50.04" y="67.47" width="2.48" height="1.5"/><rect class="cls-3" x="45.59" y="67.47" width="2.48" height="1.5"/><rect class="cls-3" x="41.15" y="67.47" width="2.48" height="1.5"/><rect class="cls-2" x="53.52" y="60.5" width="13.38" height="15"/><rect class="cls-3" x="63.42" y="67.47" width="2.48" height="1.5"/><rect class="cls-3" x="58.97" y="67.47" width="2.48" height="1.5"/><rect class="cls-3" x="54.53" y="67.47" width="2.48" height="1.5"/><rect class="cls-2" x="66.89" y="60.5" width="13.38" height="15"/><rect class="cls-3" x="76.8" y="67.47" width="2.48" height="1.5"/><rect class="cls-3" x="72.35" y="67.47" width="2.48" height="1.5"/><rect class="cls-3" x="67.91" y="67.47" width="2.48" height="1.5"/><rect class="cls-2" x="80.27" y="60.5" width="13.38" height="15"/><rect class="cls-3" x="90.18" y="67.47" width="2.48" height="1.5"/><rect class="cls-3" x="85.73" y="67.47" width="2.48" height="1.5"/><rect class="cls-3" x="81.29" y="67.47" width="2.48" height="1.5"/><rect class="cls-2" x="93.65" y="60.5" width="13.38" height="15"/><rect class="cls-3" x="103.56" y="67.47" width="2.48" height="1.5"/><rect class="cls-3" x="99.1" y="67.47" width="2.48" height="1.5"/><rect class="cls-3" x="94.67" y="67.47" width="2.48" height="1.5"/><rect class="cls-2" x="107.03" y="60.5" width="13.38" height="15"/><rect class="cls-3" x="116.94" y="67.47" width="2.48" height="1.5"/><rect class="cls-3" x="112.48" y="67.47" width="2.48" height="1.5"/><rect class="cls-3" x="108.04" y="67.47" width="2.48" height="1.5"/><rect class="cls-2" x="120.41" y="60.5" width="13.38" height="15"/><rect class="cls-3" x="130.32" y="67.47" width="2.48" height="1.5"/><rect class="cls-3" x="125.86" y="67.47" width="2.48" height="1.5"/><rect class="cls-3" x="121.42" y="67.47" width="2.48" height="1.5"/><rect class="cls-2" x="133.79" y="60.5" width="13.38" height="15"/><rect class="cls-3" x="143.69" y="67.47" width="2.48" height="1.5"/><rect class="cls-3" x="139.24" y="67.47" width="2.48" height="1.5"/><rect class="cls-3" x="134.8" y="67.47" width="2.48" height="1.5"/><rect class="cls-2" x="147.17" y="60.5" width="13.38" height="15"/><rect class="cls-3" x="157.07" y="67.47" width="2.48" height="1.5"/><rect class="cls-3" x="152.62" y="67.47" width="2.48" height="1.5"/><rect class="cls-3" x="148.18" y="67.47" width="2.48" height="1.5"/><rect class="cls-2" x="160.55" y="60.5" width="13.38" height="15"/><rect class="cls-3" x="170.45" y="67.47" width="2.48" height="1.5"/><rect class="cls-3" x="166" y="67.47" width="2.48" height="1.5"/><rect class="cls-3" x="161.56" y="67.47" width="2.48" height="1.5"/><rect class="cls-2" x="173.92" y="60.5" width="13.38" height="15"/><rect class="cls-3" x="183.83" y="67.47" width="2.48" height="1.5"/><rect class="cls-3" x="179.38" y="67.47" width="2.48" height="1.5"/><rect class="cls-3" x="174.94" y="67.47" width="2.48" height="1.5"/><rect class="cls-2" x="187.3" y="60.5" width="13.38" height="15"/><rect class="cls-3" x="197.21" y="67.47" width="2.48" height="1.5"/><rect class="cls-3" x="192.76" y="67.47" width="2.48" height="1.5"/><rect class="cls-3" x="188.32" y="67.47" width="2.48" height="1.5"/><rect class="cls-2" x="200.68" y="60.5" width="13.38" height="15"/><rect class="cls-3" x="210.59" y="67.47" width="2.48" height="1.5"/><rect class="cls-3" x="206.13" y="67.47" width="2.48" height="1.5"/><rect class="cls-3" x="201.7" y="67.47" width="2.48" height="1.5"/><rect class="cls-2" x="214.06" y="60.5" width="13.38" height="15"/><rect class="cls-3" x="223.97" y="67.47" width="2.48" height="1.5"/><rect class="cls-3" x="219.51" y="67.47" width="2.48" height="1.5"/><rect class="cls-3" x="215.07" y="67.47" width="2.48" height="1.5"/><rect class="cls-2" x="227.44" y="60.5" width="13.38" height="15"/><rect class="cls-3" x="237.35" y="67.47" width="2.48" height="1.5"/><rect class="cls-3" x="232.89" y="67.47" width="2.48" height="1.5"/><rect class="cls-3" x="228.45" y="67.47" width="2.48" height="1.5"/><rect class="cls-2" x="240.82" y="60.5" width="13.38" height="15"/><rect class="cls-3" x="250.73" y="67.47" width="2.48" height="1.5"/><rect class="cls-3" x="246.27" y="67.47" width="2.48" height="1.5"/><rect class="cls-3" x="241.83" y="67.47" width="2.48" height="1.5"/><rect class="cls-2" x="254.2" y="60.5" width="13.38" height="15"/><rect class="cls-3" x="264.1" y="67.47" width="2.48" height="1.5"/><rect class="cls-3" x="259.65" y="67.47" width="2.48" height="1.5"/><rect class="cls-3" x="255.21" y="67.47" width="2.48" height="1.5"/><rect class="cls-2" x="267.58" y="60.5" width="13.38" height="15"/><rect class="cls-3" x="277.48" y="67.47" width="2.48" height="1.5"/><rect class="cls-3" x="273.03" y="67.47" width="2.48" height="1.5"/><rect class="cls-3" x="268.59" y="67.47" width="2.48" height="1.5"/><rect class="cls-2" x="280.95" y="60.5" width="13.38" height="15"/><rect class="cls-3" x="290.86" y="67.47" width="2.48" height="1.5"/><rect class="cls-3" x="286.41" y="67.47" width="2.48" height="1.5"/><rect class="cls-3" x="281.97" y="67.47" width="2.48" height="1.5"/><rect class="cls-2" x="294.33" y="60.5" width="13.38" height="15"/><rect class="cls-3" x="304.24" y="67.47" width="2.48" height="1.5"/><rect class="cls-3" x="299.79" y="67.47" width="2.48" height="1.5"/><rect class="cls-3" x="295.35" y="67.47" width="2.48" height="1.5"/><rect class="cls-2" x="307.71" y="60.5" width="13.38" height="15"/><rect class="cls-3" x="317.62" y="67.47" width="2.48" height="1.5"/><rect class="cls-3" x="313.17" y="67.47" width="2.48" height="1.5"/><rect class="cls-3" x="308.73" y="67.47" width="2.48" height="1.5"/><rect class="cls-2" x="321.09" y="60.5" width="13.38" height="15"/><rect class="cls-3" x="331" y="67.47" width="2.48" height="1.5"/><rect class="cls-3" x="326.54" y="67.47" width="2.48" height="1.5"/><rect class="cls-3" x="322.1" y="67.47" width="2.48" height="1.5"/><rect class="cls-2" x="334.47" y="60.5" width="13.38" height="15"/><rect class="cls-3" x="344.38" y="67.47" width="2.48" height="1.5"/><rect class="cls-3" x="339.92" y="67.47" width="2.48" height="1.5"/><rect class="cls-3" x="335.48" y="67.47" width="2.48" height="1.5"/><rect class="cls-2" x="347.85" y="60.5" width="13.38" height="15"/><rect class="cls-3" x="357.76" y="67.47" width="2.48" height="1.5"/><rect class="cls-3" x="353.3" y="67.47" width="2.48" height="1.5"/><rect class="cls-3" x="348.86" y="67.47" width="2.48" height="1.5"/><rect class="cls-2" x="361.23" y="60.5" width="13.38" height="15"/><rect class="cls-3" x="371.13" y="67.47" width="2.48" height="1.5"/><rect class="cls-3" x="366.68" y="67.47" width="2.48" height="1.5"/><rect class="cls-3" x="362.24" y="67.47" width="2.48" height="1.5"/><rect class="cls-2" x="374.61" y="60.5" width="13.38" height="15"/><rect class="cls-3" x="384.51" y="67.47" width="2.48" height="1.5"/><rect class="cls-3" x="380.06" y="67.47" width="2.48" height="1.5"/><rect class="cls-3" x="375.62" y="67.47" width="2.48" height="1.5"/><rect class="cls-2" x="387.98" y="60.5" width="13.38" height="15"/><rect class="cls-3" x="397.89" y="67.47" width="2.48" height="1.5"/><rect class="cls-3" x="393.44" y="67.47" width="2.48" height="1.5"/><rect class="cls-3" x="389" y="67.47" width="2.48" height="1.5"/><rect class="cls-2" x="401.36" y="60.5" width="13.38" height="15"/><rect class="cls-3" x="411.27" y="67.47" width="2.48" height="1.5"/><rect class="cls-3" x="406.82" y="67.47" width="2.48" height="1.5"/><rect class="cls-3" x="402.38" y="67.47" width="2.48" height="1.5"/><rect class="cls-2" x="414.74" y="60.5" width="13.38" height="15"/><rect class="cls-3" x="424.65" y="67.47" width="2.48" height="1.5"/><rect class="cls-3" x="420.2" y="67.47" width="2.48" height="1.5"/><rect class="cls-3" x="415.76" y="67.47" width="2.48" height="1.5"/><rect class="cls-2" x="428.12" y="60.5" width="13.38" height="15"/><rect class="cls-3" x="438.03" y="67.47" width="2.48" height="1.5"/><rect class="cls-3" x="433.57" y="67.47" width="2.48" height="1.5"/><rect class="cls-3" x="429.13" y="67.47" width="2.48" height="1.5"/></g><g id="Layer_2" data-name="Layer 2"><rect class="cls-2" x="435" y="7.5" width="15" height="15"/><rect class="cls-3" x="441.53" y="18.61" width="1.5" height="2.78"/><rect class="cls-3" x="441.53" y="13.61" width="1.5" height="2.78"/><rect class="cls-3" x="441.53" y="8.64" width="1.5" height="2.78"/><rect class="cls-2" x="435" y="22.5" width="15" height="15"/><rect class="cls-3" x="441.53" y="33.61" width="1.5" height="2.78"/><rect class="cls-3" x="441.53" y="28.61" width="1.5" height="2.78"/><rect class="cls-3" x="441.53" y="23.64" width="1.5" height="2.78"/><rect class="cls-2" x="435" y="37.5" width="15" height="15"/><rect class="cls-3" x="441.53" y="48.61" width="1.5" height="2.78"/><rect class="cls-3" x="441.53" y="43.61" width="1.5" height="2.78"/><rect class="cls-3" x="441.53" y="38.64" width="1.5" height="2.78"/><rect class="cls-2" x="435" y="52.5" width="15" height="15"/><rect class="cls-3" x="441.53" y="63.61" width="1.5" height="2.78"/><rect class="cls-3" x="441.53" y="58.61" width="1.5" height="2.78"/><rect class="cls-3" x="441.53" y="53.64" width="1.5" height="2.78"/></g><g id="Layer_3" data-name="Layer 3"><rect class="cls-2" x="443.5" width="13" height="15"/><rect class="cls-3" x="453.13" y="6.97" width="2.41" height="1.5"/><rect class="cls-3" x="448.8" y="6.97" width="2.41" height="1.5"/><rect class="cls-3" x="444.48" y="6.97" width="2.41" height="1.5"/><rect class="cls-2" x="456.5" width="13" height="15"/><rect class="cls-3" x="466.13" y="6.97" width="2.41" height="1.5"/><rect class="cls-3" x="461.8" y="6.97" width="2.41" height="1.5"/><rect class="cls-3" x="457.48" y="6.97" width="2.41" height="1.5"/><rect class="cls-2" x="469.5" width="13" height="15"/><rect class="cls-3" x="479.13" y="6.97" width="2.41" height="1.5"/><rect class="cls-3" x="474.8" y="6.97" width="2.41" height="1.5"/><rect class="cls-3" x="470.48" y="6.97" width="2.41" height="1.5"/><rect class="cls-2" x="482.5" width="13" height="15"/><rect class="cls-3" x="492.13" y="6.97" width="2.41" height="1.5"/><rect class="cls-3" x="487.8" y="6.97" width="2.41" height="1.5"/><rect class="cls-3" x="483.48" y="6.97" width="2.41" height="1.5"/><rect class="cls-2" x="495.5" width="13" height="15"/><rect class="cls-3" x="505.13" y="6.97" width="2.41" height="1.5"/><rect class="cls-3" x="500.8" y="6.97" width="2.41" height="1.5"/><rect class="cls-3" x="496.48" y="6.97" width="2.41" height="1.5"/><rect class="cls-2" x="508.5" width="13" height="15"/><rect class="cls-3" x="518.13" y="6.97" width="2.41" height="1.5"/><rect class="cls-3" x="513.8" y="6.97" width="2.41" height="1.5"/><rect class="cls-3" x="509.48" y="6.97" width="2.41" height="1.5"/><rect class="cls-2" x="521.5" width="13" height="15"/><rect class="cls-3" x="531.13" y="6.97" width="2.41" height="1.5"/><rect class="cls-3" x="526.8" y="6.97" width="2.41" height="1.5"/><rect class="cls-3" x="522.48" y="6.97" width="2.41" height="1.5"/><rect class="cls-2" x="534.5" width="13" height="15"/><rect class="cls-3" x="544.13" y="6.97" width="2.41" height="1.5"/><rect class="cls-3" x="539.8" y="6.97" width="2.41" height="1.5"/><rect class="cls-3" x="535.48" y="6.97" width="2.41" height="1.5"/><rect class="cls-2" x="547.5" width="13" height="15"/><rect class="cls-3" x="557.13" y="6.97" width="2.41" height="1.5"/><rect class="cls-3" x="552.8" y="6.97" width="2.41" height="1.5"/><rect class="cls-3" x="548.48" y="6.97" width="2.41" height="1.5"/><rect class="cls-2" x="560.5" width="13" height="15"/><rect class="cls-3" x="570.13" y="6.97" width="2.41" height="1.5"/><rect class="cls-3" x="565.8" y="6.97" width="2.41" height="1.5"/><rect class="cls-3" x="561.48" y="6.97" width="2.41" height="1.5"/></g></svg>