<svg id="Layer_1" data-name="Layer 1" xmlns="http://www.w3.org/2000/svg" viewBox="0 0 480.5 75.5"><defs><style>.cls-1{fill:#fff;}.cls-2{fill:none;}.cls-3{fill:#231f20;}</style></defs><title>dash2</title><line class="cls-1" y1="68" x2="396" y2="68"/><rect class="cls-2" y="60.5" width="13.66" height="15"/><rect class="cls-3" x="10.11" y="67.47" width="2.53" height="1.5"/><rect class="cls-3" x="5.57" y="67.47" width="2.53" height="1.5"/><rect class="cls-3" x="1.03" y="67.47" width="2.53" height="1.5"/><rect class="cls-2" x="13.66" y="60.5" width="13.66" height="15"/><rect class="cls-3" x="23.77" y="67.47" width="2.53" height="1.5"/><rect class="cls-3" x="19.22" y="67.47" width="2.53" height="1.5"/><rect class="cls-3" x="14.69" y="67.47" width="2.53" height="1.5"/><rect class="cls-2" x="27.31" y="60.5" width="13.66" height="15"/><rect class="cls-3" x="37.42" y="67.47" width="2.53" height="1.5"/><rect class="cls-3" x="32.88" y="67.47" width="2.53" height="1.5"/><rect class="cls-3" x="28.34" y="67.47" width="2.53" height="1.5"/><rect class="cls-2" x="40.97" y="60.5" width="13.66" height="15"/><rect class="cls-3" x="51.08" y="67.47" width="2.53" height="1.5"/><rect class="cls-3" x="46.53" y="67.47" width="2.53" height="1.5"/><rect class="cls-3" x="42" y="67.47" width="2.53" height="1.5"/><rect class="cls-2" x="54.62" y="60.5" width="13.66" height="15"/><rect class="cls-3" x="64.73" y="67.47" width="2.53" height="1.5"/><rect class="cls-3" x="60.19" y="67.47" width="2.53" height="1.5"/><rect class="cls-3" x="55.66" y="67.47" width="2.53" height="1.5"/><rect class="cls-2" x="68.28" y="60.5" width="13.66" height="15"/><rect class="cls-3" x="78.39" y="67.47" width="2.53" height="1.5"/><rect class="cls-3" x="73.84" y="67.47" width="2.53" height="1.5"/><rect class="cls-3" x="69.31" y="67.47" width="2.53" height="1.5"/><rect class="cls-2" x="81.93" y="60.5" width="13.66" height="15"/><rect class="cls-3" x="92.04" y="67.47" width="2.53" height="1.5"/><rect class="cls-3" x="87.5" y="67.47" width="2.53" height="1.5"/><rect class="cls-3" x="82.97" y="67.47" width="2.53" height="1.5"/><rect class="cls-2" x="95.59" y="60.5" width="13.66" height="15"/><rect class="cls-3" x="105.7" y="67.47" width="2.53" height="1.5"/><rect class="cls-3" x="101.15" y="67.47" width="2.53" height="1.5"/><rect class="cls-3" x="96.62" y="67.47" width="2.53" height="1.5"/><rect class="cls-2" x="109.24" y="60.5" width="13.66" height="15"/><rect class="cls-3" x="119.35" y="67.47" width="2.53" height="1.5"/><rect class="cls-3" x="114.81" y="67.47" width="2.53" height="1.5"/><rect class="cls-3" x="110.28" y="67.47" width="2.53" height="1.5"/><rect class="cls-2" x="122.9" y="60.5" width="13.66" height="15"/><rect class="cls-3" x="133.01" y="67.47" width="2.53" height="1.5"/><rect class="cls-3" x="128.46" y="67.47" width="2.53" height="1.5"/><rect class="cls-3" x="123.93" y="67.47" width="2.53" height="1.5"/><rect class="cls-2" x="136.55" y="60.5" width="13.66" height="15"/><rect class="cls-3" x="146.66" y="67.47" width="2.53" height="1.5"/><rect class="cls-3" x="142.12" y="67.47" width="2.53" height="1.5"/><rect class="cls-3" x="137.59" y="67.47" width="2.53" height="1.5"/><rect class="cls-2" x="150.21" y="60.5" width="13.66" height="15"/><rect class="cls-3" x="160.32" y="67.47" width="2.53" height="1.5"/><rect class="cls-3" x="155.77" y="67.47" width="2.53" height="1.5"/><rect class="cls-3" x="151.24" y="67.47" width="2.53" height="1.5"/><rect class="cls-2" x="163.86" y="60.5" width="13.66" height="15"/><rect class="cls-3" x="173.97" y="67.47" width="2.53" height="1.5"/><rect class="cls-3" x="169.43" y="67.47" width="2.53" height="1.5"/><rect class="cls-3" x="164.9" y="67.47" width="2.53" height="1.5"/><rect class="cls-2" x="177.52" y="60.5" width="13.66" height="15"/><rect class="cls-3" x="187.63" y="67.47" width="2.53" height="1.5"/><rect class="cls-3" x="183.08" y="67.47" width="2.53" height="1.5"/><rect class="cls-3" x="178.55" y="67.47" width="2.53" height="1.5"/><rect class="cls-2" x="191.17" y="60.5" width="13.66" height="15"/><rect class="cls-3" x="201.28" y="67.47" width="2.53" height="1.5"/><rect class="cls-3" x="196.74" y="67.47" width="2.53" height="1.5"/><rect class="cls-3" x="192.21" y="67.47" width="2.53" height="1.5"/><rect class="cls-2" x="204.83" y="60.5" width="13.66" height="15"/><rect class="cls-3" x="214.94" y="67.47" width="2.53" height="1.5"/><rect class="cls-3" x="210.39" y="67.47" width="2.53" height="1.5"/><rect class="cls-3" x="205.86" y="67.47" width="2.53" height="1.5"/><rect class="cls-2" x="218.48" y="60.5" width="13.66" height="15"/><rect class="cls-3" x="228.59" y="67.47" width="2.53" height="1.5"/><rect class="cls-3" x="224.05" y="67.47" width="2.53" height="1.5"/><rect class="cls-3" x="219.52" y="67.47" width="2.53" height="1.5"/><rect class="cls-2" x="232.14" y="60.5" width="13.66" height="15"/><rect class="cls-3" x="242.25" y="67.47" width="2.53" height="1.5"/><rect class="cls-3" x="237.7" y="67.47" width="2.53" height="1.5"/><rect class="cls-3" x="233.17" y="67.47" width="2.53" height="1.5"/><rect class="cls-2" x="245.79" y="60.5" width="13.66" height="15"/><rect class="cls-3" x="255.9" y="67.47" width="2.53" height="1.5"/><rect class="cls-3" x="251.36" y="67.47" width="2.53" height="1.5"/><rect class="cls-3" x="246.83" y="67.47" width="2.53" height="1.5"/><rect class="cls-2" x="259.45" y="60.5" width="13.66" height="15"/><rect class="cls-3" x="269.56" y="67.47" width="2.53" height="1.5"/><rect class="cls-3" x="265.01" y="67.47" width="2.53" height="1.5"/><rect class="cls-3" x="260.48" y="67.47" width="2.53" height="1.5"/><rect class="cls-2" x="273.1" y="60.5" width="13.66" height="15"/><rect class="cls-3" x="283.22" y="67.47" width="2.53" height="1.5"/><rect class="cls-3" x="278.67" y="67.47" width="2.53" height="1.5"/><rect class="cls-3" x="274.14" y="67.47" width="2.53" height="1.5"/><rect class="cls-2" x="286.76" y="60.5" width="13.66" height="15"/><rect class="cls-3" x="296.87" y="67.47" width="2.53" height="1.5"/><rect class="cls-3" x="292.32" y="67.47" width="2.53" height="1.5"/><rect class="cls-3" x="287.79" y="67.47" width="2.53" height="1.5"/><rect class="cls-2" x="300.41" y="60.5" width="13.66" height="15"/><rect class="cls-3" x="310.53" y="67.47" width="2.53" height="1.5"/><rect class="cls-3" x="305.98" y="67.47" width="2.53" height="1.5"/><rect class="cls-3" x="301.45" y="67.47" width="2.53" height="1.5"/><rect class="cls-2" x="314.07" y="60.5" width="13.66" height="15"/><rect class="cls-3" x="324.18" y="67.47" width="2.53" height="1.5"/><rect class="cls-3" x="319.63" y="67.47" width="2.53" height="1.5"/><rect class="cls-3" x="315.1" y="67.47" width="2.53" height="1.5"/><rect class="cls-2" x="327.72" y="60.5" width="13.66" height="15"/><rect class="cls-3" x="337.84" y="67.47" width="2.53" height="1.5"/><rect class="cls-3" x="333.29" y="67.47" width="2.53" height="1.5"/><rect class="cls-3" x="328.76" y="67.47" width="2.53" height="1.5"/><rect class="cls-2" x="341.38" y="60.5" width="13.66" height="15"/><rect class="cls-3" x="351.49" y="67.47" width="2.53" height="1.5"/><rect class="cls-3" x="346.95" y="67.47" width="2.53" height="1.5"/><rect class="cls-3" x="342.41" y="67.47" width="2.53" height="1.5"/><rect class="cls-2" x="355.03" y="60.5" width="13.66" height="15"/><rect class="cls-3" x="365.15" y="67.47" width="2.53" height="1.5"/><rect class="cls-3" x="360.6" y="67.47" width="2.53" height="1.5"/><rect class="cls-3" x="356.07" y="67.47" width="2.53" height="1.5"/><rect class="cls-2" x="368.69" y="60.5" width="13.66" height="15"/><rect class="cls-3" x="378.8" y="67.47" width="2.53" height="1.5"/><rect class="cls-3" x="374.26" y="67.47" width="2.53" height="1.5"/><rect class="cls-3" x="369.72" y="67.47" width="2.53" height="1.5"/><rect class="cls-2" x="382.34" y="60.5" width="13.66" height="15"/><rect class="cls-3" x="392.46" y="67.47" width="2.53" height="1.5"/><rect class="cls-3" x="387.91" y="67.47" width="2.53" height="1.5"/><rect class="cls-3" x="383.38" y="67.47" width="2.53" height="1.5"/><rect class="cls-2" x="389" y="7.5" width="15" height="15"/><rect class="cls-3" x="395.53" y="18.61" width="1.5" height="2.78"/><rect class="cls-3" x="395.53" y="13.61" width="1.5" height="2.78"/><rect class="cls-3" x="395.53" y="8.64" width="1.5" height="2.78"/><rect class="cls-2" x="389" y="22.5" width="15" height="15"/><rect class="cls-3" x="395.53" y="33.61" width="1.5" height="2.78"/><rect class="cls-3" x="395.53" y="28.61" width="1.5" height="2.78"/><rect class="cls-3" x="395.53" y="23.64" width="1.5" height="2.78"/><rect class="cls-2" x="389" y="37.5" width="15" height="15"/><rect class="cls-3" x="395.53" y="48.61" width="1.5" height="2.78"/><rect class="cls-3" x="395.53" y="43.61" width="1.5" height="2.78"/><rect class="cls-3" x="395.53" y="38.64" width="1.5" height="2.78"/><rect class="cls-2" x="389" y="52.5" width="15" height="15"/><rect class="cls-3" x="395.53" y="63.61" width="1.5" height="2.78"/><rect class="cls-3" x="395.53" y="58.61" width="1.5" height="2.78"/><rect class="cls-3" x="395.53" y="53.64" width="1.5" height="2.78"/><rect class="cls-2" x="397.5" width="13.83" height="15"/><rect class="cls-3" x="407.74" y="6.97" width="2.57" height="1.5"/><rect class="cls-3" x="403.14" y="6.97" width="2.57" height="1.5"/><rect class="cls-3" x="398.55" y="6.97" width="2.57" height="1.5"/><rect class="cls-2" x="411.33" width="13.83" height="15"/><rect class="cls-3" x="421.58" y="6.97" width="2.57" height="1.5"/><rect class="cls-3" x="416.97" y="6.97" width="2.57" height="1.5"/><rect class="cls-3" x="412.38" y="6.97" width="2.57" height="1.5"/><rect class="cls-2" x="425.17" width="13.83" height="15"/><rect class="cls-3" x="435.41" y="6.97" width="2.57" height="1.5"/><rect class="cls-3" x="430.8" y="6.97" width="2.57" height="1.5"/><rect class="cls-3" x="426.21" y="6.97" width="2.57" height="1.5"/><rect class="cls-2" x="439" width="13.83" height="15"/><rect class="cls-3" x="449.24" y="6.97" width="2.57" height="1.5"/><rect class="cls-3" x="444.64" y="6.97" width="2.57" height="1.5"/><rect class="cls-3" x="440.05" y="6.97" width="2.57" height="1.5"/><rect class="cls-2" x="452.83" width="13.83" height="15"/><rect class="cls-3" x="463.08" y="6.97" width="2.57" height="1.5"/><rect class="cls-3" x="458.47" y="6.97" width="2.57" height="1.5"/><rect class="cls-3" x="453.88" y="6.97" width="2.57" height="1.5"/><rect class="cls-2" x="466.67" width="13.83" height="15"/><rect class="cls-3" x="476.91" y="6.97" width="2.57" height="1.5"/><rect class="cls-3" x="472.3" y="6.97" width="2.57" height="1.5"/><rect class="cls-3" x="467.71" y="6.97" width="2.57" height="1.5"/></svg>