<svg id="Layer_1" data-name="Layer 1" xmlns="http://www.w3.org/2000/svg" viewBox="0 0 575 76.5"><defs><style>.cls-1{fill:#fff;}.cls-2{fill:none;}.cls-3{fill:#231f20;}</style></defs><title>dash6</title><line class="cls-1" x1="133.5" y1="7.5" x2="575" y2="7.5"/><rect class="cls-2" x="133.5" width="13.38" height="15"/><rect class="cls-3" x="143.41" y="6.97" width="2.48" height="1.5"/><rect class="cls-3" x="138.95" y="6.97" width="2.48" height="1.5"/><rect class="cls-3" x="134.51" y="6.97" width="2.48" height="1.5"/><rect class="cls-2" x="146.88" width="13.38" height="15"/><rect class="cls-3" x="156.79" y="6.97" width="2.48" height="1.5"/><rect class="cls-3" x="152.33" y="6.97" width="2.48" height="1.5"/><rect class="cls-3" x="147.89" y="6.97" width="2.48" height="1.5"/><rect class="cls-2" x="160.26" width="13.38" height="15"/><rect class="cls-3" x="170.16" y="6.97" width="2.48" height="1.5"/><rect class="cls-3" x="165.71" y="6.97" width="2.48" height="1.5"/><rect class="cls-3" x="161.27" y="6.97" width="2.48" height="1.5"/><rect class="cls-2" x="173.64" width="13.38" height="15"/><rect class="cls-3" x="183.54" y="6.97" width="2.48" height="1.5"/><rect class="cls-3" x="179.09" y="6.97" width="2.48" height="1.5"/><rect class="cls-3" x="174.65" y="6.97" width="2.48" height="1.5"/><rect class="cls-2" x="187.02" width="13.38" height="15"/><rect class="cls-3" x="196.92" y="6.97" width="2.48" height="1.5"/><rect class="cls-3" x="192.47" y="6.97" width="2.48" height="1.5"/><rect class="cls-3" x="188.03" y="6.97" width="2.48" height="1.5"/><rect class="cls-2" x="200.39" width="13.38" height="15"/><rect class="cls-3" x="210.3" y="6.97" width="2.48" height="1.5"/><rect class="cls-3" x="205.85" y="6.97" width="2.48" height="1.5"/><rect class="cls-3" x="201.41" y="6.97" width="2.48" height="1.5"/><rect class="cls-2" x="213.77" width="13.38" height="15"/><rect class="cls-3" x="223.68" y="6.97" width="2.48" height="1.5"/><rect class="cls-3" x="219.23" y="6.97" width="2.48" height="1.5"/><rect class="cls-3" x="214.79" y="6.97" width="2.48" height="1.5"/><rect class="cls-2" x="227.15" width="13.38" height="15"/><rect class="cls-3" x="237.06" y="6.97" width="2.48" height="1.5"/><rect class="cls-3" x="232.6" y="6.97" width="2.48" height="1.5"/><rect class="cls-3" x="228.17" y="6.97" width="2.48" height="1.5"/><rect class="cls-2" x="240.53" width="13.38" height="15"/><rect class="cls-3" x="250.44" y="6.97" width="2.48" height="1.5"/><rect class="cls-3" x="245.98" y="6.97" width="2.48" height="1.5"/><rect class="cls-3" x="241.54" y="6.97" width="2.48" height="1.5"/><rect class="cls-2" x="253.91" width="13.38" height="15"/><rect class="cls-3" x="263.82" y="6.97" width="2.48" height="1.5"/><rect class="cls-3" x="259.36" y="6.97" width="2.48" height="1.5"/><rect class="cls-3" x="254.92" y="6.97" width="2.48" height="1.5"/><rect class="cls-2" x="267.29" width="13.38" height="15"/><rect class="cls-3" x="277.19" y="6.97" width="2.48" height="1.5"/><rect class="cls-3" x="272.74" y="6.97" width="2.48" height="1.5"/><rect class="cls-3" x="268.3" y="6.97" width="2.48" height="1.5"/><rect class="cls-2" x="280.67" width="13.38" height="15"/><rect class="cls-3" x="290.57" y="6.97" width="2.48" height="1.5"/><rect class="cls-3" x="286.12" y="6.97" width="2.48" height="1.5"/><rect class="cls-3" x="281.68" y="6.97" width="2.48" height="1.5"/><rect class="cls-2" x="294.05" width="13.38" height="15"/><rect class="cls-3" x="303.95" y="6.97" width="2.48" height="1.5"/><rect class="cls-3" x="299.5" y="6.97" width="2.48" height="1.5"/><rect class="cls-3" x="295.06" y="6.97" width="2.48" height="1.5"/><rect class="cls-2" x="307.42" width="13.38" height="15"/><rect class="cls-3" x="317.33" y="6.97" width="2.48" height="1.5"/><rect class="cls-3" x="312.88" y="6.97" width="2.48" height="1.5"/><rect class="cls-3" x="308.44" y="6.97" width="2.48" height="1.5"/><rect class="cls-2" x="320.8" width="13.38" height="15"/><rect class="cls-3" x="330.71" y="6.97" width="2.48" height="1.5"/><rect class="cls-3" x="326.26" y="6.97" width="2.48" height="1.5"/><rect class="cls-3" x="321.82" y="6.97" width="2.48" height="1.5"/><rect class="cls-2" x="334.18" width="13.38" height="15"/><rect class="cls-3" x="344.09" y="6.97" width="2.48" height="1.5"/><rect class="cls-3" x="339.63" y="6.97" width="2.48" height="1.5"/><rect class="cls-3" x="335.2" y="6.97" width="2.48" height="1.5"/><rect class="cls-2" x="347.56" width="13.38" height="15"/><rect class="cls-3" x="357.47" y="6.97" width="2.48" height="1.5"/><rect class="cls-3" x="353.01" y="6.97" width="2.48" height="1.5"/><rect class="cls-3" x="348.57" y="6.97" width="2.48" height="1.5"/><rect class="cls-2" x="360.94" width="13.38" height="15"/><rect class="cls-3" x="370.85" y="6.97" width="2.48" height="1.5"/><rect class="cls-3" x="366.39" y="6.97" width="2.48" height="1.5"/><rect class="cls-3" x="361.95" y="6.97" width="2.48" height="1.5"/><rect class="cls-2" x="374.32" width="13.38" height="15"/><rect class="cls-3" x="384.23" y="6.97" width="2.48" height="1.5"/><rect class="cls-3" x="379.77" y="6.97" width="2.48" height="1.5"/><rect class="cls-3" x="375.33" y="6.97" width="2.48" height="1.5"/><rect class="cls-2" x="387.7" width="13.38" height="15"/><rect class="cls-3" x="397.6" y="6.97" width="2.48" height="1.5"/><rect class="cls-3" x="393.15" y="6.97" width="2.48" height="1.5"/><rect class="cls-3" x="388.71" y="6.97" width="2.48" height="1.5"/><rect class="cls-2" x="401.08" width="13.38" height="15"/><rect class="cls-3" x="410.98" y="6.97" width="2.48" height="1.5"/><rect class="cls-3" x="406.53" y="6.97" width="2.48" height="1.5"/><rect class="cls-3" x="402.09" y="6.97" width="2.48" height="1.5"/><rect class="cls-2" x="414.45" width="13.38" height="15"/><rect class="cls-3" x="424.36" y="6.97" width="2.48" height="1.5"/><rect class="cls-3" x="419.91" y="6.97" width="2.48" height="1.5"/><rect class="cls-3" x="415.47" y="6.97" width="2.48" height="1.5"/><rect class="cls-2" x="427.83" width="13.38" height="15"/><rect class="cls-3" x="437.74" y="6.97" width="2.48" height="1.5"/><rect class="cls-3" x="433.29" y="6.97" width="2.48" height="1.5"/><rect class="cls-3" x="428.85" y="6.97" width="2.48" height="1.5"/><rect class="cls-2" x="441.21" width="13.38" height="15"/><rect class="cls-3" x="451.12" y="6.97" width="2.48" height="1.5"/><rect class="cls-3" x="446.67" y="6.97" width="2.48" height="1.5"/><rect class="cls-3" x="442.23" y="6.97" width="2.48" height="1.5"/><rect class="cls-2" x="454.59" width="13.38" height="15"/><rect class="cls-3" x="464.5" y="6.97" width="2.48" height="1.5"/><rect class="cls-3" x="460.04" y="6.97" width="2.48" height="1.5"/><rect class="cls-3" x="455.6" y="6.97" width="2.48" height="1.5"/><rect class="cls-2" x="467.97" width="13.38" height="15"/><rect class="cls-3" x="477.88" y="6.97" width="2.48" height="1.5"/><rect class="cls-3" x="473.42" y="6.97" width="2.48" height="1.5"/><rect class="cls-3" x="468.98" y="6.97" width="2.48" height="1.5"/><rect class="cls-2" x="481.35" width="13.38" height="15"/><rect class="cls-3" x="491.26" y="6.97" width="2.48" height="1.5"/><rect class="cls-3" x="486.8" y="6.97" width="2.48" height="1.5"/><rect class="cls-3" x="482.36" y="6.97" width="2.48" height="1.5"/><rect class="cls-2" x="494.73" width="13.38" height="15"/><rect class="cls-3" x="504.63" y="6.97" width="2.48" height="1.5"/><rect class="cls-3" x="500.18" y="6.97" width="2.48" height="1.5"/><rect class="cls-3" x="495.74" y="6.97" width="2.48" height="1.5"/><rect class="cls-2" x="508.11" width="13.38" height="15"/><rect class="cls-3" x="518.01" y="6.97" width="2.48" height="1.5"/><rect class="cls-3" x="513.56" y="6.97" width="2.48" height="1.5"/><rect class="cls-3" x="509.12" y="6.97" width="2.48" height="1.5"/><rect class="cls-2" x="521.48" width="13.38" height="15"/><rect class="cls-3" x="531.39" y="6.97" width="2.48" height="1.5"/><rect class="cls-3" x="526.94" y="6.97" width="2.48" height="1.5"/><rect class="cls-3" x="522.5" y="6.97" width="2.48" height="1.5"/><rect class="cls-2" x="534.86" width="13.38" height="15"/><rect class="cls-3" x="544.77" y="6.97" width="2.48" height="1.5"/><rect class="cls-3" x="540.32" y="6.97" width="2.48" height="1.5"/><rect class="cls-3" x="535.88" y="6.97" width="2.48" height="1.5"/><rect class="cls-2" x="548.24" width="13.38" height="15"/><rect class="cls-3" x="558.15" y="6.97" width="2.48" height="1.5"/><rect class="cls-3" x="553.7" y="6.97" width="2.48" height="1.5"/><rect class="cls-3" x="549.26" y="6.97" width="2.48" height="1.5"/><rect class="cls-2" x="561.62" width="13.38" height="15"/><rect class="cls-3" x="571.53" y="6.97" width="2.48" height="1.5"/><rect class="cls-3" x="567.07" y="6.97" width="2.48" height="1.5"/><rect class="cls-3" x="562.63" y="6.97" width="2.48" height="1.5"/><rect class="cls-2" x="124.5" y="9" width="15" height="15"/><rect class="cls-3" x="131.03" y="20.11" width="1.5" height="2.78"/><rect class="cls-3" x="131.03" y="15.11" width="1.5" height="2.78"/><rect class="cls-3" x="131.03" y="10.14" width="1.5" height="2.78"/><rect class="cls-2" x="124.5" y="24" width="15" height="15"/><rect class="cls-3" x="131.03" y="35.11" width="1.5" height="2.78"/><rect class="cls-3" x="131.03" y="30.11" width="1.5" height="2.78"/><rect class="cls-3" x="131.03" y="25.14" width="1.5" height="2.78"/><rect class="cls-2" x="124.5" y="39" width="15" height="15"/><rect class="cls-3" x="131.03" y="50.11" width="1.5" height="2.78"/><rect class="cls-3" x="131.03" y="45.11" width="1.5" height="2.78"/><rect class="cls-3" x="131.03" y="40.14" width="1.5" height="2.78"/><rect class="cls-2" x="124.5" y="54" width="15" height="15"/><rect class="cls-3" x="131.03" y="65.11" width="1.5" height="2.78"/><rect class="cls-3" x="131.03" y="60.11" width="1.5" height="2.78"/><rect class="cls-3" x="131.03" y="55.14" width="1.5" height="2.78"/><rect class="cls-2" y="61.5" width="13" height="15"/><rect class="cls-3" x="9.63" y="68.47" width="2.41" height="1.5"/><rect class="cls-3" x="5.3" y="68.47" width="2.41" height="1.5"/><rect class="cls-3" x="0.98" y="68.47" width="2.41" height="1.5"/><rect class="cls-2" x="13" y="61.5" width="13" height="15"/><rect class="cls-3" x="22.63" y="68.47" width="2.41" height="1.5"/><rect class="cls-3" x="18.3" y="68.47" width="2.41" height="1.5"/><rect class="cls-3" x="13.98" y="68.47" width="2.41" height="1.5"/><rect class="cls-2" x="26" y="61.5" width="13" height="15"/><rect class="cls-3" x="35.63" y="68.47" width="2.41" height="1.5"/><rect class="cls-3" x="31.3" y="68.47" width="2.41" height="1.5"/><rect class="cls-3" x="26.98" y="68.47" width="2.41" height="1.5"/><rect class="cls-2" x="39" y="61.5" width="13" height="15"/><rect class="cls-3" x="48.63" y="68.47" width="2.41" height="1.5"/><rect class="cls-3" x="44.3" y="68.47" width="2.41" height="1.5"/><rect class="cls-3" x="39.98" y="68.47" width="2.41" height="1.5"/><rect class="cls-2" x="52" y="61.5" width="13" height="15"/><rect class="cls-3" x="61.63" y="68.47" width="2.41" height="1.5"/><rect class="cls-3" x="57.3" y="68.47" width="2.41" height="1.5"/><rect class="cls-3" x="52.98" y="68.47" width="2.41" height="1.5"/><rect class="cls-2" x="65" y="61.5" width="13" height="15"/><rect class="cls-3" x="74.63" y="68.47" width="2.41" height="1.5"/><rect class="cls-3" x="70.3" y="68.47" width="2.41" height="1.5"/><rect class="cls-3" x="65.98" y="68.47" width="2.41" height="1.5"/><rect class="cls-2" x="78" y="61.5" width="13" height="15"/><rect class="cls-3" x="87.63" y="68.47" width="2.41" height="1.5"/><rect class="cls-3" x="83.3" y="68.47" width="2.41" height="1.5"/><rect class="cls-3" x="78.98" y="68.47" width="2.41" height="1.5"/><rect class="cls-2" x="91" y="61.5" width="13" height="15"/><rect class="cls-3" x="100.63" y="68.47" width="2.41" height="1.5"/><rect class="cls-3" x="96.3" y="68.47" width="2.41" height="1.5"/><rect class="cls-3" x="91.98" y="68.47" width="2.41" height="1.5"/><rect class="cls-2" x="104" y="61.5" width="13" height="15"/><rect class="cls-3" x="113.63" y="68.47" width="2.41" height="1.5"/><rect class="cls-3" x="109.3" y="68.47" width="2.41" height="1.5"/><rect class="cls-3" x="104.98" y="68.47" width="2.41" height="1.5"/><rect class="cls-2" x="117" y="61.5" width="13" height="15"/><rect class="cls-3" x="126.63" y="68.47" width="2.41" height="1.5"/><rect class="cls-3" x="122.3" y="68.47" width="2.41" height="1.5"/><rect class="cls-3" x="117.98" y="68.47" width="2.41" height="1.5"/></svg>