<svg id="Layer_1" data-name="Layer 1" xmlns="http://www.w3.org/2000/svg" viewBox="0 0 279.5 118"><defs><style>.cls-1{fill:#fff;}.cls-2{fill:none;}.cls-3{fill:#231f20;}</style></defs><title>dash7</title><line class="cls-1" x1="9" y1="110.5" x2="279.5" y2="110.5"/><rect class="cls-2" x="9" y="103" width="13.53" height="15"/><rect class="cls-3" x="19.01" y="109.97" width="2.51" height="1.5"/><rect class="cls-3" x="14.51" y="109.97" width="2.51" height="1.5"/><rect class="cls-3" x="10.02" y="109.97" width="2.51" height="1.5"/><rect class="cls-2" x="22.52" y="103" width="13.53" height="15"/><rect class="cls-3" x="32.54" y="109.97" width="2.51" height="1.5"/><rect class="cls-3" x="28.04" y="109.97" width="2.51" height="1.5"/><rect class="cls-3" x="23.55" y="109.97" width="2.51" height="1.5"/><rect class="cls-2" x="36.05" y="103" width="13.52" height="15"/><rect class="cls-3" x="46.06" y="109.97" width="2.51" height="1.5"/><rect class="cls-3" x="41.56" y="109.97" width="2.51" height="1.5"/><rect class="cls-3" x="37.07" y="109.97" width="2.51" height="1.5"/><rect class="cls-2" x="49.57" y="103" width="13.53" height="15"/><rect class="cls-3" x="59.59" y="109.97" width="2.51" height="1.5"/><rect class="cls-3" x="55.09" y="109.97" width="2.51" height="1.5"/><rect class="cls-3" x="50.6" y="109.97" width="2.51" height="1.5"/><rect class="cls-2" x="63.1" y="103" width="13.52" height="15"/><rect class="cls-3" x="73.11" y="109.97" width="2.51" height="1.5"/><rect class="cls-3" x="68.61" y="109.97" width="2.51" height="1.5"/><rect class="cls-3" x="64.12" y="109.97" width="2.51" height="1.5"/><rect class="cls-2" x="76.62" y="103" width="13.52" height="15"/><rect class="cls-3" x="86.64" y="109.97" width="2.51" height="1.5"/><rect class="cls-3" x="82.14" y="109.97" width="2.51" height="1.5"/><rect class="cls-3" x="77.65" y="109.97" width="2.51" height="1.5"/><rect class="cls-2" x="90.15" y="103" width="13.53" height="15"/><rect class="cls-3" x="100.16" y="109.97" width="2.51" height="1.5"/><rect class="cls-3" x="95.66" y="109.97" width="2.51" height="1.5"/><rect class="cls-3" x="91.17" y="109.97" width="2.51" height="1.5"/><rect class="cls-2" x="103.67" y="103" width="13.52" height="15"/><rect class="cls-3" x="113.69" y="109.97" width="2.51" height="1.5"/><rect class="cls-3" x="109.19" y="109.97" width="2.51" height="1.5"/><rect class="cls-3" x="104.7" y="109.97" width="2.51" height="1.5"/><rect class="cls-2" x="117.2" y="103" width="13.53" height="15"/><rect class="cls-3" x="127.21" y="109.97" width="2.51" height="1.5"/><rect class="cls-3" x="122.71" y="109.97" width="2.51" height="1.5"/><rect class="cls-3" x="118.22" y="109.97" width="2.51" height="1.5"/><rect class="cls-2" x="130.72" y="103" width="13.52" height="15"/><rect class="cls-3" x="140.74" y="109.97" width="2.51" height="1.5"/><rect class="cls-3" x="136.24" y="109.97" width="2.51" height="1.5"/><rect class="cls-3" x="131.75" y="109.97" width="2.51" height="1.5"/><rect class="cls-2" x="144.25" y="103" width="13.52" height="15"/><rect class="cls-3" x="154.26" y="109.97" width="2.51" height="1.5"/><rect class="cls-3" x="149.76" y="109.97" width="2.51" height="1.5"/><rect class="cls-3" x="145.27" y="109.97" width="2.51" height="1.5"/><rect class="cls-2" x="157.77" y="103" width="13.53" height="15"/><rect class="cls-3" x="167.79" y="109.97" width="2.51" height="1.5"/><rect class="cls-3" x="163.29" y="109.97" width="2.51" height="1.5"/><rect class="cls-3" x="158.8" y="109.97" width="2.51" height="1.5"/><rect class="cls-2" x="171.3" y="103" width="13.53" height="15"/><rect class="cls-3" x="181.31" y="109.97" width="2.51" height="1.5"/><rect class="cls-3" x="176.81" y="109.97" width="2.51" height="1.5"/><rect class="cls-3" x="172.32" y="109.97" width="2.51" height="1.5"/><rect class="cls-2" x="184.82" y="103" width="13.52" height="15"/><rect class="cls-3" x="194.84" y="109.97" width="2.51" height="1.5"/><rect class="cls-3" x="190.34" y="109.97" width="2.51" height="1.5"/><rect class="cls-3" x="185.85" y="109.97" width="2.51" height="1.5"/><rect class="cls-2" x="198.35" y="103" width="13.52" height="15"/><rect class="cls-3" x="208.36" y="109.97" width="2.51" height="1.5"/><rect class="cls-3" x="203.86" y="109.97" width="2.51" height="1.5"/><rect class="cls-3" x="199.37" y="109.97" width="2.51" height="1.5"/><rect class="cls-2" x="211.87" y="103" width="13.52" height="15"/><rect class="cls-3" x="221.89" y="109.97" width="2.51" height="1.5"/><rect class="cls-3" x="217.39" y="109.97" width="2.51" height="1.5"/><rect class="cls-3" x="212.9" y="109.97" width="2.51" height="1.5"/><rect class="cls-2" x="225.4" y="103" width="13.52" height="15"/><rect class="cls-3" x="235.41" y="109.97" width="2.51" height="1.5"/><rect class="cls-3" x="230.91" y="109.97" width="2.51" height="1.5"/><rect class="cls-3" x="226.42" y="109.97" width="2.51" height="1.5"/><rect class="cls-2" x="238.92" y="103" width="13.53" height="15"/><rect class="cls-3" x="248.94" y="109.97" width="2.51" height="1.5"/><rect class="cls-3" x="244.44" y="109.97" width="2.51" height="1.5"/><rect class="cls-3" x="239.95" y="109.97" width="2.51" height="1.5"/><rect class="cls-2" x="252.45" y="103" width="13.52" height="15"/><rect class="cls-3" x="262.46" y="109.97" width="2.51" height="1.5"/><rect class="cls-3" x="257.96" y="109.97" width="2.51" height="1.5"/><rect class="cls-3" x="253.47" y="109.97" width="2.51" height="1.5"/><rect class="cls-2" x="265.97" y="103" width="13.52" height="15"/><rect class="cls-3" x="275.99" y="109.97" width="2.51" height="1.5"/><rect class="cls-3" x="271.49" y="109.97" width="2.51" height="1.5"/><rect class="cls-3" x="267" y="109.97" width="2.51" height="1.5"/><rect class="cls-2" width="15" height="13.75"/><rect class="cls-3" x="6.53" y="10.18" width="1.5" height="2.55"/><rect class="cls-3" x="6.53" y="5.6" width="1.5" height="2.55"/><rect class="cls-3" x="6.53" y="1.04" width="1.5" height="2.55"/><rect class="cls-2" y="13.75" width="15" height="13.75"/><rect class="cls-3" x="6.53" y="23.93" width="1.5" height="2.55"/><rect class="cls-3" x="6.53" y="19.35" width="1.5" height="2.55"/><rect class="cls-3" x="6.53" y="14.79" width="1.5" height="2.55"/><rect class="cls-2" y="27.5" width="15" height="13.75"/><rect class="cls-3" x="6.53" y="37.68" width="1.5" height="2.55"/><rect class="cls-3" x="6.53" y="33.1" width="1.5" height="2.55"/><rect class="cls-3" x="6.53" y="28.54" width="1.5" height="2.55"/><rect class="cls-2" y="41.25" width="15" height="13.75"/><rect class="cls-3" x="6.53" y="51.43" width="1.5" height="2.55"/><rect class="cls-3" x="6.53" y="46.85" width="1.5" height="2.55"/><rect class="cls-3" x="6.53" y="42.29" width="1.5" height="2.55"/><rect class="cls-2" y="55" width="15" height="13.75"/><rect class="cls-3" x="6.53" y="65.18" width="1.5" height="2.55"/><rect class="cls-3" x="6.53" y="60.6" width="1.5" height="2.55"/><rect class="cls-3" x="6.53" y="56.04" width="1.5" height="2.55"/><rect class="cls-2" y="68.75" width="15" height="13.75"/><rect class="cls-3" x="6.53" y="78.93" width="1.5" height="2.55"/><rect class="cls-3" x="6.53" y="74.35" width="1.5" height="2.55"/><rect class="cls-3" x="6.53" y="69.79" width="1.5" height="2.55"/><rect class="cls-2" y="82.5" width="15" height="13.75"/><rect class="cls-3" x="6.53" y="92.68" width="1.5" height="2.55"/><rect class="cls-3" x="6.53" y="88.1" width="1.5" height="2.55"/><rect class="cls-3" x="6.53" y="83.54" width="1.5" height="2.55"/><rect class="cls-2" y="96.25" width="15" height="13.75"/><rect class="cls-3" x="6.53" y="106.43" width="1.5" height="2.55"/><rect class="cls-3" x="6.53" y="101.85" width="1.5" height="2.55"/><rect class="cls-3" x="6.53" y="97.29" width="1.5" height="2.55"/></svg>