<svg id="Layer_1" data-name="Layer 1" xmlns="http://www.w3.org/2000/svg" viewBox="0 0 459.5 75.5"><defs><style>.cls-1{fill:none;}.cls-2{fill:#231f20;}</style></defs><title>dash1</title><rect class="cls-1" width="13.66" height="15"/><rect class="cls-2" x="10.11" y="6.97" width="2.53" height="1.5"/><rect class="cls-2" x="5.57" y="6.97" width="2.53" height="1.5"/><rect class="cls-2" x="1.03" y="6.97" width="2.53" height="1.5"/><rect class="cls-1" x="13.66" width="13.66" height="15"/><rect class="cls-2" x="23.77" y="6.97" width="2.53" height="1.5"/><rect class="cls-2" x="19.22" y="6.97" width="2.53" height="1.5"/><rect class="cls-2" x="14.69" y="6.97" width="2.53" height="1.5"/><rect class="cls-1" x="27.31" width="13.66" height="15"/><rect class="cls-2" x="37.42" y="6.97" width="2.53" height="1.5"/><rect class="cls-2" x="32.88" y="6.97" width="2.53" height="1.5"/><rect class="cls-2" x="28.34" y="6.97" width="2.53" height="1.5"/><rect class="cls-1" x="40.97" width="13.66" height="15"/><rect class="cls-2" x="51.08" y="6.97" width="2.53" height="1.5"/><rect class="cls-2" x="46.53" y="6.97" width="2.53" height="1.5"/><rect class="cls-2" x="42" y="6.97" width="2.53" height="1.5"/><rect class="cls-1" x="54.62" width="13.66" height="15"/><rect class="cls-2" x="64.73" y="6.97" width="2.53" height="1.5"/><rect class="cls-2" x="60.19" y="6.97" width="2.53" height="1.5"/><rect class="cls-2" x="55.66" y="6.97" width="2.53" height="1.5"/><rect class="cls-1" x="68.28" width="13.66" height="15"/><rect class="cls-2" x="78.39" y="6.97" width="2.53" height="1.5"/><rect class="cls-2" x="73.84" y="6.97" width="2.53" height="1.5"/><rect class="cls-2" x="69.31" y="6.97" width="2.53" height="1.5"/><rect class="cls-1" x="81.93" width="13.66" height="15"/><rect class="cls-2" x="92.04" y="6.97" width="2.53" height="1.5"/><rect class="cls-2" x="87.5" y="6.97" width="2.53" height="1.5"/><rect class="cls-2" x="82.97" y="6.97" width="2.53" height="1.5"/><rect class="cls-1" x="95.59" width="13.66" height="15"/><rect class="cls-2" x="105.7" y="6.97" width="2.53" height="1.5"/><rect class="cls-2" x="101.15" y="6.97" width="2.53" height="1.5"/><rect class="cls-2" x="96.62" y="6.97" width="2.53" height="1.5"/><rect class="cls-1" x="109.24" width="13.66" height="15"/><rect class="cls-2" x="119.35" y="6.97" width="2.53" height="1.5"/><rect class="cls-2" x="114.81" y="6.97" width="2.53" height="1.5"/><rect class="cls-2" x="110.28" y="6.97" width="2.53" height="1.5"/><rect class="cls-1" x="122.9" width="13.66" height="15"/><rect class="cls-2" x="133.01" y="6.97" width="2.53" height="1.5"/><rect class="cls-2" x="128.46" y="6.97" width="2.53" height="1.5"/><rect class="cls-2" x="123.93" y="6.97" width="2.53" height="1.5"/><rect class="cls-1" x="136.55" width="13.66" height="15"/><rect class="cls-2" x="146.66" y="6.97" width="2.53" height="1.5"/><rect class="cls-2" x="142.12" y="6.97" width="2.53" height="1.5"/><rect class="cls-2" x="137.59" y="6.97" width="2.53" height="1.5"/><rect class="cls-1" x="150.21" width="13.66" height="15"/><rect class="cls-2" x="160.32" y="6.97" width="2.53" height="1.5"/><rect class="cls-2" x="155.77" y="6.97" width="2.53" height="1.5"/><rect class="cls-2" x="151.24" y="6.97" width="2.53" height="1.5"/><rect class="cls-1" x="163.86" width="13.66" height="15"/><rect class="cls-2" x="173.97" y="6.97" width="2.53" height="1.5"/><rect class="cls-2" x="169.43" y="6.97" width="2.53" height="1.5"/><rect class="cls-2" x="164.9" y="6.97" width="2.53" height="1.5"/><rect class="cls-1" x="177.52" width="13.66" height="15"/><rect class="cls-2" x="187.63" y="6.97" width="2.53" height="1.5"/><rect class="cls-2" x="183.08" y="6.97" width="2.53" height="1.5"/><rect class="cls-2" x="178.55" y="6.97" width="2.53" height="1.5"/><rect class="cls-1" x="191.17" width="13.66" height="15"/><rect class="cls-2" x="201.28" y="6.97" width="2.53" height="1.5"/><rect class="cls-2" x="196.74" y="6.97" width="2.53" height="1.5"/><rect class="cls-2" x="192.21" y="6.97" width="2.53" height="1.5"/><rect class="cls-1" x="204.83" width="13.66" height="15"/><rect class="cls-2" x="214.94" y="6.97" width="2.53" height="1.5"/><rect class="cls-2" x="210.39" y="6.97" width="2.53" height="1.5"/><rect class="cls-2" x="205.86" y="6.97" width="2.53" height="1.5"/><rect class="cls-1" x="218.48" width="13.66" height="15"/><rect class="cls-2" x="228.59" y="6.97" width="2.53" height="1.5"/><rect class="cls-2" x="224.05" y="6.97" width="2.53" height="1.5"/><rect class="cls-2" x="219.52" y="6.97" width="2.53" height="1.5"/><rect class="cls-1" x="232.14" width="13.66" height="15"/><rect class="cls-2" x="242.25" y="6.97" width="2.53" height="1.5"/><rect class="cls-2" x="237.7" y="6.97" width="2.53" height="1.5"/><rect class="cls-2" x="233.17" y="6.97" width="2.53" height="1.5"/><rect class="cls-1" x="245.79" width="13.66" height="15"/><rect class="cls-2" x="255.9" y="6.97" width="2.53" height="1.5"/><rect class="cls-2" x="251.36" y="6.97" width="2.53" height="1.5"/><rect class="cls-2" x="246.83" y="6.97" width="2.53" height="1.5"/><rect class="cls-1" x="259.45" width="13.66" height="15"/><rect class="cls-2" x="269.56" y="6.97" width="2.53" height="1.5"/><rect class="cls-2" x="265.01" y="6.97" width="2.53" height="1.5"/><rect class="cls-2" x="260.48" y="6.97" width="2.53" height="1.5"/><rect class="cls-1" x="273.1" width="13.66" height="15"/><rect class="cls-2" x="283.22" y="6.97" width="2.53" height="1.5"/><rect class="cls-2" x="278.67" y="6.97" width="2.53" height="1.5"/><rect class="cls-2" x="274.14" y="6.97" width="2.53" height="1.5"/><rect class="cls-1" x="286.76" width="13.66" height="15"/><rect class="cls-2" x="296.87" y="6.97" width="2.53" height="1.5"/><rect class="cls-2" x="292.32" y="6.97" width="2.53" height="1.5"/><rect class="cls-2" x="287.79" y="6.97" width="2.53" height="1.5"/><rect class="cls-1" x="300.41" width="13.66" height="15"/><rect class="cls-2" x="310.53" y="6.97" width="2.53" height="1.5"/><rect class="cls-2" x="305.98" y="6.97" width="2.53" height="1.5"/><rect class="cls-2" x="301.45" y="6.97" width="2.53" height="1.5"/><rect class="cls-1" x="314.07" width="13.66" height="15"/><rect class="cls-2" x="324.18" y="6.97" width="2.53" height="1.5"/><rect class="cls-2" x="319.63" y="6.97" width="2.53" height="1.5"/><rect class="cls-2" x="315.1" y="6.97" width="2.53" height="1.5"/><rect class="cls-1" x="327.72" width="13.66" height="15"/><rect class="cls-2" x="337.84" y="6.97" width="2.53" height="1.5"/><rect class="cls-2" x="333.29" y="6.97" width="2.53" height="1.5"/><rect class="cls-2" x="328.76" y="6.97" width="2.53" height="1.5"/><rect class="cls-1" x="341.38" width="13.66" height="15"/><rect class="cls-2" x="351.49" y="6.97" width="2.53" height="1.5"/><rect class="cls-2" x="346.95" y="6.97" width="2.53" height="1.5"/><rect class="cls-2" x="342.41" y="6.97" width="2.53" height="1.5"/><rect class="cls-1" x="355.03" width="13.66" height="15"/><rect class="cls-2" x="365.15" y="6.97" width="2.53" height="1.5"/><rect class="cls-2" x="360.6" y="6.97" width="2.53" height="1.5"/><rect class="cls-2" x="356.07" y="6.97" width="2.53" height="1.5"/><rect class="cls-1" x="368.69" width="13.66" height="15"/><rect class="cls-2" x="378.8" y="6.97" width="2.53" height="1.5"/><rect class="cls-2" x="374.26" y="6.97" width="2.53" height="1.5"/><rect class="cls-2" x="369.72" y="6.97" width="2.53" height="1.5"/><rect class="cls-1" x="382.34" width="13.66" height="15"/><rect class="cls-2" x="392.46" y="6.97" width="2.53" height="1.5"/><rect class="cls-2" x="387.91" y="6.97" width="2.53" height="1.5"/><rect class="cls-2" x="383.38" y="6.97" width="2.53" height="1.5"/><rect class="cls-1" x="388" y="8" width="15" height="15"/><rect class="cls-2" x="394.53" y="19.11" width="1.5" height="2.78"/><rect class="cls-2" x="394.53" y="14.11" width="1.5" height="2.78"/><rect class="cls-2" x="394.53" y="9.14" width="1.5" height="2.78"/><rect class="cls-1" x="388" y="23" width="15" height="15"/><rect class="cls-2" x="394.53" y="34.11" width="1.5" height="2.78"/><rect class="cls-2" x="394.53" y="29.11" width="1.5" height="2.78"/><rect class="cls-2" x="394.53" y="24.14" width="1.5" height="2.78"/><rect class="cls-1" x="388" y="38" width="15" height="15"/><rect class="cls-2" x="394.53" y="49.11" width="1.5" height="2.78"/><rect class="cls-2" x="394.53" y="44.11" width="1.5" height="2.78"/><rect class="cls-2" x="394.53" y="39.14" width="1.5" height="2.78"/><rect class="cls-1" x="388" y="53" width="15" height="15"/><rect class="cls-2" x="394.53" y="64.11" width="1.5" height="2.78"/><rect class="cls-2" x="394.53" y="59.11" width="1.5" height="2.78"/><rect class="cls-2" x="394.53" y="54.14" width="1.5" height="2.78"/><rect class="cls-1" x="395.5" y="60.5" width="12.8" height="15"/><rect class="cls-2" x="404.98" y="67.47" width="2.38" height="1.5"/><rect class="cls-2" x="400.72" y="67.47" width="2.38" height="1.5"/><rect class="cls-2" x="396.47" y="67.47" width="2.38" height="1.5"/><rect class="cls-1" x="408.3" y="60.5" width="12.8" height="15"/><rect class="cls-2" x="417.78" y="67.47" width="2.38" height="1.5"/><rect class="cls-2" x="413.52" y="67.47" width="2.38" height="1.5"/><rect class="cls-2" x="409.27" y="67.47" width="2.38" height="1.5"/><rect class="cls-1" x="421.1" y="60.5" width="12.8" height="15"/><rect class="cls-2" x="430.58" y="67.47" width="2.38" height="1.5"/><rect class="cls-2" x="426.32" y="67.47" width="2.38" height="1.5"/><rect class="cls-2" x="422.07" y="67.47" width="2.38" height="1.5"/><rect class="cls-1" x="433.9" y="60.5" width="12.8" height="15"/><rect class="cls-2" x="443.38" y="67.47" width="2.38" height="1.5"/><rect class="cls-2" x="439.12" y="67.47" width="2.38" height="1.5"/><rect class="cls-2" x="434.87" y="67.47" width="2.38" height="1.5"/><rect class="cls-1" x="446.7" y="60.5" width="12.8" height="15"/><rect class="cls-2" x="456.18" y="67.47" width="2.38" height="1.5"/><rect class="cls-2" x="451.92" y="67.47" width="2.38" height="1.5"/><rect class="cls-2" x="447.67" y="67.47" width="2.38" height="1.5"/></svg>