<svg id="Layer_1" data-name="Layer 1" xmlns="http://www.w3.org/2000/svg" viewBox="0 0 573.5 75.5"><defs><style>.cls-1{fill:#fff;}.cls-2{fill:none;}.cls-3{fill:#231f20;}</style></defs><title>dash4</title><line class="cls-1" y1="7.5" x2="441.5" y2="7.5"/><rect class="cls-2" width="13.38" height="15"/><rect class="cls-3" x="9.91" y="6.97" width="2.48" height="1.5"/><rect class="cls-3" x="5.45" y="6.97" width="2.48" height="1.5"/><rect class="cls-3" x="1.01" y="6.97" width="2.48" height="1.5"/><rect class="cls-2" x="13.38" width="13.38" height="15"/><rect class="cls-3" x="23.29" y="6.97" width="2.48" height="1.5"/><rect class="cls-3" x="18.83" y="6.97" width="2.48" height="1.5"/><rect class="cls-3" x="14.39" y="6.97" width="2.48" height="1.5"/><rect class="cls-2" x="26.76" width="13.38" height="15"/><rect class="cls-3" x="36.66" y="6.97" width="2.48" height="1.5"/><rect class="cls-3" x="32.21" y="6.97" width="2.48" height="1.5"/><rect class="cls-3" x="27.77" y="6.97" width="2.48" height="1.5"/><rect class="cls-2" x="40.14" width="13.38" height="15"/><rect class="cls-3" x="50.04" y="6.97" width="2.48" height="1.5"/><rect class="cls-3" x="45.59" y="6.97" width="2.48" height="1.5"/><rect class="cls-3" x="41.15" y="6.97" width="2.48" height="1.5"/><rect class="cls-2" x="53.52" width="13.38" height="15"/><rect class="cls-3" x="63.42" y="6.97" width="2.48" height="1.5"/><rect class="cls-3" x="58.97" y="6.97" width="2.48" height="1.5"/><rect class="cls-3" x="54.53" y="6.97" width="2.48" height="1.5"/><rect class="cls-2" x="66.89" width="13.38" height="15"/><rect class="cls-3" x="76.8" y="6.97" width="2.48" height="1.5"/><rect class="cls-3" x="72.35" y="6.97" width="2.48" height="1.5"/><rect class="cls-3" x="67.91" y="6.97" width="2.48" height="1.5"/><rect class="cls-2" x="80.27" width="13.38" height="15"/><rect class="cls-3" x="90.18" y="6.97" width="2.48" height="1.5"/><rect class="cls-3" x="85.73" y="6.97" width="2.48" height="1.5"/><rect class="cls-3" x="81.29" y="6.97" width="2.48" height="1.5"/><rect class="cls-2" x="93.65" width="13.38" height="15"/><rect class="cls-3" x="103.56" y="6.97" width="2.48" height="1.5"/><rect class="cls-3" x="99.1" y="6.97" width="2.48" height="1.5"/><rect class="cls-3" x="94.67" y="6.97" width="2.48" height="1.5"/><rect class="cls-2" x="107.03" width="13.38" height="15"/><rect class="cls-3" x="116.94" y="6.97" width="2.48" height="1.5"/><rect class="cls-3" x="112.48" y="6.97" width="2.48" height="1.5"/><rect class="cls-3" x="108.04" y="6.97" width="2.48" height="1.5"/><rect class="cls-2" x="120.41" width="13.38" height="15"/><rect class="cls-3" x="130.32" y="6.97" width="2.48" height="1.5"/><rect class="cls-3" x="125.86" y="6.97" width="2.48" height="1.5"/><rect class="cls-3" x="121.42" y="6.97" width="2.48" height="1.5"/><rect class="cls-2" x="133.79" width="13.38" height="15"/><rect class="cls-3" x="143.69" y="6.97" width="2.48" height="1.5"/><rect class="cls-3" x="139.24" y="6.97" width="2.48" height="1.5"/><rect class="cls-3" x="134.8" y="6.97" width="2.48" height="1.5"/><rect class="cls-2" x="147.17" width="13.38" height="15"/><rect class="cls-3" x="157.07" y="6.97" width="2.48" height="1.5"/><rect class="cls-3" x="152.62" y="6.97" width="2.48" height="1.5"/><rect class="cls-3" x="148.18" y="6.97" width="2.48" height="1.5"/><rect class="cls-2" x="160.55" width="13.38" height="15"/><rect class="cls-3" x="170.45" y="6.97" width="2.48" height="1.5"/><rect class="cls-3" x="166" y="6.97" width="2.48" height="1.5"/><rect class="cls-3" x="161.56" y="6.97" width="2.48" height="1.5"/><rect class="cls-2" x="173.92" width="13.38" height="15"/><rect class="cls-3" x="183.83" y="6.97" width="2.48" height="1.5"/><rect class="cls-3" x="179.38" y="6.97" width="2.48" height="1.5"/><rect class="cls-3" x="174.94" y="6.97" width="2.48" height="1.5"/><rect class="cls-2" x="187.3" width="13.38" height="15"/><rect class="cls-3" x="197.21" y="6.97" width="2.48" height="1.5"/><rect class="cls-3" x="192.76" y="6.97" width="2.48" height="1.5"/><rect class="cls-3" x="188.32" y="6.97" width="2.48" height="1.5"/><rect class="cls-2" x="200.68" width="13.38" height="15"/><rect class="cls-3" x="210.59" y="6.97" width="2.48" height="1.5"/><rect class="cls-3" x="206.13" y="6.97" width="2.48" height="1.5"/><rect class="cls-3" x="201.7" y="6.97" width="2.48" height="1.5"/><rect class="cls-2" x="214.06" width="13.38" height="15"/><rect class="cls-3" x="223.97" y="6.97" width="2.48" height="1.5"/><rect class="cls-3" x="219.51" y="6.97" width="2.48" height="1.5"/><rect class="cls-3" x="215.07" y="6.97" width="2.48" height="1.5"/><rect class="cls-2" x="227.44" width="13.38" height="15"/><rect class="cls-3" x="237.35" y="6.97" width="2.48" height="1.5"/><rect class="cls-3" x="232.89" y="6.97" width="2.48" height="1.5"/><rect class="cls-3" x="228.45" y="6.97" width="2.48" height="1.5"/><rect class="cls-2" x="240.82" width="13.38" height="15"/><rect class="cls-3" x="250.73" y="6.97" width="2.48" height="1.5"/><rect class="cls-3" x="246.27" y="6.97" width="2.48" height="1.5"/><rect class="cls-3" x="241.83" y="6.97" width="2.48" height="1.5"/><rect class="cls-2" x="254.2" width="13.38" height="15"/><rect class="cls-3" x="264.1" y="6.97" width="2.48" height="1.5"/><rect class="cls-3" x="259.65" y="6.97" width="2.48" height="1.5"/><rect class="cls-3" x="255.21" y="6.97" width="2.48" height="1.5"/><rect class="cls-2" x="267.58" width="13.38" height="15"/><rect class="cls-3" x="277.48" y="6.97" width="2.48" height="1.5"/><rect class="cls-3" x="273.03" y="6.97" width="2.48" height="1.5"/><rect class="cls-3" x="268.59" y="6.97" width="2.48" height="1.5"/><rect class="cls-2" x="280.95" width="13.38" height="15"/><rect class="cls-3" x="290.86" y="6.97" width="2.48" height="1.5"/><rect class="cls-3" x="286.41" y="6.97" width="2.48" height="1.5"/><rect class="cls-3" x="281.97" y="6.97" width="2.48" height="1.5"/><rect class="cls-2" x="294.33" width="13.38" height="15"/><rect class="cls-3" x="304.24" y="6.97" width="2.48" height="1.5"/><rect class="cls-3" x="299.79" y="6.97" width="2.48" height="1.5"/><rect class="cls-3" x="295.35" y="6.97" width="2.48" height="1.5"/><rect class="cls-2" x="307.71" width="13.38" height="15"/><rect class="cls-3" x="317.62" y="6.97" width="2.48" height="1.5"/><rect class="cls-3" x="313.17" y="6.97" width="2.48" height="1.5"/><rect class="cls-3" x="308.73" y="6.97" width="2.48" height="1.5"/><rect class="cls-2" x="321.09" width="13.38" height="15"/><rect class="cls-3" x="331" y="6.97" width="2.48" height="1.5"/><rect class="cls-3" x="326.54" y="6.97" width="2.48" height="1.5"/><rect class="cls-3" x="322.1" y="6.97" width="2.48" height="1.5"/><rect class="cls-2" x="334.47" width="13.38" height="15"/><rect class="cls-3" x="344.38" y="6.97" width="2.48" height="1.5"/><rect class="cls-3" x="339.92" y="6.97" width="2.48" height="1.5"/><rect class="cls-3" x="335.48" y="6.97" width="2.48" height="1.5"/><rect class="cls-2" x="347.85" width="13.38" height="15"/><rect class="cls-3" x="357.76" y="6.97" width="2.48" height="1.5"/><rect class="cls-3" x="353.3" y="6.97" width="2.48" height="1.5"/><rect class="cls-3" x="348.86" y="6.97" width="2.48" height="1.5"/><rect class="cls-2" x="361.23" width="13.38" height="15"/><rect class="cls-3" x="371.13" y="6.97" width="2.48" height="1.5"/><rect class="cls-3" x="366.68" y="6.97" width="2.48" height="1.5"/><rect class="cls-3" x="362.24" y="6.97" width="2.48" height="1.5"/><rect class="cls-2" x="374.61" width="13.38" height="15"/><rect class="cls-3" x="384.51" y="6.97" width="2.48" height="1.5"/><rect class="cls-3" x="380.06" y="6.97" width="2.48" height="1.5"/><rect class="cls-3" x="375.62" y="6.97" width="2.48" height="1.5"/><rect class="cls-2" x="387.98" width="13.38" height="15"/><rect class="cls-3" x="397.89" y="6.97" width="2.48" height="1.5"/><rect class="cls-3" x="393.44" y="6.97" width="2.48" height="1.5"/><rect class="cls-3" x="389" y="6.97" width="2.48" height="1.5"/><rect class="cls-2" x="401.36" width="13.38" height="15"/><rect class="cls-3" x="411.27" y="6.97" width="2.48" height="1.5"/><rect class="cls-3" x="406.82" y="6.97" width="2.48" height="1.5"/><rect class="cls-3" x="402.38" y="6.97" width="2.48" height="1.5"/><rect class="cls-2" x="414.74" width="13.38" height="15"/><rect class="cls-3" x="424.65" y="6.97" width="2.48" height="1.5"/><rect class="cls-3" x="420.2" y="6.97" width="2.48" height="1.5"/><rect class="cls-3" x="415.76" y="6.97" width="2.48" height="1.5"/><rect class="cls-2" x="428.12" width="13.38" height="15"/><rect class="cls-3" x="438.03" y="6.97" width="2.48" height="1.5"/><rect class="cls-3" x="433.57" y="6.97" width="2.48" height="1.5"/><rect class="cls-3" x="429.13" y="6.97" width="2.48" height="1.5"/><rect class="cls-2" x="435" y="8" width="15" height="15"/><rect class="cls-3" x="441.53" y="19.11" width="1.5" height="2.78"/><rect class="cls-3" x="441.53" y="14.11" width="1.5" height="2.78"/><rect class="cls-3" x="441.53" y="9.14" width="1.5" height="2.78"/><rect class="cls-2" x="435" y="23" width="15" height="15"/><rect class="cls-3" x="441.53" y="34.11" width="1.5" height="2.78"/><rect class="cls-3" x="441.53" y="29.11" width="1.5" height="2.78"/><rect class="cls-3" x="441.53" y="24.14" width="1.5" height="2.78"/><rect class="cls-2" x="435" y="38" width="15" height="15"/><rect class="cls-3" x="441.53" y="49.11" width="1.5" height="2.78"/><rect class="cls-3" x="441.53" y="44.11" width="1.5" height="2.78"/><rect class="cls-3" x="441.53" y="39.14" width="1.5" height="2.78"/><rect class="cls-2" x="435" y="53" width="15" height="15"/><rect class="cls-3" x="441.53" y="64.11" width="1.5" height="2.78"/><rect class="cls-3" x="441.53" y="59.11" width="1.5" height="2.78"/><rect class="cls-3" x="441.53" y="54.14" width="1.5" height="2.78"/><rect class="cls-2" x="443.5" y="60.5" width="13" height="15"/><rect class="cls-3" x="453.13" y="67.47" width="2.41" height="1.5"/><rect class="cls-3" x="448.8" y="67.47" width="2.41" height="1.5"/><rect class="cls-3" x="444.48" y="67.47" width="2.41" height="1.5"/><rect class="cls-2" x="456.5" y="60.5" width="13" height="15"/><rect class="cls-3" x="466.13" y="67.47" width="2.41" height="1.5"/><rect class="cls-3" x="461.8" y="67.47" width="2.41" height="1.5"/><rect class="cls-3" x="457.48" y="67.47" width="2.41" height="1.5"/><rect class="cls-2" x="469.5" y="60.5" width="13" height="15"/><rect class="cls-3" x="479.13" y="67.47" width="2.41" height="1.5"/><rect class="cls-3" x="474.8" y="67.47" width="2.41" height="1.5"/><rect class="cls-3" x="470.48" y="67.47" width="2.41" height="1.5"/><rect class="cls-2" x="482.5" y="60.5" width="13" height="15"/><rect class="cls-3" x="492.13" y="67.47" width="2.41" height="1.5"/><rect class="cls-3" x="487.8" y="67.47" width="2.41" height="1.5"/><rect class="cls-3" x="483.48" y="67.47" width="2.41" height="1.5"/><rect class="cls-2" x="495.5" y="60.5" width="13" height="15"/><rect class="cls-3" x="505.13" y="67.47" width="2.41" height="1.5"/><rect class="cls-3" x="500.8" y="67.47" width="2.41" height="1.5"/><rect class="cls-3" x="496.48" y="67.47" width="2.41" height="1.5"/><rect class="cls-2" x="508.5" y="60.5" width="13" height="15"/><rect class="cls-3" x="518.13" y="67.47" width="2.41" height="1.5"/><rect class="cls-3" x="513.8" y="67.47" width="2.41" height="1.5"/><rect class="cls-3" x="509.48" y="67.47" width="2.41" height="1.5"/><rect class="cls-2" x="521.5" y="60.5" width="13" height="15"/><rect class="cls-3" x="531.13" y="67.47" width="2.41" height="1.5"/><rect class="cls-3" x="526.8" y="67.47" width="2.41" height="1.5"/><rect class="cls-3" x="522.48" y="67.47" width="2.41" height="1.5"/><rect class="cls-2" x="534.5" y="60.5" width="13" height="15"/><rect class="cls-3" x="544.13" y="67.47" width="2.41" height="1.5"/><rect class="cls-3" x="539.8" y="67.47" width="2.41" height="1.5"/><rect class="cls-3" x="535.48" y="67.47" width="2.41" height="1.5"/><rect class="cls-2" x="547.5" y="60.5" width="13" height="15"/><rect class="cls-3" x="557.13" y="67.47" width="2.41" height="1.5"/><rect class="cls-3" x="552.8" y="67.47" width="2.41" height="1.5"/><rect class="cls-3" x="548.48" y="67.47" width="2.41" height="1.5"/><rect class="cls-2" x="560.5" y="60.5" width="13" height="15"/><rect class="cls-3" x="570.13" y="67.47" width="2.41" height="1.5"/><rect class="cls-3" x="565.8" y="67.47" width="2.41" height="1.5"/><rect class="cls-3" x="561.48" y="67.47" width="2.41" height="1.5"/></svg>