<svg id="Layer_1" data-name="Layer 1" xmlns="http://www.w3.org/2000/svg" viewBox="0 0 484.32 512"><defs><style>.cls-1{fill:#dbddf6;}.cls-2{fill:#c4c8f2;}</style></defs><title>dream</title><path class="cls-1" d="M380.54,83H364.4A131.43,131.43,0,0,0,242.16,0C171.4,0,113.51,56.2,110.8,126.32a117.63,117.63,0,0,0,20.66,233.43H147.6a131.43,131.43,0,0,0,122.23,83c70.68,0,128.51-56.07,131.35-126.06,55.28-9.84,97-58.62,97-116.06A117.76,117.76,0,0,0,380.54,83Z" transform="translate(-13.84)"/><path class="cls-2" d="M380.54,83H364.4A131.41,131.41,0,0,0,256,.74V442a132,132,0,0,0,13.84.74c70.68,0,128.51-56.07,131.35-126.06,55.28-9.84,97-58.62,97-116.06A117.76,117.76,0,0,0,380.54,83Z" transform="translate(-13.84)"/><path class="cls-1" d="M76.11,387.46a62.27,62.27,0,1,0,62.27,62.27A62.34,62.34,0,0,0,76.11,387.46Z" transform="translate(-13.84)"/></svg>