<svg id="Layer_1" data-name="Layer 1" xmlns="http://www.w3.org/2000/svg" viewBox="0 0 44 44"><defs><style>.cls-1{fill:#fff;}</style></defs><title>network</title><path class="cls-1" d="M337.2,218a4.8,4.8,0,0,0-4.22,7.09L325.12,233a6.36,6.36,0,0,0-7.84,0l-6.14-6.13a3.13,3.13,0,0,0,.46-1.62,3.2,3.2,0,1,0-3.2,3.2,3.16,3.16,0,0,0,1.62-.45l6.14,6.14a6.36,6.36,0,0,0,0,7.84L306,252.05a4.75,4.75,0,1,0,1,1.26L317.28,243a6.34,6.34,0,0,0,3.12,1.3v8.13a4.8,4.8,0,1,0,1.6,0v-8.13a6.34,6.34,0,0,0,3.12-1.3l6.13,6.14a3.16,3.16,0,0,0-.45,1.62,3.2,3.2,0,1,0,3.2-3.2,3.13,3.13,0,0,0-1.61.45l-6.14-6.14a6.35,6.35,0,0,0,0-7.84l7.73-7.73A4.8,4.8,0,1,0,337.2,218Zm0,0" transform="translate(-298 -218)"/></svg>