<?xml version="1.0" encoding="iso-8859-1"?>
<!-- Generator: Adobe Illustrator 19.0.0, SVG Export Plug-In . SVG Version: 6.00 Build 0)  -->
<svg version="1.1" id="Layer_1" xmlns="http://www.w3.org/2000/svg" xmlns:xlink="http://www.w3.org/1999/xlink" x="0px" y="0px"
	 viewBox="0 0 512 512" style="enable-background:new 0 0 512 512;" xml:space="preserve">
<circle style="fill:#FF7069;" cx="256" cy="256" r="256"/>
<path style="fill:#FFFFFF;" d="M456.571,353.478c0,12.543-10.154,22.817-22.817,22.817H78.126
	c-12.543,0-22.817-10.154-22.817-22.817v-66.419c0-12.543,10.154-22.817,22.817-22.817h355.629
	c12.543,0,22.817,10.154,22.817,22.817V353.478z"/>
<path style="fill:#384A66;" d="M388.36,313.699H123.64c-6.69,0-12.185,5.495-12.185,12.185v50.412h289.21v-50.412
	c0-6.809-5.495-12.185-12.185-12.185H388.36z"/>
<path style="fill:#83CF8F;" d="M246.324,350.372c0,2.628-1.434,4.778-3.106,4.778h-15.171c-1.672,0-3.106-2.15-3.106-4.778l0,0
	c0-2.628,1.434-4.778,3.106-4.778h15.171C244.89,345.594,246.324,347.744,246.324,350.372L246.324,350.372z M155.177,350.372
	c0,2.628-2.15,4.778-4.778,4.778h-23.294c-2.628,0-4.778-2.15-4.778-4.778l0,0c0-2.628,2.15-4.778,4.778-4.778h23.294
	C153.027,345.594,155.177,347.744,155.177,350.372L155.177,350.372z M183.727,350.372c0,2.628-1.434,4.778-3.106,4.778H165.45
	c-1.672,0-3.106-2.15-3.106-4.778l0,0c0-2.628,1.434-4.778,3.106-4.778h15.171C182.413,345.594,183.727,347.744,183.727,350.372
	L183.727,350.372z M215.026,350.372c0,2.628-1.434,4.778-3.106,4.778h-15.171c-1.672,0-3.106-2.15-3.106-4.778l0,0
	c0-2.628,1.434-4.778,3.106-4.778h15.171C213.592,345.594,215.026,347.744,215.026,350.372L215.026,350.372z"/>
<path style="fill:#FF7069;" d="M383.821,350.372c0,2.628-1.434,4.778-3.106,4.778h-15.171c-1.792,0-3.106-2.15-3.106-4.778l0,0
	c0-2.628,1.434-4.778,3.106-4.778h15.171C382.507,345.594,383.821,347.744,383.821,350.372L383.821,350.372z M321.224,350.372
	c0,2.628-1.434,4.778-3.106,4.778h-15.171c-1.672,0-3.106-2.15-3.106-4.778l0,0c0-2.628,1.434-4.778,3.106-4.778h15.171
	C319.91,345.594,321.224,347.744,321.224,350.372L321.224,350.372z M352.523,350.372c0,2.628-1.434,4.778-3.106,4.778h-15.171
	c-1.672,0-3.106-2.15-3.106-4.778l0,0c0-2.628,1.434-4.778,3.106-4.778h15.171C351.089,345.594,352.523,347.744,352.523,350.372
	L352.523,350.372z"/>
<g>
	<path style="fill:#C6CBD6;" d="M440.444,296.855c0,6.57-5.256,11.826-11.826,11.826s-11.826-5.256-11.826-11.826
		s5.256-11.826,11.826-11.826S440.444,290.285,440.444,296.855z"/>
	<path style="fill:#C6CBD6;" d="M86.846,376.295h42.169v8.004H86.846V376.295z M383.104,376.295h42.169v8.004h-42.169V376.295z"/>
</g>
<path style="fill:#ECF0F1;" d="M160.553,167.123v97.239h-21.861v-97.239l6.092-97.239V51.845c0-6.809,8.72-6.929,8.72,0v18.038
	L160.553,167.123z"/>
<polygon style="fill:#FFFFFF;" points="156.969,264.362 205.588,264.362 204.752,291.599 "/>
<path style="fill:#C6CBD6;" d="M160.553,167.123v97.239h-3.584v-99.27l-4.898-96.881V51.128c-0.358-4.659-5.376-3.464-5.495-3.464
	c2.509-2.031,6.929-0.717,6.929,4.181v18.038L160.553,167.123z"/>
<g>
	<path style="fill:#FEFEFE;" d="M146.217,50.412c0-0.358,0.239-0.597,0.597-0.597c0.358,0,0.597,0.239,0.597,0.597v17.441
		c0,0.358-0.239,0.597-0.597,0.597c-0.358,0-0.597-0.239-0.597-0.597V50.412z"/>
	<polygon style="fill:#FEFEFE;" points="147.173,71.556 143.709,165.809 143.709,262.451 140.603,262.451 140.722,166.048 
		145.979,71.436 	"/>
</g>
<g>
</g>
<g>
</g>
<g>
</g>
<g>
</g>
<g>
</g>
<g>
</g>
<g>
</g>
<g>
</g>
<g>
</g>
<g>
</g>
<g>
</g>
<g>
</g>
<g>
</g>
<g>
</g>
<g>
</g>
</svg>
