<svg id="Layer_1" data-name="Layer 1" xmlns="http://www.w3.org/2000/svg" xmlns:xlink="http://www.w3.org/1999/xlink" viewBox="0 0 228.87 178.8"><defs><style>.cls-1{fill:none;}.cls-2{clip-path:url(#clip-path);}.cls-3{fill:#32db64;}</style><clipPath id="clip-path" transform="translate(-205 -151)"><rect class="cls-1" x="205" y="151" width="228.96" height="179.76"/></clipPath></defs><title>wifi</title><g class="cls-2"><path class="cls-3" d="M319.48,301.22a14.29,14.29,0,1,0,14.36,14.29,14.34,14.34,0,0,0-14.36-14.29ZM430,193.89C400.43,166.23,361.18,151,319.43,151s-81,15.23-110.52,42.91a12,12,0,0,0,0,17.69,14,14,0,0,0,18.87,0c24.48-22.95,57-34.24,91.65-34.24s67.17,11.29,91.65,34.23a14,14,0,0,0,18.88,0,12,12,0,0,0,0-17.68ZM319.32,201a115.2,115.2,0,0,0-81.68,33.58,13.77,13.77,0,0,0,0,19.57,14,14,0,0,0,19.72,0c16.55-16.43,38.56-26.37,62-26.37s45.41,10,62,26.38a14,14,0,0,0,19.72,0,13.76,13.76,0,0,0,0-19.57A115.21,115.21,0,0,0,319.32,201Zm.12,50a64,64,0,0,0-46.19,19.71,13.79,13.79,0,0,0,0,19.08,12.83,12.83,0,0,0,18.5,0c7.4-7.62,17.23-12.27,27.69-12.27s20.28,4.63,27.69,12.25a12.82,12.82,0,0,0,18.51,0,13.8,13.8,0,0,0,0-19.07,64,64,0,0,0-46.2-19.71Zm0,0" transform="translate(-205 -151)"/></g></svg>