<?xml version="1.0" encoding="iso-8859-1"?>
<!-- Generator: Adobe Illustrator 19.0.0, SVG Export Plug-In . SVG Version: 6.00 Build 0)  -->
<svg version="1.1" id="Layer_1" xmlns="http://www.w3.org/2000/svg" xmlns:xlink="http://www.w3.org/1999/xlink" x="0px" y="0px"
	 viewBox="0 0 512 512" style="enable-background:new 0 0 512 512;" xml:space="preserve">
<circle style="fill:#C1D354;" cx="256" cy="256" r="256"/>
<path style="fill:#9DB138;" d="M510.889,279.396L409.695,178.196c-0.829-0.499-1.869-0.622-2.867-0.376
	c-0.993,0.292-1.823,0.955-2.322,1.787l-5.481,9.503l-0.371,0.668l-1.664,2.862l-0.415,0.663l-20.621,35.776l-0.379-0.205
	c-0.325-0.212-0.748-0.253-1.121-0.169c-0.415,0.123-0.704,0.374-0.909,0.701l-28.344,46.986H204.337l-97.544-97.541
	c-0.125-0.125-0.23-0.269-0.379-0.379l-0.028-0.028c-0.374-0.292-0.786-0.494-1.242-0.625c-1.037-0.246-2.038-0.123-2.908,0.376
	c-0.829,0.499-1.492,1.329-1.743,2.324c-0.287,0.998-0.123,2.033,0.374,2.906l5.486,9.464l0.374,0.704l1.656,2.862l0.374,0.666
	l20.667,35.773l-0.374,0.207c-0.338,0.212-0.576,0.499-0.709,0.911c-0.084,0.42-0.036,0.788,0.169,1.124l22.787,41.257h-25.155
	c-0.87,0-1.784,0.374-2.452,1.032c-0.66,0.668-0.991,1.539-0.991,2.45v4.152h-1.167c-0.287,0-0.617,0.125-0.829,0.33
	c-0.205,0.253-0.33,0.54-0.33,0.827v42.629c0,0.33,0.125,0.617,0.33,0.829l1.994,1.994v2.527c0,0.287,0.079,0.584,0.33,0.788
	L297.641,508.57C411.676,489.912,500.324,395.95,510.889,279.396z"/>
<path style="fill:#34495E;" d="M137.528,228.713c-0.402-0.102-0.809-0.038-1.142,0.156l-7.304,4.221
	c-0.333,0.197-0.599,0.517-0.704,0.904c-0.113,0.412-0.051,0.814,0.133,1.147l28.751,52.045l11.884-6.863l-30.7-50.921
	C138.25,229.079,137.928,228.81,137.528,228.713z"/>
<path style="fill:#5D6D7E;" d="M136.038,229.079l-28.567-49.48c-0.486-0.842-1.303-1.503-2.309-1.761
	c-1.029-0.287-2.048-0.131-2.883,0.366c-0.85,0.492-1.516,1.293-1.784,2.312c-0.274,1.011-0.105,2.051,0.379,2.893l28.559,49.464
	L136.038,229.079z"/>
<g>
	
		<rect x="109.45" y="187.527" transform="matrix(0.4987 0.8668 -0.8668 0.4987 220.9015 0.7092)" style="fill:#F2F9FF;" width="0.776" height="7.623"/>
	
		<rect x="111.51" y="191.055" transform="matrix(0.506 0.8626 -0.8626 0.506 223.3597 -0.2506)" style="fill:#F2F9FF;" width="0.778" height="7.614"/>
</g>
<path style="fill:#34495E;" d="M374.459,228.713c0.407-0.102,0.814-0.038,1.144,0.156l7.309,4.221
	c0.333,0.197,0.596,0.517,0.709,0.904c0.105,0.412,0.046,0.814-0.136,1.147l-28.759,52.045l-11.876-6.863l30.689-50.918
	C373.75,229.079,374.065,228.81,374.459,228.713z"/>
<path style="fill:#5D6D7E;" d="M375.969,229.079l28.554-49.48c0.492-0.842,1.308-1.503,2.317-1.761
	c1.016-0.287,2.045-0.131,2.88,0.366c0.85,0.492,1.51,1.293,1.777,2.312c0.279,1.011,0.113,2.051-0.381,2.893l-28.557,49.467
	L375.969,229.079z"/>
<g>
	
		<rect x="401.742" y="187.528" transform="matrix(-0.4975 0.8674 -0.8674 -0.4975 768.1752 -62.2896)" style="fill:#F2F9FF;" width="0.773" height="7.623"/>
	
		<rect x="399.743" y="191.064" transform="matrix(-0.5024 0.8647 -0.8647 -0.5024 769.6381 -53.2088)" style="fill:#F2F9FF;" width="0.776" height="7.609"/>
</g>
<path style="fill:#FFFFFF;" d="M126.164,276.396c-0.881,0-1.766,0.346-2.445,1.016c-0.676,0.676-1.019,1.567-1.019,2.445v53.292
	c0,0.294,0.118,0.594,0.343,0.819c0.218,0.233,0.517,0.338,0.806,0.338h264.287c0.297,0,0.596-0.105,0.814-0.338
	c0.238-0.225,0.34-0.525,0.34-0.819v-53.292c0-0.878-0.34-1.769-1.014-2.445c-0.671-0.673-1.564-1.016-2.45-1.016H126.164
	L126.164,276.396z"/>
<path style="fill:#34495E;" d="M343.595,334.308H168.404v-32.755c0-1.362,0.517-2.732,1.556-3.766
	c1.06-1.047,2.414-1.567,3.771-1.567h164.539c1.362,0,2.724,0.52,3.771,1.567c1.032,1.032,1.554,2.401,1.554,3.766V334.308z"/>
<path style="fill:#CEE2F2;" d="M328.353,317.01c0,1.265-1.024,2.309-2.307,2.309H185.943c-1.257,0-2.301-1.044-2.301-2.309v-3.477
	c0-1.262,1.047-2.309,2.301-2.309h140.101c1.283,0,2.307,1.047,2.307,2.309v3.477H328.353z"/>
<g>
	<path style="fill:#F2F9FF;" d="M198.761,315.274c0,0.878-0.73,1.6-1.623,1.6c-0.891,0-1.615-0.722-1.615-1.6
		c0-0.901,0.724-1.631,1.615-1.631C198.031,313.646,198.761,314.376,198.761,315.274z"/>
	<path style="fill:#F2F9FF;" d="M212.106,315.274c0,0.886-0.722,1.608-1.615,1.608c-0.899,0-1.628-0.722-1.628-1.608
		c0-0.901,0.73-1.631,1.628-1.631C211.382,313.646,212.106,314.376,212.106,315.274z"/>
	<path style="fill:#F2F9FF;" d="M225.457,315.274c0,0.878-0.73,1.608-1.623,1.608c-0.899,0-1.623-0.73-1.623-1.608
		c0-0.901,0.724-1.631,1.623-1.631C224.727,313.646,225.457,314.376,225.457,315.274z"/>
	<path style="fill:#F2F9FF;" d="M238.799,315.274c0,0.878-0.722,1.608-1.615,1.608c-0.899,0-1.623-0.73-1.623-1.608
		c0-0.901,0.724-1.631,1.623-1.631C238.077,313.646,238.799,314.376,238.799,315.274z"/>
	<path style="fill:#F2F9FF;" d="M252.129,315.274c0,0.878-0.712,1.608-1.608,1.608c-0.893,0-1.623-0.73-1.623-1.608
		c0-0.901,0.73-1.631,1.623-1.631C251.418,313.646,252.129,314.376,252.129,315.274z"/>
	<path style="fill:#F2F9FF;" d="M265.48,315.274c0,0.878-0.722,1.608-1.608,1.608c-0.904,0-1.623-0.73-1.623-1.608
		c0-0.901,0.719-1.631,1.623-1.631C264.758,313.646,265.48,314.376,265.48,315.274z"/>
	<path style="fill:#F2F9FF;" d="M278.843,315.274c0,0.878-0.727,1.608-1.623,1.608s-1.618-0.73-1.618-1.608
		c0-0.901,0.722-1.631,1.618-1.631S278.843,314.376,278.843,315.274z"/>
</g>
<path style="fill:#FF8E31;" d="M383.063,322.199c0,0.632-0.509,1.152-1.152,1.152H356.48c-0.64,0-1.147-0.52-1.147-1.152v-13.87
	c0-0.64,0.507-1.16,1.147-1.16h25.431c0.643,0,1.152,0.52,1.152,1.16V322.199z"/>
<path style="fill:#34495E;" d="M370.499,315.274c0,2.22-1.818,4.037-4.052,4.037c-2.225,0-4.037-1.818-4.037-4.037
	c0-2.24,1.812-4.052,4.037-4.052C368.681,311.222,370.499,313.034,370.499,315.274z"/>
<g>
	<rect x="194.253" y="325.171" style="fill:#F2F9FF;" width="5.773" height="1.152"/>
	<rect x="207.59" y="325.171" style="fill:#F2F9FF;" width="5.78" height="1.152"/>
	<rect x="220.954" y="325.171" style="fill:#F2F9FF;" width="5.77" height="1.152"/>
	<rect x="234.291" y="325.171" style="fill:#F2F9FF;" width="5.765" height="1.152"/>
	<rect x="247.629" y="325.171" style="fill:#F2F9FF;" width="5.778" height="1.152"/>
	<rect x="260.966" y="325.171" style="fill:#F2F9FF;" width="5.788" height="1.152"/>
	<rect x="274.304" y="325.171" style="fill:#F2F9FF;" width="5.78" height="1.152"/>
	<rect x="296.934" y="325.171" style="fill:#F2F9FF;" width="20.81" height="1.152"/>
</g>
<g>
	<path style="fill:#34495E;" d="M391.619,327.826c0,0.294-0.12,0.589-0.346,0.822c-0.225,0.218-0.527,0.33-0.814,0.33h-1.162
		v-44.948h1.162c0.287,0,0.589,0.125,0.814,0.335c0.225,0.233,0.346,0.535,0.346,0.829V327.826z"/>
	<path style="fill:#34495E;" d="M122.701,328.978h-1.152c-0.294,0-0.596-0.113-0.814-0.33c-0.238-0.233-0.351-0.527-0.351-0.822
		v-42.629c0-0.294,0.113-0.596,0.351-0.829c0.218-0.21,0.52-0.335,0.814-0.335h1.152V328.978z"/>
</g>
<path style="fill:#B8D1E6;" d="M385.83,276.396H126.164c-0.881,0-1.766,0.346-2.445,1.016c-0.676,0.676-1.019,1.567-1.019,2.445
	v4.173h266.593v-4.173c0-0.878-0.34-1.769-1.014-2.445C387.61,276.741,386.716,276.396,385.83,276.396z"/>
<g>
</g>
<g>
</g>
<g>
</g>
<g>
</g>
<g>
</g>
<g>
</g>
<g>
</g>
<g>
</g>
<g>
</g>
<g>
</g>
<g>
</g>
<g>
</g>
<g>
</g>
<g>
</g>
<g>
</g>
</svg>
