<svg xmlns="http://www.w3.org/2000/svg" viewBox="0 0 46.4 46.4"><defs><style>.cls-1{fill:#ecd361;}.cls-2{fill:#5e5e60;}.cls-3{fill:#38454f;}.cls-4{fill:#546a79;}.cls-5{fill:#cbd4d8;}.cls-6{fill:#fff;}</style></defs><title>chip2</title><g id="Layer_1" data-name="Layer 1"><path class="cls-1" d="M340,229.8a.8.8,0,1,0,0,1.6h2.4v-1.6Zm0,0" transform="translate(-296 -217)"/><path class="cls-1" d="M339.2,233a.8.8,0,0,0,.8.8h2.4v-1.6H340a.8.8,0,0,0-.8.8Zm0,0" transform="translate(-296 -217)"/><path class="cls-1" d="M339.2,235.4a.8.8,0,0,0,.8.8h2.4v-1.6H340a.8.8,0,0,0-.8.8Zm0,0" transform="translate(-296 -217)"/><path class="cls-1" d="M339.2,237.8a.8.8,0,0,0,.8.8h2.4V237H340a.8.8,0,0,0-.8.8Zm0,0" transform="translate(-296 -217)"/><path class="cls-1" d="M339.2,240.2a.8.8,0,0,0,.8.8h2.4v-1.6H340a.8.8,0,0,0-.8.8Zm0,0" transform="translate(-296 -217)"/><path class="cls-1" d="M339.2,242.6a.8.8,0,0,0,.8.8h2.4v-1.6H340a.8.8,0,0,0-.8.8Zm0,0" transform="translate(-296 -217)"/><path class="cls-1" d="M339.2,245a.8.8,0,0,0,.8.8h2.4v-1.6H340a.8.8,0,0,0-.8.8Zm0,0" transform="translate(-296 -217)"/><path class="cls-1" d="M339.2,247.4a.8.8,0,0,0,.8.8h2.4v-1.6H340a.8.8,0,0,0-.8.8Zm0,0" transform="translate(-296 -217)"/><path class="cls-1" d="M339.2,249.8a.8.8,0,0,0,.8.8h2.4V249H340a.8.8,0,0,0-.8.8Zm0,0" transform="translate(-296 -217)"/><path class="cls-2" d="M340,229.8h2.4v-9.2a3.6,3.6,0,0,0-3.6-3.6h-6a3.2,3.2,0,0,1-6.4,0H299.6a3.6,3.6,0,0,0-3.6,3.6V225h3.2v3.2H296v31.6a3.6,3.6,0,0,0,3.6,3.6h26.8a3.2,3.2,0,0,1,6.4,0h6a3.6,3.6,0,0,0,3.6-3.6v-9.2H340a.8.8,0,0,1,0-1.6h2.4v-.8H340a.8.8,0,1,1,0-1.6h2.4v-.8H340a.8.8,0,1,1,0-1.6h2.4v-.8H340a.8.8,0,1,1,0-1.6h2.4V241H340a.8.8,0,1,1,0-1.6h2.4v-.8H340a.8.8,0,0,1,0-1.6h2.4v-.8H340a.8.8,0,1,1,0-1.6h2.4v-.8H340a.8.8,0,0,1,0-1.6h2.4v-.8H340a.8.8,0,1,1,0-1.6ZM299.2,261a.8.8,0,1,1,.8-.8.8.8,0,0,1-.8.8Zm0-40a.8.8,0,1,1,.8-.8.8.8,0,0,1-.8.8ZM340,260.2a.8.8,0,1,1-.8-.8.8.8,0,0,1,.8.8Zm-1.6-40a.8.8,0,1,1,.8.8.8.8,0,0,1-.8-.8Zm0,0" transform="translate(-296 -217)"/><path class="cls-3" d="M308,248.71v-17a2.69,2.69,0,0,1,2.69-2.69h17a2.68,2.68,0,0,1,2.68,2.69v17a2.68,2.68,0,0,1-2.68,2.68h-17a2.68,2.68,0,0,1-2.69-2.68Zm0,0" transform="translate(-296 -217)"/><path class="cls-1" d="M304.8,234.6h-2.4a.8.8,0,0,0,0,1.6h2.4a.8.8,0,1,0,0-1.6Zm0,0" transform="translate(-296 -217)"/><path class="cls-1" d="M304.8,244.2h-2.4a.8.8,0,0,0,0,1.6h2.4a.8.8,0,1,0,0-1.6Zm0,0" transform="translate(-296 -217)"/><path class="cls-1" d="M304.8,241h-2.4a.8.8,0,0,0,0,1.6h2.4a.8.8,0,1,0,0-1.6Zm0,0" transform="translate(-296 -217)"/><path class="cls-1" d="M304.8,237.8h-2.4a.8.8,0,0,0,0,1.6h2.4a.8.8,0,1,0,0-1.6Zm0,0" transform="translate(-296 -217)"/><path class="cls-1" d="M333.6,236.2H336a.8.8,0,1,0,0-1.6h-2.4a.8.8,0,1,0,0,1.6Zm0,0" transform="translate(-296 -217)"/><path class="cls-1" d="M336,244.2h-2.4a.8.8,0,0,0,0,1.6H336a.8.8,0,1,0,0-1.6Zm0,0" transform="translate(-296 -217)"/><path class="cls-1" d="M336,241h-2.4a.8.8,0,0,0,0,1.6H336a.8.8,0,1,0,0-1.6Zm0,0" transform="translate(-296 -217)"/><path class="cls-1" d="M336,237.8h-2.4a.8.8,0,1,0,0,1.6H336a.8.8,0,1,0,0-1.6Zm0,0" transform="translate(-296 -217)"/><path class="cls-1" d="M324,222.6a.8.8,0,0,0-.8.8v2.4a.8.8,0,0,0,1.6,0v-2.4a.8.8,0,0,0-.8-.8Zm0,0" transform="translate(-296 -217)"/><path class="cls-1" d="M314.4,222.6a.79.79,0,0,0-.8.8v2.4a.8.8,0,1,0,1.6,0v-2.4a.8.8,0,0,0-.8-.8Zm0,0" transform="translate(-296 -217)"/><path class="cls-1" d="M317.6,222.6a.8.8,0,0,0-.8.8v2.4a.8.8,0,1,0,1.6,0v-2.4a.79.79,0,0,0-.8-.8Zm0,0" transform="translate(-296 -217)"/><path class="cls-1" d="M320.8,222.6a.8.8,0,0,0-.8.8v2.4a.8.8,0,1,0,1.6,0v-2.4a.8.8,0,0,0-.8-.8Zm0,0" transform="translate(-296 -217)"/><path class="cls-1" d="M324,253.8a.8.8,0,0,0-.8.8V257a.8.8,0,0,0,1.6,0v-2.4a.8.8,0,0,0-.8-.8Zm0,0" transform="translate(-296 -217)"/><path class="cls-1" d="M314.4,253.8a.8.8,0,0,0-.8.8V257a.8.8,0,1,0,1.6,0v-2.4a.8.8,0,0,0-.8-.8Zm0,0" transform="translate(-296 -217)"/><path class="cls-1" d="M317.6,253.8a.8.8,0,0,0-.8.8V257a.8.8,0,1,0,1.6,0v-2.4a.8.8,0,0,0-.8-.8Zm0,0" transform="translate(-296 -217)"/><path class="cls-1" d="M320.8,253.8a.8.8,0,0,0-.8.8V257a.8.8,0,0,0,1.6,0v-2.4a.8.8,0,0,0-.8-.8Zm0,0" transform="translate(-296 -217)"/><path class="cls-1" d="M299.2,245.8a.8.8,0,1,1-.8-.8.8.8,0,0,1,.8.8Zm0,0" transform="translate(-296 -217)"/><path class="cls-1" d="M299.2,249a.8.8,0,1,1-.8-.8.8.8,0,0,1,.8.8Zm0,0" transform="translate(-296 -217)"/><path class="cls-1" d="M299.2,252.2a.8.8,0,1,1-.8-.8.8.8,0,0,1,.8.8Zm0,0" transform="translate(-296 -217)"/><path class="cls-1" d="M299.2,255.4a.8.8,0,1,1-.8-.8.8.8,0,0,1,.8.8Zm0,0" transform="translate(-296 -217)"/><path class="cls-4" d="M326.4,247.4a.8.8,0,1,1-.8-.8.8.8,0,0,1,.8.8Zm0,0" transform="translate(-296 -217)"/><path class="cls-4" d="M323.2,247.4a.8.8,0,1,1-.8-.8.8.8,0,0,1,.8.8Zm0,0" transform="translate(-296 -217)"/><path class="cls-4" d="M324.8,245a.8.8,0,1,1-.8-.8.8.8,0,0,1,.8.8Zm0,0" transform="translate(-296 -217)"/><path class="cls-4" d="M320,247.4a.8.8,0,1,1-.8-.8.8.8,0,0,1,.8.8Zm0,0" transform="translate(-296 -217)"/><path class="cls-4" d="M316.8,247.4a.8.8,0,1,1-.8-.8.8.8,0,0,1,.8.8Zm0,0" transform="translate(-296 -217)"/><path class="cls-4" d="M321.6,245a.8.8,0,1,1-.8-.8.8.8,0,0,1,.8.8Zm0,0" transform="translate(-296 -217)"/><path class="cls-4" d="M318.4,245a.8.8,0,1,1-.8-.8.8.8,0,0,1,.8.8Zm0,0" transform="translate(-296 -217)"/><path class="cls-4" d="M313.6,247.4a.8.8,0,1,1-.8-.8.8.8,0,0,1,.8.8Zm0,0" transform="translate(-296 -217)"/><path class="cls-4" d="M315.2,245a.8.8,0,1,1-.8-.8.8.8,0,0,1,.8.8Zm0,0" transform="translate(-296 -217)"/><path class="cls-4" d="M326.4,242.6a.8.8,0,1,1-.8-.8.79.79,0,0,1,.8.8Zm0,0" transform="translate(-296 -217)"/><path class="cls-4" d="M323.2,242.6a.8.8,0,1,1-.8-.8.8.8,0,0,1,.8.8Zm0,0" transform="translate(-296 -217)"/><path class="cls-4" d="M324.8,240.2a.8.8,0,1,1-.8-.8.8.8,0,0,1,.8.8Zm0,0" transform="translate(-296 -217)"/><path class="cls-4" d="M320,242.6a.8.8,0,1,1-.8-.8.8.8,0,0,1,.8.8Zm0,0" transform="translate(-296 -217)"/><path class="cls-4" d="M316.8,242.6a.8.8,0,1,1-.8-.8.8.8,0,0,1,.8.8Zm0,0" transform="translate(-296 -217)"/><path class="cls-4" d="M321.6,240.2a.8.8,0,1,1-.8-.8.8.8,0,0,1,.8.8Zm0,0" transform="translate(-296 -217)"/><path class="cls-4" d="M318.4,240.2a.8.8,0,1,1-.8-.8.8.8,0,0,1,.8.8Zm0,0" transform="translate(-296 -217)"/><path class="cls-4" d="M313.6,242.6a.8.8,0,1,1-.8-.8.8.8,0,0,1,.8.8Zm0,0" transform="translate(-296 -217)"/><path class="cls-4" d="M315.2,240.2a.8.8,0,1,1-.8-.8.8.8,0,0,1,.8.8Zm0,0" transform="translate(-296 -217)"/><path class="cls-4" d="M326.4,237.8a.8.8,0,1,1-.8-.8.8.8,0,0,1,.8.8Zm0,0" transform="translate(-296 -217)"/><path class="cls-4" d="M323.2,237.8a.8.8,0,1,1-.8-.8.8.8,0,0,1,.8.8Zm0,0" transform="translate(-296 -217)"/><path class="cls-4" d="M324.8,235.4a.8.8,0,1,1-.8-.8.8.8,0,0,1,.8.8Zm0,0" transform="translate(-296 -217)"/><path class="cls-4" d="M320,237.8a.8.8,0,1,1-.8-.8.8.8,0,0,1,.8.8Zm0,0" transform="translate(-296 -217)"/><path class="cls-4" d="M316.8,237.8a.8.8,0,1,1-.8-.8.8.8,0,0,1,.8.8Zm0,0" transform="translate(-296 -217)"/><path class="cls-4" d="M321.6,235.4a.8.8,0,1,1-.8-.8.8.8,0,0,1,.8.8Zm0,0" transform="translate(-296 -217)"/><path class="cls-4" d="M318.4,235.4a.8.8,0,1,1-.8-.8.8.8,0,0,1,.8.8Zm0,0" transform="translate(-296 -217)"/><path class="cls-4" d="M313.6,237.8a.8.8,0,1,1-.8-.8.8.8,0,0,1,.8.8Zm0,0" transform="translate(-296 -217)"/><path class="cls-4" d="M315.2,235.4a.8.8,0,1,1-.8-.8.8.8,0,0,1,.8.8Zm0,0" transform="translate(-296 -217)"/><path class="cls-4" d="M326.4,233a.8.8,0,1,1-.8-.8.8.8,0,0,1,.8.8Zm0,0" transform="translate(-296 -217)"/><path class="cls-4" d="M323.2,233a.8.8,0,1,1-.8-.8.8.8,0,0,1,.8.8Zm0,0" transform="translate(-296 -217)"/><path class="cls-4" d="M320,233a.8.8,0,1,1-.8-.8.8.8,0,0,1,.8.8Zm0,0" transform="translate(-296 -217)"/><path class="cls-4" d="M316.8,233a.8.8,0,1,1-.8-.8.8.8,0,0,1,.8.8Zm0,0" transform="translate(-296 -217)"/><path class="cls-4" d="M313.6,233a.8.8,0,1,1-.8-.8.8.8,0,0,1,.8.8Zm0,0" transform="translate(-296 -217)"/><path class="cls-1" d="M304.8,261a.8.8,0,1,1-.8-.8.8.8,0,0,1,.8.8Zm0,0" transform="translate(-296 -217)"/><path class="cls-1" d="M308,261a.8.8,0,1,1-.8-.8.8.8,0,0,1,.8.8Zm0,0" transform="translate(-296 -217)"/><path class="cls-1" d="M311.2,261a.8.8,0,1,1-.8-.8.8.8,0,0,1,.8.8Zm0,0" transform="translate(-296 -217)"/><path class="cls-1" d="M314.4,261a.8.8,0,1,1-.8-.8.8.8,0,0,1,.8.8Zm0,0" transform="translate(-296 -217)"/><rect class="cls-5" x="16.8" y="8.8" width="12.8" height="3.2"/><rect class="cls-5" x="16.8" y="34.4" width="12.8" height="3.2"/><rect class="cls-5" x="34.4" y="16.8" width="3.2" height="12.8"/><rect class="cls-5" x="8.8" y="16.8" width="3.2" height="12.8"/></g><g id="Layer_2" data-name="Layer 2"><path class="cls-6" d="M315.87,243.33H314v-5q0-.81.07-1.8h0a8.92,8.92,0,0,1-.26,1.11l-2,5.71h-1.55l-2-5.65a11,11,0,0,1-.26-1.17h-.05q.08,1.24.08,2.18v4.65h-1.71v-8.4h2.77l1.72,5a7,7,0,0,1,.3,1.2h0a12.1,12.1,0,0,1,.33-1.21l1.72-5h2.7Z" transform="translate(-296 -217)"/><path class="cls-6" d="M323.8,243a5.54,5.54,0,0,1-2.4.45,4,4,0,0,1-3-1.14,4.16,4.16,0,0,1-1.11-3A4.44,4.44,0,0,1,318.5,236a4.36,4.36,0,0,1,3.23-1.25,6,6,0,0,1,2.07.31v1.82a3.68,3.68,0,0,0-1.92-.5,2.55,2.55,0,0,0-1.91.74,2.76,2.76,0,0,0-.73,2,2.71,2.71,0,0,0,.69,1.94,2.42,2.42,0,0,0,1.85.72,3.94,3.94,0,0,0,2-.54Z" transform="translate(-296 -217)"/><path class="cls-6" d="M332.12,239.69q0,3.79-3.53,3.79t-3.42-3.7v-4.85h1.9v4.88q0,2,1.59,2t1.56-2v-4.95h1.89Z" transform="translate(-296 -217)"/></g></svg>