<svg xmlns="http://www.w3.org/2000/svg" xmlns:xlink="http://www.w3.org/1999/xlink" viewBox="0 0 407.43 407.43"><defs><style>.cls-1{fill:none;}.cls-2{fill:#9e685c;}.cls-3{fill:#646b79;}.cls-4{fill:#4f5565;}.cls-5{fill:#f1f3f7;}.cls-6{clip-path:url(#clip-path);}.cls-7{fill:#73ef45;}</style><clipPath id="clip-path" transform="translate(-116 -37)"><rect class="cls-1" x="269" y="201" width="102.95" height="80.82"/></clipPath></defs><title>chip77</title><g id="Layer_1" data-name="Layer 1"><path class="cls-2" d="M523.43,240.71c0,112.51-91.21,203.72-203.72,203.72S116,353.22,116,240.71,207.21,37,319.71,37s203.72,91.21,203.72,203.71Zm0,0" transform="translate(-116 -37)"/><path class="cls-3" d="M411.4,133.3H228A15.74,15.74,0,0,0,212.3,149V332.4A15.74,15.74,0,0,0,228,348.13H411.4a15.75,15.75,0,0,0,15.74-15.73V149A15.74,15.74,0,0,0,411.4,133.3Zm0,0" transform="translate(-116 -37)"/><path class="cls-4" d="M381.56,168.29H257.87a10.59,10.59,0,0,0-10.58,10.58V302.29a10.59,10.59,0,0,0,10.58,10.58H381.29a10.59,10.59,0,0,0,10.58-10.58V178.87a10.36,10.36,0,0,0-10.31-10.58Zm0,0" transform="translate(-116 -37)"/><rect class="cls-5" x="32.01" y="131.29" width="64.29" height="18.18"/><rect class="cls-5" x="32.01" y="173.6" width="64.29" height="18.18"/><rect class="cls-5" x="32.01" y="215.65" width="64.29" height="18.18"/><rect class="cls-5" x="32.01" y="257.96" width="64.29" height="18.18"/><rect class="cls-5" x="311.13" y="131.29" width="64.29" height="18.18"/><rect class="cls-5" x="311.13" y="173.6" width="64.29" height="18.18"/><rect class="cls-5" x="311.13" y="215.65" width="64.29" height="18.18"/><rect class="cls-5" x="311.13" y="257.96" width="64.29" height="18.18"/><rect class="cls-5" x="131.29" y="311.13" width="18.18" height="64.29"/><rect class="cls-5" x="173.6" y="311.13" width="18.18" height="64.29"/><rect class="cls-5" x="215.65" y="311.13" width="18.18" height="64.29"/><rect class="cls-5" x="257.96" y="311.13" width="18.18" height="64.29"/><rect class="cls-5" x="131.29" y="32.01" width="18.18" height="64.29"/><rect class="cls-5" x="173.6" y="32.01" width="18.18" height="64.29"/><rect class="cls-5" x="215.65" y="32.01" width="18.18" height="64.29"/><rect class="cls-5" x="257.96" y="32.01" width="18.18" height="64.29"/></g><g id="Layer_2" data-name="Layer 2"><g class="cls-6"><path class="cls-7" d="M320.47,268.54a6.42,6.42,0,1,0,6.45,6.42,6.45,6.45,0,0,0-6.45-6.42Zm49.68-48.26a73.66,73.66,0,0,0-99.39,0,5.38,5.38,0,0,0,0,8,6.29,6.29,0,0,0,8.48,0c11-10.32,25.64-15.4,41.21-15.4s30.2,5.08,41.21,15.39a6.29,6.29,0,0,0,8.49,0,5.38,5.38,0,0,0,0-8Zm-49.75,3.2a51.8,51.8,0,0,0-36.72,15.1,6.19,6.19,0,0,0,0,8.8,6.29,6.29,0,0,0,8.87,0,38.65,38.65,0,0,1,55.71,0,6.3,6.3,0,0,0,8.86,0,6.19,6.19,0,0,0,0-8.8,51.8,51.8,0,0,0-36.72-15.1Zm.05,22.5a28.76,28.76,0,0,0-20.77,8.86,6.2,6.2,0,0,0,0,8.58,5.77,5.77,0,0,0,8.32,0,16.82,16.82,0,0,1,24.9,0,5.76,5.76,0,0,0,8.32,0,6.2,6.2,0,0,0,0-8.57A28.77,28.77,0,0,0,320.46,246Zm0,0" transform="translate(-116 -37)"/></g></g></svg>