<svg xmlns="http://www.w3.org/2000/svg" xmlns:xlink="http://www.w3.org/1999/xlink" viewBox="0 0 405 409.6"><defs><style>.cls-1{fill:none;}.cls-2{fill:#165c6c;}.cls-3{fill:#1c7287;}.cls-4{clip-path:url(#clip-path);}.cls-5{fill:#c4c8c4;}.cls-6{fill:#a5a9a6;}.cls-7{clip-path:url(#clip-path-2);}.cls-8{fill:#73ef45;}</style><clipPath id="clip-path" transform="translate(-117 -35.32)"><rect class="cls-1" x="117" y="35" width="404.88" height="410.88"/></clipPath><clipPath id="clip-path-2" transform="translate(-117 -35.32)"><rect class="cls-1" x="258.68" y="190.42" width="120.51" height="94.61"/></clipPath></defs><title>chip55</title><g id="Layer_1" data-name="Layer 1"><path class="cls-2" d="M242.79,125.83a23,23,0,0,1-23-23V58.33a23,23,0,1,1,46,0v44.49a23,23,0,0,1-23,23Zm0,0" transform="translate(-117 -35.32)"/><path class="cls-3" d="M319.5,125.83a23,23,0,0,1-23-23V58.33a23,23,0,1,1,46,0v44.49a23,23,0,0,1-23,23Zm0,0" transform="translate(-117 -35.32)"/><path class="cls-2" d="M319.5,125.83a23,23,0,0,1-23-23V58.33a23,23,0,0,1,23-23Zm0,0" transform="translate(-117 -35.32)"/><path class="cls-3" d="M396.2,125.83a23,23,0,0,1-23-23V58.33a23,23,0,1,1,46,0v44.49a23,23,0,0,1-23,23Zm0,0" transform="translate(-117 -35.32)"/><path class="cls-2" d="M242.79,444.92a23,23,0,0,1-23-23V377.42a23,23,0,1,1,46,0v44.49a23,23,0,0,1-23,23Zm0,0" transform="translate(-117 -35.32)"/><path class="cls-3" d="M319.5,444.92a23,23,0,0,1-23-23V377.42a23,23,0,1,1,46,0v44.49a23,23,0,0,1-23,23Zm0,0" transform="translate(-117 -35.32)"/><path class="cls-2" d="M319.5,444.92a23,23,0,0,1-23-23V377.42a23,23,0,0,1,23-23Zm0,0" transform="translate(-117 -35.32)"/><path class="cls-3" d="M396.2,444.92a23,23,0,0,1-23-23V377.42a23,23,0,0,1,46,0v44.49a23,23,0,0,1-23,23Zm0,0" transform="translate(-117 -35.32)"/><path class="cls-2" d="M184.5,185.66H140a23,23,0,1,1,0-46H184.5a23,23,0,1,1,0,46Zm0,0" transform="translate(-117 -35.32)"/><path class="cls-2" d="M184.5,262.36H140a23,23,0,1,1,0-46H184.5a23,23,0,1,1,0,46Zm0,0" transform="translate(-117 -35.32)"/><path class="cls-2" d="M186,339.07H141.55a23,23,0,1,1,0-46H186a23,23,0,1,1,0,46Zm0,0" transform="translate(-117 -35.32)"/><path class="cls-3" d="M497.45,185.66H453a23,23,0,1,1,0-46h44.49a23,23,0,1,1,0,46Zm0,0" transform="translate(-117 -35.32)"/><g class="cls-4"><path class="cls-3" d="M497.45,262.36H453a23,23,0,1,1,0-46h44.49a23,23,0,1,1,0,46Zm0,0" transform="translate(-117 -35.32)"/><path class="cls-3" d="M499,339.07H454.5a23,23,0,1,1,0-46H499a23,23,0,0,1,0,46Zm0,0" transform="translate(-117 -35.32)"/></g><path class="cls-5" d="M197.24,82.46H441.75a34.72,34.72,0,0,1,34.72,34.72V361.69a34.72,34.72,0,0,1-34.72,34.72H197.24a34.72,34.72,0,0,1-34.72-34.72V117.18a34.72,34.72,0,0,1,34.72-34.72Zm0,0" transform="translate(-117 -35.32)"/><path class="cls-6" d="M197.24,82.46H319.5v314H197.24a34.72,34.72,0,0,1-34.72-34.72V117.18a34.72,34.72,0,0,1,34.72-34.72Zm0,0" transform="translate(-117 -35.32)"/><path class="cls-3" d="M278.14,173.45h82.72A24.55,24.55,0,0,1,385.41,198v82.72a24.55,24.55,0,0,1-24.55,24.54H278.14a24.54,24.54,0,0,1-24.55-24.54V198a24.54,24.54,0,0,1,24.55-24.55Zm0,0" transform="translate(-117 -35.32)"/><path class="cls-2" d="M278.14,173.45H319.5V305.26H278.14a24.54,24.54,0,0,1-24.55-24.54V198a24.54,24.54,0,0,1,24.55-24.55Zm0,0" transform="translate(-117 -35.32)"/></g><g id="Layer_2" data-name="Layer 2"><g class="cls-7"><path class="cls-8" d="M318.93,269.49a7.52,7.52,0,1,0,7.56,7.52,7.55,7.55,0,0,0-7.56-7.52ZM377.09,213a86.23,86.23,0,0,0-116.35,0,6.29,6.29,0,0,0,0,9.31,7.36,7.36,0,0,0,9.93,0c12.89-12.08,30-18,48.24-18s35.36,5.94,48.24,18a7.37,7.37,0,0,0,9.94,0,6.3,6.3,0,0,0,0-9.31Zm-58.23,3.75a60.64,60.64,0,0,0-43,17.68,7.25,7.25,0,0,0,0,10.3,7.37,7.37,0,0,0,10.38,0,45.24,45.24,0,0,1,65.22,0,7.37,7.37,0,0,0,10.38,0,7.24,7.24,0,0,0,0-10.3,60.64,60.64,0,0,0-43-17.68Zm.06,26.34a33.67,33.67,0,0,0-24.31,10.37,7.26,7.26,0,0,0,0,10,6.76,6.76,0,0,0,9.74,0,19.69,19.69,0,0,1,29.15,0,6.75,6.75,0,0,0,9.74,0,7.26,7.26,0,0,0,0-10,33.68,33.68,0,0,0-24.32-10.37Zm0,0" transform="translate(-117 -35.32)"/></g></g></svg>