<?xml version="1.0" encoding="utf-8"?>
<!-- Generator: Adobe Illustrator 21.0.0, SVG Export Plug-In . SVG Version: 6.00 Build 0)  -->
<svg version="1.1" id="Layer_1" xmlns="http://www.w3.org/2000/svg" xmlns:xlink="http://www.w3.org/1999/xlink" x="0px" y="0px"
	 viewBox="0 0 575 76.5" style="enable-background:new 0 0 575 76.5;" xml:space="preserve">
<style type="text/css">
	.st0{fill:none;}
	.st1{fill:#231F20;}
</style>
<title>dash6</title>
<line class="st0" x1="133.5" y1="7.5" x2="575" y2="7.5"/>
<rect x="133.5" class="st0" width="13.4" height="15"/>
<rect x="143.4" y="7" class="st1" width="2.5" height="1.5"/>
<rect x="138.9" y="7" class="st1" width="2.5" height="1.5"/>
<rect x="134.5" y="7" class="st1" width="2.5" height="1.5"/>
<rect x="146.9" class="st0" width="13.4" height="15"/>
<rect x="156.8" y="7" class="st1" width="2.5" height="1.5"/>
<rect x="152.3" y="7" class="st1" width="2.5" height="1.5"/>
<rect x="147.9" y="7" class="st1" width="2.5" height="1.5"/>
<rect x="160.3" class="st0" width="13.4" height="15"/>
<rect x="170.2" y="7" class="st1" width="2.5" height="1.5"/>
<rect x="165.7" y="7" class="st1" width="2.5" height="1.5"/>
<rect x="161.3" y="7" class="st1" width="2.5" height="1.5"/>
<rect x="173.6" class="st0" width="13.4" height="15"/>
<rect x="183.5" y="7" class="st1" width="2.5" height="1.5"/>
<rect x="179.1" y="7" class="st1" width="2.5" height="1.5"/>
<rect x="174.6" y="7" class="st1" width="2.5" height="1.5"/>
<rect x="187" class="st0" width="13.4" height="15"/>
<rect x="196.9" y="7" class="st1" width="2.5" height="1.5"/>
<rect x="192.5" y="7" class="st1" width="2.5" height="1.5"/>
<rect x="188" y="7" class="st1" width="2.5" height="1.5"/>
<rect x="200.4" class="st0" width="13.4" height="15"/>
<rect x="210.3" y="7" class="st1" width="2.5" height="1.5"/>
<rect x="205.9" y="7" class="st1" width="2.5" height="1.5"/>
<rect x="201.4" y="7" class="st1" width="2.5" height="1.5"/>
<rect x="213.8" class="st0" width="13.4" height="15"/>
<rect x="223.7" y="7" class="st1" width="2.5" height="1.5"/>
<rect x="219.2" y="7" class="st1" width="2.5" height="1.5"/>
<rect x="214.8" y="7" class="st1" width="2.5" height="1.5"/>
<rect x="227.1" class="st0" width="13.4" height="15"/>
<rect x="237.1" y="7" class="st1" width="2.5" height="1.5"/>
<rect x="232.6" y="7" class="st1" width="2.5" height="1.5"/>
<rect x="228.2" y="7" class="st1" width="2.5" height="1.5"/>
<rect x="240.5" class="st0" width="13.4" height="15"/>
<rect x="250.4" y="7" class="st1" width="2.5" height="1.5"/>
<rect x="246" y="7" class="st1" width="2.5" height="1.5"/>
<rect x="241.5" y="7" class="st1" width="2.5" height="1.5"/>
<rect x="253.9" class="st0" width="13.4" height="15"/>
<rect x="263.8" y="7" class="st1" width="2.5" height="1.5"/>
<rect x="259.4" y="7" class="st1" width="2.5" height="1.5"/>
<rect x="254.9" y="7" class="st1" width="2.5" height="1.5"/>
<rect x="267.3" class="st0" width="13.4" height="15"/>
<rect x="277.2" y="7" class="st1" width="2.5" height="1.5"/>
<rect x="272.7" y="7" class="st1" width="2.5" height="1.5"/>
<rect x="268.3" y="7" class="st1" width="2.5" height="1.5"/>
<rect x="280.7" class="st0" width="13.4" height="15"/>
<rect x="290.6" y="7" class="st1" width="2.5" height="1.5"/>
<rect x="286.1" y="7" class="st1" width="2.5" height="1.5"/>
<rect x="281.7" y="7" class="st1" width="2.5" height="1.5"/>
<rect x="294" class="st0" width="13.4" height="15"/>
<rect x="304" y="7" class="st1" width="2.5" height="1.5"/>
<rect x="299.5" y="7" class="st1" width="2.5" height="1.5"/>
<rect x="295.1" y="7" class="st1" width="2.5" height="1.5"/>
<rect x="307.4" class="st0" width="13.4" height="15"/>
<rect x="317.3" y="7" class="st1" width="2.5" height="1.5"/>
<rect x="312.9" y="7" class="st1" width="2.5" height="1.5"/>
<rect x="308.4" y="7" class="st1" width="2.5" height="1.5"/>
<rect x="320.8" class="st0" width="13.4" height="15"/>
<rect x="330.7" y="7" class="st1" width="2.5" height="1.5"/>
<rect x="326.3" y="7" class="st1" width="2.5" height="1.5"/>
<rect x="321.8" y="7" class="st1" width="2.5" height="1.5"/>
<rect x="334.2" class="st0" width="13.4" height="15"/>
<rect x="344.1" y="7" class="st1" width="2.5" height="1.5"/>
<rect x="339.6" y="7" class="st1" width="2.5" height="1.5"/>
<rect x="335.2" y="7" class="st1" width="2.5" height="1.5"/>
<rect x="347.6" class="st0" width="13.4" height="15"/>
<rect x="357.5" y="7" class="st1" width="2.5" height="1.5"/>
<rect x="353" y="7" class="st1" width="2.5" height="1.5"/>
<rect x="348.6" y="7" class="st1" width="2.5" height="1.5"/>
<rect x="360.9" class="st0" width="13.4" height="15"/>
<rect x="370.9" y="7" class="st1" width="2.5" height="1.5"/>
<rect x="366.4" y="7" class="st1" width="2.5" height="1.5"/>
<rect x="362" y="7" class="st1" width="2.5" height="1.5"/>
<rect x="374.3" class="st0" width="13.4" height="15"/>
<rect x="384.2" y="7" class="st1" width="2.5" height="1.5"/>
<rect x="379.8" y="7" class="st1" width="2.5" height="1.5"/>
<rect x="375.3" y="7" class="st1" width="2.5" height="1.5"/>
<rect x="387.7" class="st0" width="13.4" height="15"/>
<rect x="397.6" y="7" class="st1" width="2.5" height="1.5"/>
<rect x="393.1" y="7" class="st1" width="2.5" height="1.5"/>
<rect x="388.7" y="7" class="st1" width="2.5" height="1.5"/>
<rect x="401.1" class="st0" width="13.4" height="15"/>
<rect x="411" y="7" class="st1" width="2.5" height="1.5"/>
<rect x="406.5" y="7" class="st1" width="2.5" height="1.5"/>
<rect x="402.1" y="7" class="st1" width="2.5" height="1.5"/>
<rect x="414.5" class="st0" width="13.4" height="15"/>
<rect x="424.4" y="7" class="st1" width="2.5" height="1.5"/>
<rect x="419.9" y="7" class="st1" width="2.5" height="1.5"/>
<rect x="415.5" y="7" class="st1" width="2.5" height="1.5"/>
<rect x="427.8" class="st0" width="13.4" height="15"/>
<rect x="437.7" y="7" class="st1" width="2.5" height="1.5"/>
<rect x="433.3" y="7" class="st1" width="2.5" height="1.5"/>
<rect x="428.9" y="7" class="st1" width="2.5" height="1.5"/>
<rect x="441.2" class="st0" width="13.4" height="15"/>
<rect x="451.1" y="7" class="st1" width="2.5" height="1.5"/>
<rect x="446.7" y="7" class="st1" width="2.5" height="1.5"/>
<rect x="442.2" y="7" class="st1" width="2.5" height="1.5"/>
<rect x="454.6" class="st0" width="13.4" height="15"/>
<rect x="464.5" y="7" class="st1" width="2.5" height="1.5"/>
<rect x="460" y="7" class="st1" width="2.5" height="1.5"/>
<rect x="455.6" y="7" class="st1" width="2.5" height="1.5"/>
<rect x="468" class="st0" width="13.4" height="15"/>
<rect x="477.9" y="7" class="st1" width="2.5" height="1.5"/>
<rect x="473.4" y="7" class="st1" width="2.5" height="1.5"/>
<rect x="469" y="7" class="st1" width="2.5" height="1.5"/>
<rect x="481.4" class="st0" width="13.4" height="15"/>
<rect x="491.3" y="7" class="st1" width="2.5" height="1.5"/>
<rect x="486.8" y="7" class="st1" width="2.5" height="1.5"/>
<rect x="482.4" y="7" class="st1" width="2.5" height="1.5"/>
<rect x="494.7" class="st0" width="13.4" height="15"/>
<rect x="504.6" y="7" class="st1" width="2.5" height="1.5"/>
<rect x="500.2" y="7" class="st1" width="2.5" height="1.5"/>
<rect x="495.7" y="7" class="st1" width="2.5" height="1.5"/>
<rect x="508.1" class="st0" width="13.4" height="15"/>
<rect x="518" y="7" class="st1" width="2.5" height="1.5"/>
<rect x="513.6" y="7" class="st1" width="2.5" height="1.5"/>
<rect x="509.1" y="7" class="st1" width="2.5" height="1.5"/>
<rect x="521.5" class="st0" width="13.4" height="15"/>
<rect x="531.4" y="7" class="st1" width="2.5" height="1.5"/>
<rect x="526.9" y="7" class="st1" width="2.5" height="1.5"/>
<rect x="522.5" y="7" class="st1" width="2.5" height="1.5"/>
<rect x="534.9" class="st0" width="13.4" height="15"/>
<rect x="544.8" y="7" class="st1" width="2.5" height="1.5"/>
<rect x="540.3" y="7" class="st1" width="2.5" height="1.5"/>
<rect x="535.9" y="7" class="st1" width="2.5" height="1.5"/>
<rect x="548.2" class="st0" width="13.4" height="15"/>
<rect x="558.2" y="7" class="st1" width="2.5" height="1.5"/>
<rect x="553.7" y="7" class="st1" width="2.5" height="1.5"/>
<rect x="549.3" y="7" class="st1" width="2.5" height="1.5"/>
<rect x="561.6" class="st0" width="13.4" height="15"/>
<rect x="571.5" y="7" class="st1" width="2.5" height="1.5"/>
<rect x="567.1" y="7" class="st1" width="2.5" height="1.5"/>
<rect x="562.6" y="7" class="st1" width="2.5" height="1.5"/>
<rect x="124.5" y="9" class="st0" width="15" height="15"/>
<rect x="131" y="20.1" class="st1" width="1.5" height="2.8"/>
<rect x="131" y="15.1" class="st1" width="1.5" height="2.8"/>
<rect x="131" y="10.1" class="st1" width="1.5" height="2.8"/>
<rect x="124.5" y="24" class="st0" width="15" height="15"/>
<rect x="131" y="35.1" class="st1" width="1.5" height="2.8"/>
<rect x="131" y="30.1" class="st1" width="1.5" height="2.8"/>
<rect x="131" y="25.1" class="st1" width="1.5" height="2.8"/>
<rect x="124.5" y="39" class="st0" width="15" height="15"/>
<rect x="131" y="50.1" class="st1" width="1.5" height="2.8"/>
<rect x="131" y="45.1" class="st1" width="1.5" height="2.8"/>
<rect x="131" y="40.1" class="st1" width="1.5" height="2.8"/>
<rect x="124.5" y="54" class="st0" width="15" height="15"/>
<rect x="131" y="65.1" class="st1" width="1.5" height="2.8"/>
<rect x="131" y="60.1" class="st1" width="1.5" height="2.8"/>
<rect x="131" y="55.1" class="st1" width="1.5" height="2.8"/>
<path class="st0" d="M39.4,61.5c0.4,5,0.7,10.1,0.3,15H52v-15H39.4z"/>
<rect x="48.6" y="68.5" class="st1" width="2.4" height="1.5"/>
<rect x="44.3" y="68.5" class="st1" width="2.4" height="1.5"/>
<rect x="40" y="68.5" class="st1" width="2.4" height="1.5"/>
<rect x="52" y="61.5" class="st0" width="13" height="15"/>
<rect x="61.6" y="68.5" class="st1" width="2.4" height="1.5"/>
<rect x="57.3" y="68.5" class="st1" width="2.4" height="1.5"/>
<rect x="53" y="68.5" class="st1" width="2.4" height="1.5"/>
<rect x="65" y="61.5" class="st0" width="13" height="15"/>
<rect x="74.6" y="68.5" class="st1" width="2.4" height="1.5"/>
<rect x="70.3" y="68.5" class="st1" width="2.4" height="1.5"/>
<rect x="66" y="68.5" class="st1" width="2.4" height="1.5"/>
<rect x="78" y="61.5" class="st0" width="13" height="15"/>
<rect x="87.6" y="68.5" class="st1" width="2.4" height="1.5"/>
<rect x="83.3" y="68.5" class="st1" width="2.4" height="1.5"/>
<rect x="79" y="68.5" class="st1" width="2.4" height="1.5"/>
<rect x="91" y="61.5" class="st0" width="13" height="15"/>
<rect x="100.6" y="68.5" class="st1" width="2.4" height="1.5"/>
<rect x="96.3" y="68.5" class="st1" width="2.4" height="1.5"/>
<rect x="92" y="68.5" class="st1" width="2.4" height="1.5"/>
<rect x="104" y="61.5" class="st0" width="13" height="15"/>
<rect x="113.6" y="68.5" class="st1" width="2.4" height="1.5"/>
<rect x="109.3" y="68.5" class="st1" width="2.4" height="1.5"/>
<rect x="105" y="68.5" class="st1" width="2.4" height="1.5"/>
<rect x="117" y="61.5" class="st0" width="13" height="15"/>
<rect x="126.6" y="68.5" class="st1" width="2.4" height="1.5"/>
<rect x="122.3" y="68.5" class="st1" width="2.4" height="1.5"/>
<rect x="118" y="68.5" class="st1" width="2.4" height="1.5"/>
</svg>
