<?xml version="1.0" encoding="utf-8"?>
<!-- Generator: Adobe Illustrator 21.0.0, SVG Export Plug-In . SVG Version: 6.00 Build 0)  -->
<svg version="1.1" id="Layer_1" xmlns="http://www.w3.org/2000/svg" xmlns:xlink="http://www.w3.org/1999/xlink" x="0px" y="0px"
	 viewBox="0 0 502 75.5" style="enable-background:new 0 0 502 75.5;" xml:space="preserve">
<style type="text/css">
	.st0{fill:none;}
	.st1{fill:#231F20;}
</style>
<title>dash4</title>
<line class="st0" x1="0" y1="7.5" x2="441.5" y2="7.5"/>
<rect class="st0" width="13.4" height="15"/>
<rect x="9.9" y="7" class="st1" width="2.5" height="1.5"/>
<rect x="5.4" y="7" class="st1" width="2.5" height="1.5"/>
<rect x="1" y="7" class="st1" width="2.5" height="1.5"/>
<rect x="13.4" class="st0" width="13.4" height="15"/>
<rect x="23.3" y="7" class="st1" width="2.5" height="1.5"/>
<rect x="18.8" y="7" class="st1" width="2.5" height="1.5"/>
<rect x="14.4" y="7" class="st1" width="2.5" height="1.5"/>
<rect x="26.8" class="st0" width="13.4" height="15"/>
<rect x="36.7" y="7" class="st1" width="2.5" height="1.5"/>
<rect x="32.2" y="7" class="st1" width="2.5" height="1.5"/>
<rect x="27.8" y="7" class="st1" width="2.5" height="1.5"/>
<rect x="40.1" class="st0" width="13.4" height="15"/>
<rect x="50" y="7" class="st1" width="2.5" height="1.5"/>
<rect x="45.6" y="7" class="st1" width="2.5" height="1.5"/>
<rect x="41.2" y="7" class="st1" width="2.5" height="1.5"/>
<rect x="53.5" class="st0" width="13.4" height="15"/>
<rect x="63.4" y="7" class="st1" width="2.5" height="1.5"/>
<rect x="59" y="7" class="st1" width="2.5" height="1.5"/>
<rect x="54.5" y="7" class="st1" width="2.5" height="1.5"/>
<rect x="66.9" class="st0" width="13.4" height="15"/>
<rect x="76.8" y="7" class="st1" width="2.5" height="1.5"/>
<rect x="72.3" y="7" class="st1" width="2.5" height="1.5"/>
<rect x="67.9" y="7" class="st1" width="2.5" height="1.5"/>
<rect x="80.3" class="st0" width="13.4" height="15"/>
<rect x="90.2" y="7" class="st1" width="2.5" height="1.5"/>
<rect x="85.7" y="7" class="st1" width="2.5" height="1.5"/>
<rect x="81.3" y="7" class="st1" width="2.5" height="1.5"/>
<rect x="93.7" class="st0" width="13.4" height="15"/>
<rect x="103.6" y="7" class="st1" width="2.5" height="1.5"/>
<rect x="99.1" y="7" class="st1" width="2.5" height="1.5"/>
<rect x="94.7" y="7" class="st1" width="2.5" height="1.5"/>
<rect x="107" class="st0" width="13.4" height="15"/>
<rect x="116.9" y="7" class="st1" width="2.5" height="1.5"/>
<rect x="112.5" y="7" class="st1" width="2.5" height="1.5"/>
<rect x="108" y="7" class="st1" width="2.5" height="1.5"/>
<rect x="120.4" class="st0" width="13.4" height="15"/>
<rect x="130.3" y="7" class="st1" width="2.5" height="1.5"/>
<rect x="125.9" y="7" class="st1" width="2.5" height="1.5"/>
<rect x="121.4" y="7" class="st1" width="2.5" height="1.5"/>
<rect x="133.8" class="st0" width="13.4" height="15"/>
<rect x="143.7" y="7" class="st1" width="2.5" height="1.5"/>
<rect x="139.2" y="7" class="st1" width="2.5" height="1.5"/>
<rect x="134.8" y="7" class="st1" width="2.5" height="1.5"/>
<rect x="147.2" class="st0" width="13.4" height="15"/>
<rect x="157.1" y="7" class="st1" width="2.5" height="1.5"/>
<rect x="152.6" y="7" class="st1" width="2.5" height="1.5"/>
<rect x="148.2" y="7" class="st1" width="2.5" height="1.5"/>
<rect x="160.6" class="st0" width="13.4" height="15"/>
<rect x="170.4" y="7" class="st1" width="2.5" height="1.5"/>
<rect x="166" y="7" class="st1" width="2.5" height="1.5"/>
<rect x="161.6" y="7" class="st1" width="2.5" height="1.5"/>
<rect x="173.9" class="st0" width="13.4" height="15"/>
<rect x="183.8" y="7" class="st1" width="2.5" height="1.5"/>
<rect x="179.4" y="7" class="st1" width="2.5" height="1.5"/>
<rect x="174.9" y="7" class="st1" width="2.5" height="1.5"/>
<rect x="187.3" class="st0" width="13.4" height="15"/>
<rect x="197.2" y="7" class="st1" width="2.5" height="1.5"/>
<rect x="192.8" y="7" class="st1" width="2.5" height="1.5"/>
<rect x="188.3" y="7" class="st1" width="2.5" height="1.5"/>
<rect x="200.7" class="st0" width="13.4" height="15"/>
<rect x="210.6" y="7" class="st1" width="2.5" height="1.5"/>
<rect x="206.1" y="7" class="st1" width="2.5" height="1.5"/>
<rect x="201.7" y="7" class="st1" width="2.5" height="1.5"/>
<rect x="214.1" class="st0" width="13.4" height="15"/>
<rect x="224" y="7" class="st1" width="2.5" height="1.5"/>
<rect x="219.5" y="7" class="st1" width="2.5" height="1.5"/>
<rect x="215.1" y="7" class="st1" width="2.5" height="1.5"/>
<rect x="227.4" class="st0" width="13.4" height="15"/>
<rect x="237.4" y="7" class="st1" width="2.5" height="1.5"/>
<rect x="232.9" y="7" class="st1" width="2.5" height="1.5"/>
<rect x="228.4" y="7" class="st1" width="2.5" height="1.5"/>
<rect x="240.8" class="st0" width="13.4" height="15"/>
<rect x="250.7" y="7" class="st1" width="2.5" height="1.5"/>
<rect x="246.3" y="7" class="st1" width="2.5" height="1.5"/>
<rect x="241.8" y="7" class="st1" width="2.5" height="1.5"/>
<rect x="254.2" class="st0" width="13.4" height="15"/>
<rect x="264.1" y="7" class="st1" width="2.5" height="1.5"/>
<rect x="259.6" y="7" class="st1" width="2.5" height="1.5"/>
<rect x="255.2" y="7" class="st1" width="2.5" height="1.5"/>
<rect x="267.6" class="st0" width="13.4" height="15"/>
<rect x="277.5" y="7" class="st1" width="2.5" height="1.5"/>
<rect x="273" y="7" class="st1" width="2.5" height="1.5"/>
<rect x="268.6" y="7" class="st1" width="2.5" height="1.5"/>
<rect x="281" class="st0" width="13.4" height="15"/>
<rect x="290.9" y="7" class="st1" width="2.5" height="1.5"/>
<rect x="286.4" y="7" class="st1" width="2.5" height="1.5"/>
<rect x="282" y="7" class="st1" width="2.5" height="1.5"/>
<rect x="294.3" class="st0" width="13.4" height="15"/>
<rect x="304.2" y="7" class="st1" width="2.5" height="1.5"/>
<rect x="299.8" y="7" class="st1" width="2.5" height="1.5"/>
<rect x="295.4" y="7" class="st1" width="2.5" height="1.5"/>
<rect x="307.7" class="st0" width="13.4" height="15"/>
<rect x="317.6" y="7" class="st1" width="2.5" height="1.5"/>
<rect x="313.2" y="7" class="st1" width="2.5" height="1.5"/>
<rect x="308.7" y="7" class="st1" width="2.5" height="1.5"/>
<rect x="321.1" class="st0" width="13.4" height="15"/>
<rect x="331" y="7" class="st1" width="2.5" height="1.5"/>
<rect x="326.5" y="7" class="st1" width="2.5" height="1.5"/>
<rect x="322.1" y="7" class="st1" width="2.5" height="1.5"/>
<rect x="334.5" class="st0" width="13.4" height="15"/>
<rect x="344.4" y="7" class="st1" width="2.5" height="1.5"/>
<rect x="339.9" y="7" class="st1" width="2.5" height="1.5"/>
<rect x="335.5" y="7" class="st1" width="2.5" height="1.5"/>
<rect x="347.9" class="st0" width="13.4" height="15"/>
<rect x="357.8" y="7" class="st1" width="2.5" height="1.5"/>
<rect x="353.3" y="7" class="st1" width="2.5" height="1.5"/>
<rect x="348.9" y="7" class="st1" width="2.5" height="1.5"/>
<rect x="361.2" class="st0" width="13.4" height="15"/>
<rect x="371.1" y="7" class="st1" width="2.5" height="1.5"/>
<rect x="366.7" y="7" class="st1" width="2.5" height="1.5"/>
<rect x="362.2" y="7" class="st1" width="2.5" height="1.5"/>
<rect x="374.6" class="st0" width="13.4" height="15"/>
<rect x="384.5" y="7" class="st1" width="2.5" height="1.5"/>
<rect x="380.1" y="7" class="st1" width="2.5" height="1.5"/>
<rect x="375.6" y="7" class="st1" width="2.5" height="1.5"/>
<rect x="388" class="st0" width="13.4" height="15"/>
<rect x="397.9" y="7" class="st1" width="2.5" height="1.5"/>
<rect x="393.4" y="7" class="st1" width="2.5" height="1.5"/>
<rect x="389" y="7" class="st1" width="2.5" height="1.5"/>
<rect x="401.4" class="st0" width="13.4" height="15"/>
<rect x="411.3" y="7" class="st1" width="2.5" height="1.5"/>
<rect x="406.8" y="7" class="st1" width="2.5" height="1.5"/>
<rect x="402.4" y="7" class="st1" width="2.5" height="1.5"/>
<rect x="414.7" class="st0" width="13.4" height="15"/>
<rect x="424.6" y="7" class="st1" width="2.5" height="1.5"/>
<rect x="420.2" y="7" class="st1" width="2.5" height="1.5"/>
<rect x="415.8" y="7" class="st1" width="2.5" height="1.5"/>
<rect x="428.1" class="st0" width="13.4" height="15"/>
<rect x="438" y="7" class="st1" width="2.5" height="1.5"/>
<rect x="433.6" y="7" class="st1" width="2.5" height="1.5"/>
<rect x="429.1" y="7" class="st1" width="2.5" height="1.5"/>
<rect x="435" y="8" class="st0" width="15" height="15"/>
<rect x="441.5" y="19.1" class="st1" width="1.5" height="2.8"/>
<rect x="441.5" y="14.1" class="st1" width="1.5" height="2.8"/>
<rect x="441.5" y="9.1" class="st1" width="1.5" height="2.8"/>
<rect x="435" y="23" class="st0" width="15" height="15"/>
<rect x="441.5" y="34.1" class="st1" width="1.5" height="2.8"/>
<rect x="441.5" y="29.1" class="st1" width="1.5" height="2.8"/>
<rect x="441.5" y="24.1" class="st1" width="1.5" height="2.8"/>
<rect x="435" y="38" class="st0" width="15" height="15"/>
<rect x="441.5" y="49.1" class="st1" width="1.5" height="2.8"/>
<rect x="441.5" y="44.1" class="st1" width="1.5" height="2.8"/>
<rect x="441.5" y="39.1" class="st1" width="1.5" height="2.8"/>
<rect x="435" y="53" class="st0" width="15" height="15"/>
<rect x="441.5" y="64.1" class="st1" width="1.5" height="2.8"/>
<rect x="441.5" y="59.1" class="st1" width="1.5" height="2.8"/>
<rect x="441.5" y="54.1" class="st1" width="1.5" height="2.8"/>
<rect x="443.5" y="60.5" class="st0" width="13" height="15"/>
<rect x="453.1" y="67.5" class="st1" width="2.4" height="1.5"/>
<rect x="448.8" y="67.5" class="st1" width="2.4" height="1.5"/>
<rect x="444.5" y="67.5" class="st1" width="2.4" height="1.5"/>
<rect x="456.5" y="60.5" class="st0" width="13" height="15"/>
<rect x="466.1" y="67.5" class="st1" width="2.4" height="1.5"/>
<rect x="461.8" y="67.5" class="st1" width="2.4" height="1.5"/>
<rect x="457.5" y="67.5" class="st1" width="2.4" height="1.5"/>
<rect x="469.5" y="60.5" class="st0" width="13" height="15"/>
<rect x="479.1" y="67.5" class="st1" width="2.4" height="1.5"/>
<rect x="474.8" y="67.5" class="st1" width="2.4" height="1.5"/>
<rect x="470.5" y="67.5" class="st1" width="2.4" height="1.5"/>
<rect x="482.5" y="60.5" class="st0" width="13" height="15"/>
<rect x="492.1" y="67.5" class="st1" width="2.4" height="1.5"/>
<rect x="487.8" y="67.5" class="st1" width="2.4" height="1.5"/>
<rect x="483.5" y="67.5" class="st1" width="2.4" height="1.5"/>
<path class="st0" d="M498.3,61c0-0.2,0-0.3,0-0.5h-2.9v15h3.1C497.9,70.7,498.3,65.8,498.3,61z"/>
</svg>
