<svg xmlns="http://www.w3.org/2000/svg" viewBox="0 0 179.58 111.53"><defs><style>.cls-1{fill:#fff;}</style></defs><title>logo_comfortaa_bold</title><g id="Layer_1" data-name="Layer 1"><path class="cls-1" d="M322.44,211a5.56,5.56,0,0,0-4.89,8.22l-9.11,9.11a7.38,7.38,0,0,0-9.08,0l-7.11-7.11a3.63,3.63,0,0,0,.53-1.87,3.71,3.71,0,1,0-3.71,3.71,3.66,3.66,0,0,0,1.88-.53l7.11,7.11a7.37,7.37,0,0,0,0,9.08L286.3,250.47a5.51,5.51,0,1,0,1.16,1.46L299.35,240a7.34,7.34,0,0,0,3.62,1.5V251a5.56,5.56,0,1,0,1.85,0v-9.42a7.34,7.34,0,0,0,3.62-1.5l7.11,7.11A3.67,3.67,0,0,0,315,249a3.71,3.71,0,1,0,3.71-3.71,3.63,3.63,0,0,0-1.87.53l-7.11-7.11a7.36,7.36,0,0,0,0-9.08l9-9a5.56,5.56,0,1,0,3.73-9.68Zm0,0" transform="translate(-212.35 -211)"/></g><g id="Layer_2" data-name="Layer 2"><path class="cls-1" d="M224.38,316.25q0-.35-.72-.42-8.89-2-9.49-2.53a4.12,4.12,0,0,1-1.81-3.39q0-2.74,3.83-5.2a8.91,8.91,0,0,1,4.17-1.11A8.6,8.6,0,0,1,228,308l.07.65v.11q0,1.49-1.79,1.76-1.2,0-2.21-1.69a5.11,5.11,0,0,0-3.67-1.56,4.73,4.73,0,0,0-4.24,2.53l0,.18q0,.35,1.51.47,7.56,1.83,8.35,2.13a4.21,4.21,0,0,1,2.16,3.6v.05q0,3-4.25,5.43a9.4,9.4,0,0,1-3.88.83,8.6,8.6,0,0,1-7.12-3.94,1.79,1.79,0,0,1-.37-1v-.39q0-1.42,1.93-1.63.93,0,2.2,1.81a5.14,5.14,0,0,0,3.62,1.44,4.83,4.83,0,0,0,4.08-2.3Z" transform="translate(-212.35 -211)"/><path class="cls-1" d="M238.49,303.46q5.5,0,8.54,5.22a9.6,9.6,0,0,1,1.05,4.45v.39q-.32,1.79-1.78,1.79H233.15a5.33,5.33,0,0,0,2.87,3,7.35,7.35,0,0,0,2.6.53,7.84,7.84,0,0,0,3.38-1h.56q1.65.32,1.65,1.72v.19q0,2.07-5.22,2.76h-.49q-5.13,0-8.23-4.8A9.71,9.71,0,0,1,229,313q0-5.24,4.94-8.33A10.24,10.24,0,0,1,238.49,303.46Zm-5.66,8.23h11.51a6.51,6.51,0,0,0-1.46-2.62A5.74,5.74,0,0,0,239,307.2h-.72a5.52,5.52,0,0,0-4.75,2.85A5.41,5.41,0,0,0,232.83,311.68Z" transform="translate(-212.35 -211)"/><path class="cls-1" d="M252.2,303.49q1.71.44,1.71,1.65v.26a8.15,8.15,0,0,1,5.7-1.92,9.29,9.29,0,0,1,7,3.27,9.07,9.07,0,0,1,2.21,5.78v8.35q0,1.3-1.72,1.63h-.18q-1.72-.32-1.72-1.78V313.4q0-4.57-3.88-6a6.82,6.82,0,0,0-1.69-.25h-.19q-3.25,0-5,3.39a8.86,8.86,0,0,0-.46,3.38v6.89q0,1.41-1.72,1.71h-.12q-1.44,0-1.78-1.79V305.49Q250.5,303.49,252.2,303.49Z" transform="translate(-212.35 -211)"/><path class="cls-1" d="M282.33,316.25q0-.35-.72-.42-8.89-2-9.49-2.53a4.12,4.12,0,0,1-1.81-3.39q0-2.74,3.83-5.2a8.91,8.91,0,0,1,4.17-1.11,8.6,8.6,0,0,1,7.61,4.45l.07.65v.11q0,1.49-1.79,1.76-1.2,0-2.21-1.69a5.11,5.11,0,0,0-3.67-1.56,4.73,4.73,0,0,0-4.24,2.53l0,.18q0,.35,1.51.47,7.56,1.83,8.35,2.13a4.21,4.21,0,0,1,2.16,3.6v.05q0,3-4.25,5.43a9.4,9.4,0,0,1-3.88.83,8.6,8.6,0,0,1-7.12-3.94,1.79,1.79,0,0,1-.37-1v-.39q0-1.42,1.93-1.63.93,0,2.2,1.81a5.14,5.14,0,0,0,3.62,1.44,4.83,4.83,0,0,0,4.08-2.3Z" transform="translate(-212.35 -211)"/><path class="cls-1" d="M296.45,303.58a9.57,9.57,0,0,1,9.47,9.47q0,5.33-5,8.37a9.43,9.43,0,0,1-4.25,1.11h-.53q-3.83,0-7.12-3.59a10,10,0,0,1-2-5.89,9.39,9.39,0,0,1,4.08-7.73A9.58,9.58,0,0,1,296.45,303.58Zm-5.8,9.28v.32a5.62,5.62,0,0,0,3.18,5.1,5.22,5.22,0,0,0,2.43.58h.39q3.39,0,5.2-3.53a6.14,6.14,0,0,0,.4-2.14v-.32a5.59,5.59,0,0,0-2.51-4.61,5.79,5.79,0,0,0-3.36-1q-3.71,0-5.45,3.9A5.82,5.82,0,0,0,290.64,312.86Z" transform="translate(-212.35 -211)"/><path class="cls-1" d="M310.16,303.35q1.72.44,1.72,1.65v.28a8.24,8.24,0,0,1,5.68-1.93,10.35,10.35,0,0,1,4.08.95,2.21,2.21,0,0,1,.76,1.49v.12q-.3,1.72-1.78,1.72h-.16a9.9,9.9,0,0,0-2.64-.58h-.39q-3.55,0-5.2,3.69a6.57,6.57,0,0,0-.35,2.25v7.8q0,1.42-1.76,1.72H310q-1.44,0-1.78-1.79V305.37Q308.45,303.35,310.16,303.35Z" transform="translate(-212.35 -211)"/><path class="cls-1" d="M334.19,296.34h.32q1.67.35,1.67,1.58v7a7.26,7.26,0,0,1,4.92-1.58q4.71,0,7.54,4.45a8,8,0,0,1,1.07,3.78v9.28q0,1.42-1.76,1.72h-.09q-1.35,0-1.79-1.65v-9q0-3.23-3.36-4.68a5.8,5.8,0,0,0-1.62-.23q-3.32,0-4.69,3.57a10.16,10.16,0,0,0-.23,2.6v7.63q0,1.42-1.76,1.72h-.09q-1.35,0-1.79-1.65V298.06Q332.9,296.34,334.19,296.34Z" transform="translate(-212.35 -211)"/><path class="cls-1" d="M367.21,320.59a8.68,8.68,0,0,1-5.47,1.93h-.46q-4.36,0-7.56-4.25a10.21,10.21,0,0,1-1.48-5.62v-7.22q.21-2,1.92-2,1.71.44,1.71,1.65v7q0,4.22,2.34,5.63a5.36,5.36,0,0,0,3.34,1.16q3.5,0,5.29-3.62a7.89,7.89,0,0,0,.37-2.37v-7.7q.35-1.79,1.9-1.79,1.72.39,1.72,1.78v15.68q0,1.32-1.72,1.65h-.18q-1.72-.32-1.72-1.78Z" transform="translate(-212.35 -211)"/><path class="cls-1" d="M374.35,296.3h.3q1.67.37,1.67,1.67v7.38a8.3,8.3,0,0,1,6-2.07,9.72,9.72,0,0,1,9.62,9.62q0,5.41-5.12,8.51a9.56,9.56,0,0,1-4.31,1.13H382q-3.9,0-7.24-3.64a10.45,10.45,0,0,1-2.06-6.45V298Q372.68,296.67,374.35,296.3Zm2,16.4V313q0,3.73,3.92,5.55a6.67,6.67,0,0,0,1.86.3h.4q3.62,0,5.48-3.9a8,8,0,0,0,.3-1.81v-.4q0-3.71-4-5.55a8.47,8.47,0,0,0-1.88-.3h-.26q-3.62,0-5.48,3.85A6,6,0,0,0,376.32,312.7Z" transform="translate(-212.35 -211)"/></g></svg>