<svg xmlns="http://www.w3.org/2000/svg" viewBox="0 0 181.11 111"><defs><style>.cls-1{fill:#fff;}</style></defs><title>logo_comfortaa_regular</title><g id="Layer_1" data-name="Layer 1"><path class="cls-1" d="M322.44,211a5.56,5.56,0,0,0-4.89,8.22l-9.11,9.11a7.38,7.38,0,0,0-9.08,0l-7.11-7.11a3.63,3.63,0,0,0,.53-1.87,3.71,3.71,0,1,0-3.71,3.71,3.66,3.66,0,0,0,1.88-.53l7.11,7.11a7.37,7.37,0,0,0,0,9.08L286.3,250.47a5.51,5.51,0,1,0,1.16,1.46L299.35,240a7.34,7.34,0,0,0,3.62,1.5V251a5.56,5.56,0,1,0,1.85,0v-9.42a7.34,7.34,0,0,0,3.62-1.5l7.11,7.11A3.67,3.67,0,0,0,315,249a3.71,3.71,0,1,0,3.71-3.71,3.63,3.63,0,0,0-1.87.53l-7.11-7.11a7.36,7.36,0,0,0,0-9.08l9-9a5.56,5.56,0,1,0,3.73-9.68Zm0,0" transform="translate(-212.35 -211)"/></g><g id="Layer_2" data-name="Layer 2"><path class="cls-1" d="M219.82,304.12a8,8,0,0,1,7.1,4.1l.05.51v.07q0,1-1.3,1.23-.86,0-1.76-1.49a5.73,5.73,0,0,0-4.1-1.76,5.33,5.33,0,0,0-4.75,2.87L215,310q0,.86,2,1,7.49,1.81,8.19,2.07a3.64,3.64,0,0,1,1.88,3.13v.05q0,2.71-4,5a8.71,8.71,0,0,1-3.64.77,8.11,8.11,0,0,1-6.7-3.71,1.3,1.3,0,0,1-.26-.72v-.39q0-.95,1.44-1.11.62,0,1.76,1.63a5.74,5.74,0,0,0,4,1.62,5.38,5.38,0,0,0,4.55-2.6l.12-.39v-.07q0-.84-1.16-1-8.74-2-9.25-2.41a3.65,3.65,0,0,1-1.62-3q0-2.46,3.57-4.75A8.32,8.32,0,0,1,219.82,304.12Z" transform="translate(-212.35 -211)"/><path class="cls-1" d="M238.56,304q5.2,0,8.09,4.94a9.13,9.13,0,0,1,1,4.2v.33q-.23,1.32-1.25,1.32H232.51a6.55,6.55,0,0,0,3.34,4,6.91,6.91,0,0,0,6.33-.4h.39q1.18.23,1.18,1.2v.19q0,1.62-4.73,2.23h-.46a8.88,8.88,0,0,1-7.77-4.54,9.19,9.19,0,0,1-1.18-4.48q0-4.94,4.68-7.87A9.65,9.65,0,0,1,238.56,304Zm-6.26,8.23h12.64a6.54,6.54,0,0,0-1.58-3.5,6.34,6.34,0,0,0-4.27-2h-.72a6.06,6.06,0,0,0-5.2,3.09A6.66,6.66,0,0,0,232.3,312.21Z" transform="translate(-212.35 -211)"/><path class="cls-1" d="M252.2,304q1.25.32,1.25,1.13v1.44a9.11,9.11,0,0,1,6.22-2.57,8.74,8.74,0,0,1,6.57,3.09,8.52,8.52,0,0,1,2.09,5.43v8.35q0,.86-1.25,1.11H267q-1.25-.23-1.25-1.25V313.4q0-4.94-4.25-6.5a7.59,7.59,0,0,0-1.85-.26h-.19q-3.57,0-5.52,3.69a9.34,9.34,0,0,0-.51,3.6v6.89q0,1-1.25,1.18h-.07q-1,0-1.25-1.32V305.53Q251,304,252.2,304Z" transform="translate(-212.35 -211)"/><path class="cls-1" d="M278.38,304.12a8,8,0,0,1,7.1,4.1l.05.51v.07q0,1-1.3,1.23-.86,0-1.76-1.49a5.73,5.73,0,0,0-4.1-1.76,5.33,5.33,0,0,0-4.75,2.87l-.05.33q0,.86,2,1,7.49,1.81,8.19,2.07a3.64,3.64,0,0,1,1.88,3.13v.05q0,2.71-4,5A8.71,8.71,0,0,1,278,322a8.11,8.11,0,0,1-6.7-3.71,1.3,1.3,0,0,1-.26-.72v-.39q0-.95,1.44-1.11.62,0,1.76,1.63a5.74,5.74,0,0,0,4,1.62,5.38,5.38,0,0,0,4.55-2.6l.12-.39v-.07q0-.84-1.16-1-8.74-2-9.25-2.41a3.65,3.65,0,0,1-1.62-3q0-2.46,3.57-4.75A8.32,8.32,0,0,1,278.38,304.12Z" transform="translate(-212.35 -211)"/><path class="cls-1" d="M297.18,304.11a9,9,0,0,1,8.95,8.95q0,5-4.76,7.91a8.84,8.84,0,0,1-4,1h-.53q-3.6,0-6.71-3.39a9.52,9.52,0,0,1-1.9-5.55,8.91,8.91,0,0,1,3.85-7.31A9.09,9.09,0,0,1,297.18,304.11Zm-6.33,8.75v.32a6.11,6.11,0,0,0,3.46,5.55,5.7,5.7,0,0,0,2.67.65h.39q3.71,0,5.68-3.85a6.66,6.66,0,0,0,.46-2.36v-.32a6.08,6.08,0,0,0-2.74-5,6.27,6.27,0,0,0-3.66-1.11q-4.06,0-5.94,4.24A6.55,6.55,0,0,0,290.86,312.86Z" transform="translate(-212.35 -211)"/><path class="cls-1" d="M311.19,303.88q1.27.32,1.27,1.13v1.46a9.19,9.19,0,0,1,6.21-2.58,9.59,9.59,0,0,1,3.78.86,1.56,1.56,0,0,1,.53,1.05v.07q-.21,1.25-1.25,1.25h-.07a9.92,9.92,0,0,0-2.72-.58h-.39q-3.88,0-5.7,4a7.18,7.18,0,0,0-.39,2.44v7.8q0,1-1.27,1.2h-.07q-1,0-1.25-1.32V305.41Q310,303.88,311.19,303.88Z" transform="translate(-212.35 -211)"/><path class="cls-1" d="M335.73,296.86H336q1.2.25,1.2,1.05V306a8.21,8.21,0,0,1,5.45-2.2,8.07,8.07,0,0,1,7.08,4.18,7.46,7.46,0,0,1,1,3.52v9.28q0,1-1.27,1.2h-.05q-.95,0-1.27-1.2v-8.89q0-3.59-3.71-5.17a6.33,6.33,0,0,0-1.79-.26q-3.69,0-5.19,3.92a10.31,10.31,0,0,0-.26,2.78v7.63q0,1-1.27,1.2h-.05q-.95,0-1.27-1.2V298.11Q334.87,296.86,335.73,296.86Z" transform="translate(-212.35 -211)"/><path class="cls-1" d="M355.65,303.95q1.25.32,1.25,1.13v7q0,4.52,2.57,6.06a5.85,5.85,0,0,0,3.64,1.25q3.83,0,5.78-4a8.5,8.5,0,0,0,.4-2.57v-7.65q.26-1.32,1.32-1.32,1.25.28,1.25,1.25v15.68q0,.88-1.25,1.13h-.07q-1.25-.23-1.25-1.25V319.5h-.07a8.66,8.66,0,0,1-5.92,2.5h-.46q-4.1,0-7.12-4a9.66,9.66,0,0,1-1.39-5.33v-7.19Q354.49,303.95,355.65,303.95Z" transform="translate(-212.35 -211)"/><path class="cls-1" d="M376.46,296.83h.19q1.2.26,1.2,1.14v8.63a9.1,9.1,0,0,1,15.61,6.29q0,5.12-4.85,8.05a9,9,0,0,1-4,1.05H384q-3.67,0-6.84-3.45a9.92,9.92,0,0,1-1.93-6.12V298Q375.27,297.09,376.46,296.83Zm1.39,15.87V313q0,4.06,4.25,6a7.41,7.41,0,0,0,2.06.33h.4q4,0,6-4.25a8.52,8.52,0,0,0,.33-2v-.4q0-4-4.32-6a9,9,0,0,0-2.06-.33h-.26q-4,0-6,4.18A6.62,6.62,0,0,0,377.85,312.7Z" transform="translate(-212.35 -211)"/></g></svg>