<svg xmlns="http://www.w3.org/2000/svg" viewBox="0 0 164.66 111.47"><defs><style>.cls-1{fill:#fff;}</style></defs><title>logo_signika</title><g id="Layer_1" data-name="Layer 1"><path class="cls-1" d="M322.44,211a5.56,5.56,0,0,0-4.89,8.22l-9.11,9.11a7.38,7.38,0,0,0-9.08,0l-7.11-7.11a3.63,3.63,0,0,0,.53-1.87,3.71,3.71,0,1,0-3.71,3.71,3.66,3.66,0,0,0,1.88-.53l7.11,7.11a7.37,7.37,0,0,0,0,9.08L286.3,250.47a5.51,5.51,0,1,0,1.16,1.46L299.35,240a7.34,7.34,0,0,0,3.62,1.5V251a5.56,5.56,0,1,0,1.85,0v-9.42a7.34,7.34,0,0,0,3.62-1.5l7.11,7.11A3.67,3.67,0,0,0,315,249a3.71,3.71,0,1,0,3.71-3.71,3.63,3.63,0,0,0-1.87.53l-7.11-7.11a7.36,7.36,0,0,0,0-9.08l9-9a5.56,5.56,0,1,0,3.73-9.68Zm0,0" transform="translate(-219.12 -211)"/></g><g id="Layer_2" data-name="Layer 2"><path class="cls-1" d="M219.12,320.67a3.9,3.9,0,0,1,.39-1.39,3.81,3.81,0,0,1,.83-1.21,10.4,10.4,0,0,0,4.66,1.58,4.79,4.79,0,0,0,2.71-.61,1.89,1.89,0,0,0,.88-1.62q0-1.58-2.26-2.45l-2-.76q-4.55-1.73-4.55-5.15a4.72,4.72,0,0,1,1.78-3.91,7.25,7.25,0,0,1,4.66-1.42A14,14,0,0,1,232,305a4.2,4.2,0,0,1-.31,1.51,3,3,0,0,1-.81,1.22,11.42,11.42,0,0,0-4.79-1.19,2.89,2.89,0,0,0-1.89.58,1.79,1.79,0,0,0-.7,1.44,1.7,1.7,0,0,0,.52,1.33,5.85,5.85,0,0,0,1.71.94l2.16.83q4.57,1.76,4.57,5.4a4.65,4.65,0,0,1-1.91,3.92,8.42,8.42,0,0,1-5.18,1.44A12,12,0,0,1,219.12,320.67Z" transform="translate(-219.12 -211)"/><path class="cls-1" d="M249.75,314.3H239.17a7,7,0,0,0,1.06,3.82,3.69,3.69,0,0,0,3.22,1.33,9.23,9.23,0,0,0,2.32-.32,11.57,11.57,0,0,0,2.57-1,4.15,4.15,0,0,1,1.19,2.38,11.51,11.51,0,0,1-6.77,2,7.52,7.52,0,0,1-3.46-.72,6.18,6.18,0,0,1-2.29-2,8.41,8.41,0,0,1-1.28-3,17,17,0,0,1-.4-3.76,13,13,0,0,1,.5-3.69,8.94,8.94,0,0,1,1.44-2.93,6.69,6.69,0,0,1,2.32-1.93,6.79,6.79,0,0,1,3.11-.7,7.78,7.78,0,0,1,3.08.58,6.51,6.51,0,0,1,2.29,1.6,6.9,6.9,0,0,1,1.42,2.45,9.46,9.46,0,0,1,.49,3.08q0,.72-.05,1.42A12,12,0,0,1,249.75,314.3Zm-6.91-7.78q-3.42,0-3.67,5.08h7.27v-.47a5.75,5.75,0,0,0-.88-3.33A3.08,3.08,0,0,0,242.84,306.52Z" transform="translate(-219.12 -211)"/><path class="cls-1" d="M268.76,309.8v8.39a7.1,7.1,0,0,0,.61,3.28,3.29,3.29,0,0,1-2.2.79,2,2,0,0,1-1.67-.59,2.93,2.93,0,0,1-.45-1.78v-9.14a5.36,5.36,0,0,0-.49-2.66,1.8,1.8,0,0,0-1.67-.79,5.6,5.6,0,0,0-2.43.59,6.9,6.9,0,0,0-2.18,1.64V322a8.68,8.68,0,0,1-1.84.14q-.58,0-1,0a7.09,7.09,0,0,1-.83-.11V304.29l.22-.22h1.4q1.94,0,2.05,2.23a8.31,8.31,0,0,1,5.72-2.41,4.19,4.19,0,0,1,3.6,1.6A7.06,7.06,0,0,1,268.76,309.8Z" transform="translate(-219.12 -211)"/><path class="cls-1" d="M272.54,320.67a3.9,3.9,0,0,1,.39-1.39,3.81,3.81,0,0,1,.83-1.21,10.4,10.4,0,0,0,4.66,1.58,4.79,4.79,0,0,0,2.71-.61,1.89,1.89,0,0,0,.88-1.62q0-1.58-2.26-2.45l-2-.76q-4.55-1.73-4.55-5.15a4.72,4.72,0,0,1,1.78-3.91,7.25,7.25,0,0,1,4.66-1.42,14,14,0,0,1,5.8,1.3,4.2,4.2,0,0,1-.31,1.51,3,3,0,0,1-.81,1.22,11.42,11.42,0,0,0-4.79-1.19,2.89,2.89,0,0,0-1.89.58,1.79,1.79,0,0,0-.7,1.44,1.7,1.7,0,0,0,.52,1.33,5.85,5.85,0,0,0,1.71.94l2.16.83q4.57,1.76,4.57,5.4A4.65,4.65,0,0,1,284,321a8.42,8.42,0,0,1-5.18,1.44A12,12,0,0,1,272.54,320.67Z" transform="translate(-219.12 -211)"/><path class="cls-1" d="M301.77,320.49a7.06,7.06,0,0,1-5.22,2,7.8,7.8,0,0,1-3.31-.67,6.61,6.61,0,0,1-2.43-1.91,8.78,8.78,0,0,1-1.51-3,14.28,14.28,0,0,1,0-7.65,8.76,8.76,0,0,1,1.51-3,6.62,6.62,0,0,1,2.43-1.91,8.57,8.57,0,0,1,6.62,0,6.63,6.63,0,0,1,2.43,1.91,8.79,8.79,0,0,1,1.51,3,13.18,13.18,0,0,1,.52,3.82Q304.33,317.93,301.77,320.49Zm-5.2-13.9q-3.91,0-3.91,6.52t3.91,6.52q3.94,0,3.94-6.52T296.57,306.59Z" transform="translate(-219.12 -211)"/><path class="cls-1" d="M307.71,305.94a3.25,3.25,0,0,1,1.37-2,4.22,4.22,0,0,1,3.28,3.2,4.87,4.87,0,0,1,4.72-3.2,9.52,9.52,0,0,1,1.91.22,6.53,6.53,0,0,1-.9,3.53,7.51,7.51,0,0,0-1.48-.18q-2.45,0-3.85,2.74V322a12,12,0,0,1-3.71,0V309.65A4.87,4.87,0,0,0,307.71,305.94Z" transform="translate(-219.12 -211)"/><path class="cls-1" d="M344,309.83v8.35a7.34,7.34,0,0,0,.58,3.28,3.48,3.48,0,0,1-2.2.79,2,2,0,0,1-1.64-.59,2.92,2.92,0,0,1-.45-1.78v-9.12a5.34,5.34,0,0,0-.49-2.66,1.8,1.8,0,0,0-1.67-.79,5.49,5.49,0,0,0-2.43.61,7.43,7.43,0,0,0-2.18,1.62V322a7.11,7.11,0,0,1-.83.11c-.31,0-.64,0-1,0s-.67,0-1,0a7.11,7.11,0,0,1-.85-.11V295.76l.22-.22h1.44a1.89,1.89,0,0,1,1.55.54,3,3,0,0,1,.43,1.84v8.39a8.34,8.34,0,0,1,5.69-2.38,4.2,4.2,0,0,1,3.6,1.6A7.07,7.07,0,0,1,344,309.83Z" transform="translate(-219.12 -211)"/><path class="cls-1" d="M349.33,316.42V308a6.74,6.74,0,0,0-.61-3.24,3.41,3.41,0,0,1,2.34-.79q2,0,2,2.33v9.16a5.52,5.52,0,0,0,.47,2.66,1.76,1.76,0,0,0,1.66.79,5.51,5.51,0,0,0,2.41-.59,7.7,7.7,0,0,0,2.2-1.6V304.22a13.12,13.12,0,0,1,1.84-.14,14.67,14.67,0,0,1,1.91.14V317q0,2.52,1,3.42a3.08,3.08,0,0,1-1.4,1.87,3.67,3.67,0,0,1-3-2.59,8.63,8.63,0,0,1-6,2.66,4.13,4.13,0,0,1-3.56-1.62A7.08,7.08,0,0,1,349.33,316.42Z" transform="translate(-219.12 -211)"/><path class="cls-1" d="M369.16,321.1V295.76l.22-.22h1.4a1.91,1.91,0,0,1,1.57.56,2.91,2.91,0,0,1,.45,1.82v7.85a7.45,7.45,0,0,1,5-1.84,5,5,0,0,1,4.45,2.48,12.93,12.93,0,0,1,1.57,6.91,10.74,10.74,0,0,1-.61,3.74,8.41,8.41,0,0,1-1.69,2.83,7.21,7.21,0,0,1-2.54,1.78,8.05,8.05,0,0,1-3.15.61A18.71,18.71,0,0,1,369.16,321.1ZM376.72,307a5.12,5.12,0,0,0-3.92,2.05v10a10,10,0,0,0,3.1.43,3.45,3.45,0,0,0,3-1.69A8.46,8.46,0,0,0,380,313a9.06,9.06,0,0,0-.88-4.57A2.69,2.69,0,0,0,376.72,307Z" transform="translate(-219.12 -211)"/></g></svg>