<svg xmlns="http://www.w3.org/2000/svg" viewBox="0 0 384 384"><defs><style>.cls-1{fill:#ffb600;}.cls-2{fill:#eda006;}.cls-3{fill:#ff8500;}.cls-4{fill:#ed6e06;}.cls-5{fill:#edea83;}.cls-6{fill:#efb025;}.cls-7{fill:none;stroke:#edea82;stroke-linecap:round;stroke-miterlimit:10;stroke-width:0.8px;}.cls-8{fill:#f48619;}.cls-9{fill:#fff;}</style></defs><title>cpu3</title><g id="Layer_1" data-name="Layer 1"><path class="cls-1" d="M486.4,373.76A26.36,26.36,0,0,1,460.16,400H179.84c-14.08,0-26.24-12.16-26.24-26.24V99.84c0-14.08,12.16-26.24,26.24-26.24H459.52a26.36,26.36,0,0,1,26.24,26.24V373.76Zm0,0" transform="translate(-128 -48)"/><path class="cls-2" d="M153.6,99.84c0-14.08,12.16-26.24,26.24-26.24H459.52a26.36,26.36,0,0,1,26.24,26.24V374.4c0,14.72-12.16,25.6-26.24,25.6" transform="translate(-128 -48)"/><rect class="cls-3" x="83.2" y="83.2" width="217.6" height="217.6"/><polyline class="cls-4" points="83.2 83.2 300.8 83.2 300.8 300.8"/><path class="cls-4" d="M294.4,96.64c0,3.2-3.2,5.76-6.4,5.76s-6.4-2.56-6.4-5.76V53.76c0-3.2,3.2-5.76,6.4-5.76s6.4,2.56,6.4,5.76Zm0,0" transform="translate(-128 -48)"/><path class="cls-4" d="M326.4,96.64c0,3.2-3.2,5.76-6.4,5.76s-6.4-2.56-6.4-5.76V53.76c0-3.2,3.2-5.76,6.4-5.76s6.4,2.56,6.4,5.76Zm0,0" transform="translate(-128 -48)"/><path class="cls-4" d="M358.4,96.64c0,3.2-3.2,5.76-6.4,5.76s-6.4-2.56-6.4-5.76V53.76c0-3.2,3.2-5.76,6.4-5.76s6.4,2.56,6.4,5.76Zm0,0" transform="translate(-128 -48)"/><path class="cls-4" d="M326.4,426.24c0,3.2-3.2,5.76-6.4,5.76s-6.4-2.56-6.4-5.76V383.36c0-3.2,3.2-5.76,6.4-5.76s6.4,2.56,6.4,5.76Zm0,0" transform="translate(-128 -48)"/><path class="cls-4" d="M294.4,426.24c0,3.2-3.2,5.76-6.4,5.76s-6.4-2.56-6.4-5.76V383.36c0-3.2,3.2-5.76,6.4-5.76s6.4,2.56,6.4,5.76Zm0,0" transform="translate(-128 -48)"/><path class="cls-4" d="M358.4,426.24c0,3.2-3.2,5.76-6.4,5.76s-6.4-2.56-6.4-5.76V383.36c0-3.2,3.2-5.76,6.4-5.76s6.4,2.56,6.4,5.76Zm0,0" transform="translate(-128 -48)"/><path class="cls-4" d="M463.36,214.4c-3.2,0-5.76-3.2-5.76-6.4s2.56-6.4,5.76-6.4h42.88c3.2,0,5.76,3.2,5.76,6.4s-2.56,6.4-5.76,6.4Zm0,0" transform="translate(-128 -48)"/><path class="cls-4" d="M463.36,246.4c-3.2,0-5.76-3.2-5.76-6.4s2.56-6.4,5.76-6.4h42.88c3.2,0,5.76,3.2,5.76,6.4s-2.56,6.4-5.76,6.4Zm0,0" transform="translate(-128 -48)"/><path class="cls-4" d="M463.36,278.4c-3.2,0-5.76-3.2-5.76-6.4s2.56-6.4,5.76-6.4h42.88c3.2,0,5.76,3.2,5.76,6.4s-2.56,6.4-5.76,6.4Zm0,0" transform="translate(-128 -48)"/><path class="cls-4" d="M133.76,214.4c-3.2,0-5.76-3.2-5.76-6.4s2.56-6.4,5.76-6.4h42.88c3.2,0,5.76,3.2,5.76,6.4s-2.56,6.4-5.76,6.4Zm0,0" transform="translate(-128 -48)"/><path class="cls-4" d="M133.76,246.4c-3.2,0-5.76-3.2-5.76-6.4s2.56-6.4,5.76-6.4h42.88c3.2,0,5.76,3.2,5.76,6.4s-2.56,6.4-5.76,6.4Zm0,0" transform="translate(-128 -48)"/><path class="cls-4" d="M133.76,278.4c-3.2,0-5.76-3.2-5.76-6.4s2.56-6.4,5.76-6.4h42.88c3.2,0,5.76,3.2,5.76,6.4s-2.56,6.4-5.76,6.4Zm0,0" transform="translate(-128 -48)"/><path class="cls-5" d="M203.52,109.44a12.16,12.16,0,1,1-12.16-12.16,12.16,12.16,0,0,1,12.16,12.16Zm0,0" transform="translate(-128 -48)"/><path class="cls-5" d="M460.8,109.44a12.16,12.16,0,1,1-12.16-12.16,12.16,12.16,0,0,1,12.16,12.16Zm0,0" transform="translate(-128 -48)"/><path class="cls-5" d="M203.52,370.56a12.16,12.16,0,1,1-12.16-12.16,12.16,12.16,0,0,1,12.16,12.16Zm0,0" transform="translate(-128 -48)"/><path class="cls-5" d="M460.8,370.56a12.16,12.16,0,1,1-12.16-12.16,12.16,12.16,0,0,1,12.16,12.16Zm0,0" transform="translate(-128 -48)"/><polyline class="cls-6" points="112 160 112 214.4 153.6 214.4"/><polyline class="cls-7" points="112 160 112 214.4 153.6 214.4"/><polyline class="cls-6" points="156.8 198.4 156.8 259.2 169.6 259.2 169.6 284.8 224 284.8"/><path class="cls-7" d="M284.8,246.4v60.8h12.8v25.6H352m-83.2-96h32" transform="translate(-128 -48)"/><polyline class="cls-6" points="203.52 240 247.68 284.8 214.4 284.8 214.4 251.52"/><polyline class="cls-7" points="203.52 240 247.68 284.8 214.4 284.8 214.4 251.52"/><path class="cls-6" d="M260.48,330.24a19.2,19.2,0,0,1,0-38.4" transform="translate(-128 -48)"/><path class="cls-7" d="M260.48,330.24a19.2,19.2,0,0,1,0-38.4" transform="translate(-128 -48)"/><polyline class="cls-6" points="96 131.2 112 131.2 112 147.2"/><polyline class="cls-7" points="96 131.2 112 131.2 112 147.2"/><polyline class="cls-8" points="272 224 272 169.6 230.4 169.6"/><polyline class="cls-7" points="272 224 272 169.6 230.4 169.6"/><polyline class="cls-8" points="227.2 185.6 227.2 124.8 214.4 124.8 214.4 99.2 160 99.2"/><path class="cls-7" d="M355.2,233.6V172.8H342.4V147.2H288m83.2,96h-32" transform="translate(-128 -48)"/><polyline class="cls-8" points="180.48 145.28 136.32 99.2 169.6 99.2 169.6 134.4"/><polyline class="cls-7" points="180.48 145.28 136.32 99.2 169.6 99.2 169.6 134.4"/><path class="cls-8" d="M379.52,149.76a19.2,19.2,0,0,1,0,38.4" transform="translate(-128 -48)"/><path class="cls-7" d="M379.52,149.76a19.2,19.2,0,0,1,0,38.4" transform="translate(-128 -48)"/><polyline class="cls-8" points="288 252.8 272 252.8 272 236.8"/><polyline class="cls-7" points="288 252.8 272 252.8 272 236.8"/></g><g id="Layer_2" data-name="Layer 2"><path class="cls-9" d="M238.56,227.32V236h-5.68V210.79h8.89q9.53,0,9.53,8a7.71,7.71,0,0,1-2.73,6.14,10.83,10.83,0,0,1-7.3,2.35Zm0-12.16V223h2.23q4.54,0,4.54-4t-4.54-3.88Z" transform="translate(-128 -48)"/><path class="cls-9" d="M276.14,236h-6.52l-3.92-6.49q-.44-.74-.84-1.32a7.32,7.32,0,0,0-.82-1,3.25,3.25,0,0,0-.86-.63,2.19,2.19,0,0,0-1-.22h-1.53V236H255V210.79h9q9.18,0,9.18,6.86a7.1,7.1,0,0,1-.4,2.43,6.76,6.76,0,0,1-1.14,2,7.24,7.24,0,0,1-1.78,1.55,9.2,9.2,0,0,1-2.33,1v.07a3.61,3.61,0,0,1,1.09.57,7.8,7.8,0,0,1,1,.92,12.88,12.88,0,0,1,.94,1.13q.45.61.82,1.19Zm-15.47-21v7h2.46a4.08,4.08,0,0,0,2.94-1.05,3.52,3.52,0,0,0,1.13-2.65q0-3.3-4-3.3Z" transform="translate(-128 -48)"/><path class="cls-9" d="M293.62,236H278.5V210.79H293v4.62h-8.86V221h8.24v4.61h-8.24v5.77h9.44Z" transform="translate(-128 -48)"/><path class="cls-9" d="M296.5,235v-5.62a10.81,10.81,0,0,0,3.32,1.92,10.68,10.68,0,0,0,3.62.64,8,8,0,0,0,1.87-.19,4.39,4.39,0,0,0,1.34-.54,2.34,2.34,0,0,0,.8-.81,2,2,0,0,0,.26-1,2.18,2.18,0,0,0-.42-1.32,4.54,4.54,0,0,0-1.15-1.07,12,12,0,0,0-1.73-.95q-1-.46-2.16-.93a11,11,0,0,1-4.4-3,6.56,6.56,0,0,1-1.45-4.29,6.83,6.83,0,0,1,.79-3.38,6.72,6.72,0,0,1,2.15-2.33,9.66,9.66,0,0,1,3.16-1.34,16.21,16.21,0,0,1,3.8-.43,22.84,22.84,0,0,1,3.49.24,13.72,13.72,0,0,1,2.8.73v5.26a8.48,8.48,0,0,0-1.38-.77,10.93,10.93,0,0,0-1.54-.55,11.73,11.73,0,0,0-1.57-.33,11.13,11.13,0,0,0-1.49-.11,7.75,7.75,0,0,0-1.76.18,4.51,4.51,0,0,0-1.34.52,2.58,2.58,0,0,0-.84.8,1.9,1.9,0,0,0-.3,1,2,2,0,0,0,.33,1.13,3.83,3.83,0,0,0,.95.95,10.07,10.07,0,0,0,1.49.88q.88.43,2,.89a22.13,22.13,0,0,1,2.72,1.34,9.65,9.65,0,0,1,2.07,1.61,6.27,6.27,0,0,1,1.32,2,8.18,8.18,0,0,1-.34,6.22,6.49,6.49,0,0,1-2.17,2.32,9.41,9.41,0,0,1-3.19,1.27,18.44,18.44,0,0,1-3.84.39,21.36,21.36,0,0,1-3.95-.35A11.91,11.91,0,0,1,296.5,235Z" transform="translate(-128 -48)"/><path class="cls-9" d="M316.68,235v-5.62a10.81,10.81,0,0,0,3.32,1.92,10.68,10.68,0,0,0,3.62.64,8,8,0,0,0,1.87-.19,4.39,4.39,0,0,0,1.34-.54,2.34,2.34,0,0,0,.8-.81,2,2,0,0,0,.26-1,2.18,2.18,0,0,0-.42-1.32,4.54,4.54,0,0,0-1.15-1.07,12,12,0,0,0-1.73-.95q-1-.46-2.16-.93a11,11,0,0,1-4.4-3,6.56,6.56,0,0,1-1.45-4.29,6.83,6.83,0,0,1,.79-3.38,6.72,6.72,0,0,1,2.15-2.33,9.66,9.66,0,0,1,3.16-1.34,16.21,16.21,0,0,1,3.8-.43,22.84,22.84,0,0,1,3.49.24,13.72,13.72,0,0,1,2.8.73v5.26a8.48,8.48,0,0,0-1.38-.77,10.93,10.93,0,0,0-1.54-.55,11.73,11.73,0,0,0-1.57-.33,11.13,11.13,0,0,0-1.49-.11A7.75,7.75,0,0,0,325,215a4.51,4.51,0,0,0-1.34.52,2.58,2.58,0,0,0-.84.8,1.9,1.9,0,0,0-.3,1,2,2,0,0,0,.33,1.13,3.83,3.83,0,0,0,.95.95,10.07,10.07,0,0,0,1.49.88q.88.43,2,.89a22.13,22.13,0,0,1,2.72,1.34,9.65,9.65,0,0,1,2.07,1.61,6.27,6.27,0,0,1,1.32,2,8.18,8.18,0,0,1-.34,6.22,6.49,6.49,0,0,1-2.17,2.32,9.41,9.41,0,0,1-3.19,1.27,18.44,18.44,0,0,1-3.84.39,21.36,21.36,0,0,1-3.95-.35A11.91,11.91,0,0,1,316.68,235Z" transform="translate(-128 -48)"/><path class="cls-9" d="M358.57,225.08q0,11.36-10.58,11.36-10.27,0-10.27-11.09V210.79h5.7v14.63q0,6.12,4.78,6.12t4.69-5.91V210.79h5.68Z" transform="translate(-128 -48)"/><path class="cls-9" d="M385.2,236h-6.52l-3.92-6.49q-.44-.74-.84-1.32a7.32,7.32,0,0,0-.82-1,3.25,3.25,0,0,0-.86-.63,2.19,2.19,0,0,0-1-.22h-1.53V236h-5.68V210.79h9q9.18,0,9.18,6.86a7.1,7.1,0,0,1-.4,2.43,6.76,6.76,0,0,1-1.14,2,7.24,7.24,0,0,1-1.78,1.55,9.2,9.2,0,0,1-2.33,1v.07a3.61,3.61,0,0,1,1.09.57,7.8,7.8,0,0,1,1,.92,12.88,12.88,0,0,1,.94,1.13q.45.61.82,1.19Zm-15.47-21v7h2.46a4.08,4.08,0,0,0,2.94-1.05,3.52,3.52,0,0,0,1.13-2.65q0-3.3-4-3.3Z" transform="translate(-128 -48)"/><path class="cls-9" d="M402.67,236H387.55V210.79h14.54v4.62h-8.86V221h8.24v4.61h-8.24v5.77h9.44Z" transform="translate(-128 -48)"/><path class="cls-9" d="M251.59,278.23v-5.62a10.81,10.81,0,0,0,3.32,1.92,10.68,10.68,0,0,0,3.62.64,8,8,0,0,0,1.87-.19,4.39,4.39,0,0,0,1.34-.54,2.34,2.34,0,0,0,.8-.81,2,2,0,0,0,.26-1,2.18,2.18,0,0,0-.42-1.32,4.54,4.54,0,0,0-1.15-1.07,12,12,0,0,0-1.73-.95q-1-.46-2.16-.93a11,11,0,0,1-4.4-3,6.56,6.56,0,0,1-1.45-4.29,6.83,6.83,0,0,1,.79-3.38,6.72,6.72,0,0,1,2.15-2.33,9.66,9.66,0,0,1,3.16-1.34,16.21,16.21,0,0,1,3.8-.43,22.84,22.84,0,0,1,3.49.24,13.72,13.72,0,0,1,2.8.73v5.26a8.48,8.48,0,0,0-1.38-.77,10.93,10.93,0,0,0-1.54-.55,11.73,11.73,0,0,0-1.57-.33,11.13,11.13,0,0,0-1.49-.11,7.75,7.75,0,0,0-1.76.18,4.51,4.51,0,0,0-1.34.52,2.58,2.58,0,0,0-.84.8,1.9,1.9,0,0,0-.3,1,2,2,0,0,0,.33,1.13,3.83,3.83,0,0,0,.95.95,10.07,10.07,0,0,0,1.49.88q.88.43,2,.89a22.13,22.13,0,0,1,2.72,1.34,9.65,9.65,0,0,1,2.07,1.61,6.27,6.27,0,0,1,1.32,2,8.18,8.18,0,0,1-.34,6.22,6.49,6.49,0,0,1-2.17,2.32,9.41,9.41,0,0,1-3.19,1.27,18.44,18.44,0,0,1-3.84.39,21.36,21.36,0,0,1-3.95-.35A11.91,11.91,0,0,1,251.59,278.23Z" transform="translate(-128 -48)"/><path class="cls-9" d="M288,279.2H272.93V254h14.54v4.62H278.6v5.61h8.24v4.61H278.6v5.77H288Z" transform="translate(-128 -48)"/><path class="cls-9" d="M314.76,279.2H309l-10.39-15.84a22.9,22.9,0,0,1-1.27-2.09h-.07q.14,1.34.14,4.08V279.2h-5.36V254h6.12l10,15.35q.69,1,1.27,2.06h.07a27,27,0,0,1-.14-3.46V254h5.36Z" transform="translate(-128 -48)"/><path class="cls-9" d="M319.37,278.23v-5.62a10.81,10.81,0,0,0,3.32,1.92,10.68,10.68,0,0,0,3.62.64,8,8,0,0,0,1.87-.19,4.39,4.39,0,0,0,1.34-.54,2.34,2.34,0,0,0,.8-.81,2,2,0,0,0,.26-1,2.18,2.18,0,0,0-.42-1.32,4.54,4.54,0,0,0-1.15-1.07,12,12,0,0,0-1.73-.95q-1-.46-2.16-.93a11,11,0,0,1-4.4-3,6.56,6.56,0,0,1-1.45-4.29,6.83,6.83,0,0,1,.79-3.38,6.72,6.72,0,0,1,2.15-2.33,9.66,9.66,0,0,1,3.16-1.34,16.21,16.21,0,0,1,3.8-.43,22.84,22.84,0,0,1,3.49.24,13.72,13.72,0,0,1,2.8.73v5.26a8.48,8.48,0,0,0-1.38-.77,10.93,10.93,0,0,0-1.54-.55,11.73,11.73,0,0,0-1.57-.33,11.13,11.13,0,0,0-1.49-.11,7.75,7.75,0,0,0-1.76.18,4.51,4.51,0,0,0-1.34.52,2.58,2.58,0,0,0-.84.8,1.9,1.9,0,0,0-.3,1,2,2,0,0,0,.33,1.13,3.83,3.83,0,0,0,.95.95,10.07,10.07,0,0,0,1.49.88q.88.43,2,.89a22.13,22.13,0,0,1,2.72,1.34,9.65,9.65,0,0,1,2.07,1.61,6.27,6.27,0,0,1,1.32,2,8.18,8.18,0,0,1-.34,6.22,6.49,6.49,0,0,1-2.17,2.32,9.41,9.41,0,0,1-3.19,1.27,18.44,18.44,0,0,1-3.84.39,21.36,21.36,0,0,1-3.95-.35A11.91,11.91,0,0,1,319.37,278.23Z" transform="translate(-128 -48)"/><path class="cls-9" d="M351.36,279.64a11.73,11.73,0,0,1-8.82-3.52,12.65,12.65,0,0,1-3.41-9.18,13.56,13.56,0,0,1,3.46-9.67,12,12,0,0,1,9.18-3.69,11.44,11.44,0,0,1,8.73,3.53,13,13,0,0,1,3.33,9.32,13.34,13.34,0,0,1-3.45,9.58A11.86,11.86,0,0,1,351.36,279.64Zm.25-21.18a5.72,5.72,0,0,0-4.75,2.24,9.34,9.34,0,0,0-1.76,5.93,9.17,9.17,0,0,0,1.76,5.92,6.07,6.07,0,0,0,9.26.06,9.07,9.07,0,0,0,1.72-5.88,9.83,9.83,0,0,0-1.67-6.1A5.44,5.44,0,0,0,351.61,258.46Z" transform="translate(-128 -48)"/><path class="cls-9" d="M389.15,279.2h-6.52l-3.92-6.49q-.44-.74-.84-1.32a7.32,7.32,0,0,0-.82-1,3.25,3.25,0,0,0-.86-.63,2.19,2.19,0,0,0-1-.22h-1.53v9.65H368V254h9q9.18,0,9.18,6.86a7.1,7.1,0,0,1-.4,2.43,6.76,6.76,0,0,1-1.14,2,7.24,7.24,0,0,1-1.78,1.55,9.2,9.2,0,0,1-2.33,1v.07a3.61,3.61,0,0,1,1.09.57,7.8,7.8,0,0,1,1,.92,12.88,12.88,0,0,1,.94,1.13q.45.61.82,1.19Zm-15.47-21v7h2.46a4.08,4.08,0,0,0,2.94-1.05,3.52,3.52,0,0,0,1.13-2.65q0-3.3-4-3.3Z" transform="translate(-128 -48)"/></g></svg>