<svg id="Layer_1" data-name="Layer 1" xmlns="http://www.w3.org/2000/svg" viewBox="0 0 237.07 217.74"><defs><style>.cls-1{fill:#f597ae;}</style></defs><title>sleep_with_z</title><path class="cls-1" d="M438.07,219.84a47.94,47.94,0,0,0-63-45.54,56.7,56.7,0,0,0-110.26.31A47.94,47.94,0,0,0,230,263.86,51.2,51.2,0,0,0,319.7,306a51.2,51.2,0,0,0,89.72-42.3,48.23,48.23,0,0,0,28.66-43.89Zm-61.87,52H338.6v-5.08l22.82-36.52H337.8v-9.6h38.4v5.43l-23,37h23Zm-113.6-41.6v-9.6h37.6v5.43l-22.87,37H300.2v8.8H262.6v-5.08l23-36.52Zm37.6-26.4v-8.8h37.6v4.77l-22.36,36.83H338.6v9.6H300.2v-5.74l23.5-36.66Zm0,0" transform="translate(-201 -131)"/><path class="cls-1" d="M220.26,310.22a19.26,19.26,0,1,0,19.26,19.26,19.28,19.28,0,0,0-19.26-19.26Zm0,0" transform="translate(-201 -131)"/></svg>