<svg id="Layer_1" data-name="Layer 1" xmlns="http://www.w3.org/2000/svg" viewBox="0 0 238.01 198.08"><defs><style>.cls-1{fill:#f597ae;}.cls-2{fill:#e56e91;}</style></defs><title>sleep_down</title><path class="cls-1" d="M438.07,219.84a47.94,47.94,0,0,0-63-45.54,56.7,56.7,0,0,0-110.26.31A47.94,47.94,0,0,0,230,263.86,51.2,51.2,0,0,0,319.7,306a51.2,51.2,0,0,0,89.72-42.3,48.23,48.23,0,0,0,28.66-43.89Zm-137.87-16" transform="translate(-200.06 -127.22)"/><path class="cls-2" d="M438.07,219.84a48.78,48.78,0,0,0-5.32-21.77,47.64,47.64,0,0,0-14.61-17l-1.13-.84c-.38-.27-.8-.5-1.2-.75L413.39,178c-.8-.5-1.68-.84-2.52-1.27s-1.68-.86-2.56-1.18l-2.65-1-1.33-.48-1.37-.35-2.73-.7c-.91-.24-1.86-.31-2.78-.47s-1.86-.32-2.79-.39l-2.82-.14a35.9,35.9,0,0,0-5.64.09,48.13,48.13,0,0,0-11,2.26l-.15,0,0-.15a56.09,56.09,0,0,0-7.46-17.22,56.28,56.28,0,0,0-47.62-25.67,56.37,56.37,0,0,0-54.3,43.34l-.19.82-.8-.28a45.38,45.38,0,0,0-17.8-2.49,46.84,46.84,0,0,0-17.44,4.25A47.08,47.08,0,0,0,202,220.36a46.55,46.55,0,0,0,3.68,17.53A47.54,47.54,0,0,0,230.33,263l.7.31-.14.74a50.25,50.25,0,0,0-.88,8.22c-.06,1.38.09,2.76.13,4.14l.1,2.07.31,2a53.08,53.08,0,0,0,1.78,8.08l1.42,3.89c.51,1.28,1.17,2.5,1.75,3.75a52,52,0,0,0,9.8,13.28,49.07,49.07,0,0,0,13.57,9.4,50.68,50.68,0,0,0,15.88,4.59,66.5,66.5,0,0,0,8.3.27,55.9,55.9,0,0,0,8.24-1.11,50.59,50.59,0,0,0,28-17l.43-.52.42.52a50.73,50.73,0,0,0,28,17.27,55.79,55.79,0,0,0,8.29,1.18,65.94,65.94,0,0,0,8.37-.21,51,51,0,0,0,16.08-4.52,49.57,49.57,0,0,0,13.8-9.46,52.09,52.09,0,0,0,10-13.45c.59-1.27,1.28-2.5,1.78-3.81l1.46-4c.39-1.35.71-2.71,1.07-4.07l.26-1,.16-1,.32-2.08c.1-.69.23-1.39.3-2.08l.11-2.1c.05-1.4.2-2.8.14-4.21a51.32,51.32,0,0,0-.89-8.37v-.07l.07,0a48.21,48.21,0,0,0,28.7-43.81Zm0,0a48.3,48.3,0,0,1-28.62,44l.05-.1a51.52,51.52,0,0,1,.92,8.4c.06,1.41-.08,2.82-.13,4.23l-.1,2.11c-.07.7-.2,1.4-.3,2.09l-.32,2.09-.16,1-.26,1c-.36,1.36-.68,2.74-1.07,4.1l-1.45,4c-.5,1.32-1.19,2.56-1.78,3.84a53.64,53.64,0,0,1-10,13.6,50,50,0,0,1-13.85,9.66,51.56,51.56,0,0,1-16.24,4.71,66.59,66.59,0,0,1-8.49.29,56.56,56.56,0,0,1-8.43-1.13,51.7,51.7,0,0,1-28.62-17.37h.85A51.84,51.84,0,0,1,291.59,324a57.31,57.31,0,0,1-8.46,1.21,67.85,67.85,0,0,1-8.55-.21,52.05,52.05,0,0,1-40.67-28c-.6-1.3-1.29-2.56-1.82-3.88l-1.48-4a54.9,54.9,0,0,1-1.88-8.37l-.32-2.12-.11-2.14c-.05-1.43-.21-2.86-.15-4.29a52.13,52.13,0,0,1,.88-8.54l.56,1a49.18,49.18,0,0,1-25.74-26.08,48.51,48.51,0,0,1-3.78-18.27,48.92,48.92,0,0,1,28.58-44.87,48.26,48.26,0,0,1,18.09-4.34,47,47,0,0,1,18.38,2.73l-1,.54a57.26,57.26,0,0,1,74.48-40.71,57.05,57.05,0,0,1,36.67,40.54l-.19-.1a48.4,48.4,0,0,1,11.1-2.23,36.13,36.13,0,0,1,5.67-.07l2.83.15c.94.07,1.87.27,2.81.4s1.88.24,2.79.48l2.74.71,1.37.36,1.33.49,2.66,1c.89.33,1.71.8,2.57,1.19s1.73.78,2.53,1.28l2.42,1.48c.4.25.82.48,1.2.75l1.13.85A47.75,47.75,0,0,1,432.82,198,48.82,48.82,0,0,1,438.07,219.84Z" transform="translate(-200.06 -127.22)"/><path class="cls-1" d="M397.76,127.22A19.26,19.26,0,1,0,417,146.48a19.28,19.28,0,0,0-19.26-19.26Zm0,0" transform="translate(-200.06 -127.22)"/><path class="cls-2" d="M397.76,127.22a19.29,19.29,0,0,0-7.35,1.51A18.75,18.75,0,0,0,379,146.48a18.77,18.77,0,0,0,37.52,0,18.75,18.75,0,0,0-11.41-17.75A19.29,19.29,0,0,0,397.76,127.22Zm0,0A19.76,19.76,0,0,1,412,160.7a19.94,19.94,0,0,1-6.49,4.46,19.78,19.78,0,0,1-22-4.46A19.91,19.91,0,0,1,378,146.48a19.8,19.8,0,0,1,19.76-19.26Z" transform="translate(-200.06 -127.22)"/></svg>